<?xml version="1.0" encoding="UTF-8"?>
<!DOCTYPE svg PUBLIC "-//W3C//DTD SVG 1.1//EN" "http://www.w3.org/Graphics/SVG/1.1/DTD/svg11.dtd">
<svg xmlns="http://www.w3.org/2000/svg" version="1.1" width="512px" height="512px" style="shape-rendering:geometricPrecision; text-rendering:geometricPrecision; image-rendering:optimizeQuality; fill-rule:evenodd; clip-rule:evenodd" xmlns:xlink="http://www.w3.org/1999/xlink">
<g><path style="opacity:0.997" fill="#ecebe9" d="M 243.5,41.5 C 329.668,40.4876 395.502,76.1543 441,148.5C 479.837,222.068 478.837,295.068 438,367.5C 398.036,429.087 341.203,462.921 267.5,469C 181.303,470.496 115.47,434.996 70,362.5C 31.1631,288.932 32.1631,215.932 73,143.5C 113.168,81.9859 170.002,47.9859 243.5,41.5 Z"/></g>
<g><path style="opacity:1" fill="#20bf55" d="M 276.5,146.5 C 276.5,175.833 276.5,205.167 276.5,234.5C 305.833,234.5 335.167,234.5 364.5,234.5C 378.651,237.485 384.818,246.151 383,260.5C 380.063,269.606 373.897,274.939 364.5,276.5C 335.167,276.5 305.833,276.5 276.5,276.5C 276.5,305.833 276.5,335.167 276.5,364.5C 273.35,379.082 264.35,385.249 249.5,383C 240.968,379.64 235.968,373.474 234.5,364.5C 234.5,335.167 234.5,305.833 234.5,276.5C 205.167,276.5 175.833,276.5 146.5,276.5C 131.925,273.37 125.759,264.37 128,249.5C 131.276,241.382 137.11,236.382 145.5,234.5C 175.167,234.5 204.833,234.5 234.5,234.5C 234.5,204.833 234.5,175.167 234.5,145.5C 237.913,131.955 246.58,126.121 260.5,128C 269.62,130.95 274.954,137.116 276.5,146.5 Z"/></g>
<g><path style="opacity:1" fill="#a9ddb8" d="M 234.5,145.5 C 234.5,175.167 234.5,204.833 234.5,234.5C 204.833,234.5 175.167,234.5 145.5,234.5C 174.662,233.502 203.995,233.169 233.5,233.5C 233.169,203.995 233.502,174.662 234.5,145.5 Z"/></g>
<g><path style="opacity:1" fill="#a8dcb7" d="M 276.5,146.5 C 277.498,175.329 277.831,204.329 277.5,233.5C 306.671,233.169 335.671,233.502 364.5,234.5C 335.167,234.5 305.833,234.5 276.5,234.5C 276.5,205.167 276.5,175.833 276.5,146.5 Z"/></g>
<g><path style="opacity:1" fill="#a9ddb8" d="M 146.5,276.5 C 175.833,276.5 205.167,276.5 234.5,276.5C 234.5,305.833 234.5,335.167 234.5,364.5C 233.502,335.671 233.169,306.671 233.5,277.5C 204.329,277.831 175.329,277.498 146.5,276.5 Z"/></g>
<g><path style="opacity:1" fill="#a9ddb8" d="M 364.5,276.5 C 335.671,277.498 306.671,277.831 277.5,277.5C 277.831,306.671 277.498,335.671 276.5,364.5C 276.5,335.167 276.5,305.833 276.5,276.5C 305.833,276.5 335.167,276.5 364.5,276.5 Z"/></g>
</svg>
