<?xml version="1.0" encoding="UTF-8"?>
<!DOCTYPE svg PUBLIC "-//W3C//DTD SVG 1.1//EN" "http://www.w3.org/Graphics/SVG/1.1/DTD/svg11.dtd">
<svg xmlns="http://www.w3.org/2000/svg" version="1.1" width="512px" height="512px" style="shape-rendering:geometricPrecision; text-rendering:geometricPrecision; image-rendering:optimizeQuality; fill-rule:evenodd; clip-rule:evenodd" xmlns:xlink="http://www.w3.org/1999/xlink">
<g><path style="opacity:0.978" fill="#010101" d="M 168.5,-0.5 C 258.5,-0.5 348.5,-0.5 438.5,-0.5C 469.984,8.5122 485.151,29.5122 484,62.5C 482.416,66.248 479.583,68.248 475.5,68.5C 466.489,66.329 457.656,63.6624 449,60.5C 441.179,64.2194 433.179,67.5527 425,70.5C 422.026,69.882 419.192,68.882 416.5,67.5C 415.667,199.165 415.167,330.832 415,462.5C 410.292,488.704 395.125,505.037 369.5,511.5C 270.5,511.5 171.5,511.5 72.5,511.5C 39.6838,502.178 24.8504,480.512 28,446.5C 29.5088,444.081 31.6755,443.081 34.5,443.5C 38.0627,443.625 40.5627,445.292 42,448.5C 40.6323,472.782 51.4656,488.616 74.5,496C 99.3454,498.671 115.512,488.171 123,464.5C 123.833,444.492 123.666,424.492 122.5,404.5C 120.941,403.553 119.274,402.887 117.5,402.5C 110.577,405.465 103.577,408.132 96.5,410.5C 89.5259,408.266 82.6926,405.599 76,402.5C 69.2036,405.733 62.2036,408.399 55,410.5C 51.0154,409.59 47.182,408.257 43.5,406.5C 43.44,405.957 43.1067,405.624 42.5,405.5C 41.5091,409.445 41.1758,413.445 41.5,417.5C 40.6365,421.113 38.3032,423.113 34.5,423.5C 30.8296,423.673 28.3296,422.007 27,418.5C 26.3333,409.833 26.3333,401.167 27,392.5C 29.4024,386.908 33.5691,385.075 39.5,387C 44.876,389.403 50.2093,391.903 55.5,394.5C 62.0525,390.806 68.8859,387.806 76,385.5C 83.1141,387.806 89.9475,390.806 96.5,394.5C 102.621,391.94 108.621,389.106 114.5,386C 117.588,385.153 120.421,385.653 123,387.5C 123.333,310.833 123.667,234.167 124,157.5C 125.571,155.077 127.737,153.744 130.5,153.5C 134.024,153.667 136.524,155.333 138,158.5C 138.667,259.833 138.667,361.167 138,462.5C 136.983,470.716 134.483,478.383 130.5,485.5C 127.873,489.208 124.873,492.708 121.5,496C 202.833,496.667 284.167,496.667 365.5,496C 385.296,491.704 396.629,479.538 399.5,459.5C 400.833,326.666 400.833,193.666 399.5,60.5C 398.893,60.6236 398.56,60.9569 398.5,61.5C 391.745,63.7087 385.078,66.2087 378.5,69C 374.979,69.6908 371.645,69.1908 368.5,67.5C 363.305,64.7044 357.805,62.3711 352,60.5C 343.976,63.9304 335.809,66.9304 327.5,69.5C 319.515,66.5097 311.515,63.5097 303.5,60.5C 295.638,63.8981 287.638,66.8981 279.5,69.5C 271.09,66.6969 262.757,63.6969 254.5,60.5C 247.082,62.3549 239.748,64.5215 232.5,67C 226.814,68.7389 222.98,66.9055 221,61.5C 221.438,35.9535 209.272,20.4535 184.5,15C 162.542,13.9405 147.708,23.7738 140,44.5C 138.7,72.7849 138.033,101.118 138,129.5C 137.626,130.416 137.126,131.25 136.5,132C 134.389,132.845 132.389,133.678 130.5,134.5C 127.325,134.16 125.159,132.493 124,129.5C 123.333,101.833 123.333,74.1667 124,46.5C 129.457,21.8784 144.29,6.21172 168.5,-0.5 Z"/></g>
<g><path style="opacity:1" fill="#fdf7dd" d="M 218.5,15.5 C 290.666,14.3345 362.999,14.1678 435.5,15C 453.191,19.3574 464.191,30.3574 468.5,48C 468.167,48.8333 467.833,49.6667 467.5,50.5C 461.294,48.5981 455.128,46.5981 449,44.5C 440.786,47.4044 432.619,50.4044 424.5,53.5C 416.381,50.4044 408.214,47.4044 400,44.5C 392.214,47.644 384.38,50.644 376.5,53.5C 368.227,50.7979 360.061,47.7979 352,44.5C 344.078,47.6965 336.078,50.6965 328,53.5C 319.89,50.7779 311.89,47.7779 304,44.5C 295.939,47.7979 287.773,50.7979 279.5,53.5C 271.381,50.4044 263.214,47.4044 255,44.5C 248.467,46.4001 241.967,48.4001 235.5,50.5C 233.805,36.7783 228.138,25.1116 218.5,15.5 Z"/></g>
<g><path style="opacity:1" fill="#fdf4cc" d="M 368.5,67.5 C 367.501,150.665 367.167,233.998 367.5,317.5C 356.495,317.333 345.495,317.5 334.5,318C 329.167,322.333 329.167,326.667 334.5,331C 345.495,331.5 356.495,331.667 367.5,331.5C 367.5,345.167 367.5,358.833 367.5,372.5C 356.828,372.333 346.161,372.5 335.5,373C 328.928,377.478 328.928,382.145 335.5,387C 346.161,387.5 356.828,387.667 367.5,387.5C 368.279,401.084 366.945,414.417 363.5,427.5C 354.161,427.334 344.827,427.5 335.5,428C 331.788,430.513 330.622,434.013 332,438.5C 332.5,440.333 333.667,441.5 335.5,442C 342.492,442.5 349.492,442.666 356.5,442.5C 342.353,467.093 321.02,480.926 292.5,484C 238.429,484.171 184.429,484.671 130.5,485.5C 134.483,478.383 136.983,470.716 138,462.5C 138.667,361.167 138.667,259.833 138,158.5C 136.524,155.333 134.024,153.667 130.5,153.5C 130.5,147.167 130.5,140.833 130.5,134.5C 132.389,133.678 134.389,132.845 136.5,132C 137.126,131.25 137.626,130.416 138,129.5C 138.033,101.118 138.7,72.7849 140,44.5C 147.708,23.7738 162.542,13.9405 184.5,15C 209.272,20.4535 221.438,35.9535 221,61.5C 222.98,66.9055 226.814,68.7389 232.5,67C 239.748,64.5215 247.082,62.3549 254.5,60.5C 262.757,63.6969 271.09,66.6969 279.5,69.5C 287.638,66.8981 295.638,63.8981 303.5,60.5C 311.515,63.5097 319.515,66.5097 327.5,69.5C 335.809,66.9304 343.976,63.9304 352,60.5C 357.805,62.3711 363.305,64.7044 368.5,67.5 Z"/></g>
<g><path style="opacity:1" fill="#fef2bd" d="M 398.5,61.5 C 399.5,193.999 399.833,326.666 399.5,459.5C 396.629,479.538 385.296,491.704 365.5,496C 284.167,496.667 202.833,496.667 121.5,496C 124.873,492.708 127.873,489.208 130.5,485.5C 184.429,484.671 238.429,484.171 292.5,484C 321.02,480.926 342.353,467.093 356.5,442.5C 360.182,442.665 363.848,442.499 367.5,442C 372.911,439.775 374.411,435.942 372,430.5C 369.695,428.07 366.862,427.07 363.5,427.5C 366.945,414.417 368.279,401.084 367.5,387.5C 372.256,385.444 374.09,381.777 373,376.5C 371.568,374.561 369.735,373.228 367.5,372.5C 367.5,358.833 367.5,345.167 367.5,331.5C 372.187,329.797 374.02,326.463 373,321.5C 371.549,319.536 369.716,318.203 367.5,317.5C 367.167,233.998 367.501,150.665 368.5,67.5C 371.645,69.1908 374.979,69.6908 378.5,69C 385.078,66.2087 391.745,63.7087 398.5,61.5 Z"/></g>
<g><path style="opacity:1" fill="#5c5844" d="M 398.5,61.5 C 398.56,60.9569 398.893,60.6236 399.5,60.5C 400.833,193.666 400.833,326.666 399.5,459.5C 399.833,326.666 399.5,193.999 398.5,61.5 Z"/></g>
<g><path style="opacity:1" fill="#030403" d="M 319.5,240.5 C 314.618,237.594 313.451,233.594 316,228.5C 318.323,194.816 302.489,177.65 268.5,177C 256.419,171.344 251.253,161.844 253,148.5C 259.549,133.14 270.715,127.974 286.5,133C 288.833,134.5 291.167,136 293.5,137.5C 298.628,134.867 303.628,132.033 308.5,129C 306.167,126.667 303.833,124.333 301.5,122C 296.22,119.018 291.053,115.851 286,112.5C 284.612,107.628 284.112,102.628 284.5,97.5C 278.833,97.5 273.167,97.5 267.5,97.5C 267.897,102.959 267.397,108.292 266,113.5C 239.699,124.769 230.699,144.102 239,171.5C 244.28,181.446 252.113,188.613 262.5,193C 271.218,194.557 279.884,196.223 288.5,198C 301.055,208.411 302.888,220.578 294,234.5C 282.761,244.594 271.261,244.927 259.5,235.5C 254.147,237.84 249.147,240.673 244.5,244C 246.821,247.654 249.821,250.654 253.5,253C 257.777,255.054 261.943,257.221 266,259.5C 267.397,264.708 267.897,270.041 267.5,275.5C 273.167,275.5 278.833,275.5 284.5,275.5C 281.621,262.541 286.787,255.207 300,253.5C 302.41,253.482 304.577,254.149 306.5,255.5C 308.934,262.299 306.767,266.965 300,269.5C 299.667,275.167 299.333,280.833 299,286.5C 298.167,287.333 297.333,288.167 296.5,289C 283.595,290.628 270.595,290.961 257.5,290C 255.333,289.167 253.833,287.667 253,285.5C 252.83,279.804 252.33,274.138 251.5,268.5C 239.805,262.971 231.305,254.304 226,242.5C 225.218,239.743 225.718,237.243 227.5,235C 237.677,229.411 248.01,224.078 258.5,219C 260.5,218.333 262.5,218.333 264.5,219C 267.272,220.86 269.605,223.194 271.5,226C 281.331,228.506 285.498,224.672 284,214.5C 283.167,213.5 282.333,212.5 281.5,211.5C 258.42,211.321 240.586,201.655 228,182.5C 214.127,153.84 219.294,129.34 243.5,109C 246.005,107.247 248.671,105.747 251.5,104.5C 252.08,98.0868 252.913,91.7535 254,85.5C 254.833,84.6667 255.667,83.8333 256.5,83C 269.5,82.3333 282.5,82.3333 295.5,83C 296.667,84.1667 297.833,85.3333 299,86.5C 299.333,92.1667 299.667,97.8333 300,103.5C 311.333,109.5 320,118.167 326,129.5C 327.183,133.274 326.349,136.441 323.5,139C 313.5,144 303.5,149 293.5,154C 288.249,155.112 284.582,153.112 282.5,148C 274.63,143.602 269.63,145.769 267.5,154.5C 267.648,157.63 268.982,160.13 271.5,162C 312.432,164.923 332.266,186.757 331,227.5C 330.466,231.305 329.466,234.971 328,238.5C 325.435,240.179 322.602,240.846 319.5,240.5 Z"/></g>
<g><path style="opacity:1" fill="#6dd3a0" d="M 319.5,240.5 C 317.505,244.484 315.005,248.151 312,251.5C 310.549,253.464 308.716,254.797 306.5,255.5C 304.577,254.149 302.41,253.482 300,253.5C 286.787,255.207 281.621,262.541 284.5,275.5C 278.833,275.5 273.167,275.5 267.5,275.5C 267.897,270.041 267.397,264.708 266,259.5C 261.943,257.221 257.777,255.054 253.5,253C 249.821,250.654 246.821,247.654 244.5,244C 249.147,240.673 254.147,237.84 259.5,235.5C 271.261,244.927 282.761,244.594 294,234.5C 302.888,220.578 301.055,208.411 288.5,198C 279.884,196.223 271.218,194.557 262.5,193C 252.113,188.613 244.28,181.446 239,171.5C 230.699,144.102 239.699,124.769 266,113.5C 267.397,108.292 267.897,102.959 267.5,97.5C 273.167,97.5 278.833,97.5 284.5,97.5C 284.112,102.628 284.612,107.628 286,112.5C 291.053,115.851 296.22,119.018 301.5,122C 303.833,124.333 306.167,126.667 308.5,129C 303.628,132.033 298.628,134.867 293.5,137.5C 291.167,136 288.833,134.5 286.5,133C 270.715,127.974 259.549,133.14 253,148.5C 251.253,161.844 256.419,171.344 268.5,177C 302.489,177.65 318.323,194.816 316,228.5C 313.451,233.594 314.618,237.594 319.5,240.5 Z"/></g>
<g><path style="opacity:1" fill="#000000" d="M 169.5,317.5 C 213.168,317.333 256.835,317.5 300.5,318C 305.726,322.251 305.726,326.585 300.5,331C 256.5,331.667 212.5,331.667 168.5,331C 164.305,326.044 164.639,321.544 169.5,317.5 Z"/></g>
<g><path style="opacity:1" fill="#030202" d="M 367.5,317.5 C 369.716,318.203 371.549,319.536 373,321.5C 374.02,326.463 372.187,329.797 367.5,331.5C 356.495,331.667 345.495,331.5 334.5,331C 329.167,326.667 329.167,322.333 334.5,318C 345.495,317.5 356.495,317.333 367.5,317.5 Z"/></g>
<g><path style="opacity:1" fill="#040403" d="M 169.5,344.5 C 189.503,344.333 209.503,344.5 229.5,345C 235.292,347.09 236.792,350.924 234,356.5C 233.097,357.701 231.931,358.535 230.5,359C 210.167,359.667 189.833,359.667 169.5,359C 164.214,354.169 164.214,349.335 169.5,344.5 Z"/></g>
<g><path style="opacity:1" fill="#070605" d="M 169.5,372.5 C 212.835,372.333 256.168,372.5 299.5,373C 304.676,375.517 305.843,379.351 303,384.5C 301.581,385.46 300.081,386.293 298.5,387C 255.833,387.667 213.167,387.667 170.5,387C 165.465,383.987 164.298,379.82 167,374.5C 167.995,373.934 168.828,373.267 169.5,372.5 Z"/></g>
<g><path style="opacity:1" fill="#080807" d="M 367.5,372.5 C 369.735,373.228 371.568,374.561 373,376.5C 374.09,381.777 372.256,385.444 367.5,387.5C 356.828,387.667 346.161,387.5 335.5,387C 328.928,382.145 328.928,377.478 335.5,373C 346.161,372.5 356.828,372.333 367.5,372.5 Z"/></g>
<g><path style="opacity:1" fill="#090807" d="M 170.5,399.5 C 190.169,399.333 209.836,399.5 229.5,400C 236.637,403.692 237.304,408.359 231.5,414C 210.833,414.667 190.167,414.667 169.5,414C 165.788,411.487 164.622,407.987 166,403.5C 167.397,401.93 168.897,400.596 170.5,399.5 Z"/></g>
<g><path style="opacity:1" fill="#fdeeac" d="M 34.5,443.5 C 34.5,436.833 34.5,430.167 34.5,423.5C 38.3032,423.113 40.6365,421.113 41.5,417.5C 42.1667,413.833 42.8333,410.167 43.5,406.5C 47.182,408.257 51.0154,409.59 55,410.5C 62.2036,408.399 69.2036,405.733 76,402.5C 82.6926,405.599 89.5259,408.266 96.5,410.5C 103.577,408.132 110.577,405.465 117.5,402.5C 119.274,402.887 120.941,403.553 122.5,404.5C 123.666,424.492 123.833,444.492 123,464.5C 115.512,488.171 99.3454,498.671 74.5,496C 51.4656,488.616 40.6323,472.782 42,448.5C 40.5627,445.292 38.0627,443.625 34.5,443.5 Z"/></g>
<g><path style="opacity:1" fill="#696347" d="M 43.5,406.5 C 42.8333,410.167 42.1667,413.833 41.5,417.5C 41.1758,413.445 41.5091,409.445 42.5,405.5C 43.1067,405.624 43.44,405.957 43.5,406.5 Z"/></g>
<g><path style="opacity:1" fill="#000000" d="M 169.5,427.5 C 212.835,427.333 256.168,427.5 299.5,428C 304.434,430.665 305.601,434.498 303,439.5C 301.829,440.893 300.329,441.727 298.5,442C 255.5,442.667 212.5,442.667 169.5,442C 164.214,437.169 164.214,432.335 169.5,427.5 Z"/></g>
<g><path style="opacity:1" fill="#030302" d="M 363.5,427.5 C 366.862,427.07 369.695,428.07 372,430.5C 374.411,435.942 372.911,439.775 367.5,442C 363.848,442.499 360.182,442.665 356.5,442.5C 349.492,442.666 342.492,442.5 335.5,442C 333.667,441.5 332.5,440.333 332,438.5C 330.622,434.013 331.788,430.513 335.5,428C 344.827,427.5 354.161,427.334 363.5,427.5 Z"/></g>
<g><path style="opacity:1" fill="#0a0908" d="M 169.5,455.5 C 190.169,455.333 210.836,455.5 231.5,456C 237.09,461.41 236.423,466.077 229.5,470C 209.833,470.667 190.167,470.667 170.5,470C 165.465,466.987 164.298,462.82 167,457.5C 167.995,456.934 168.828,456.267 169.5,455.5 Z"/></g>
</svg>
