<?xml version="1.0" encoding="UTF-8"?>
<!DOCTYPE svg PUBLIC "-//W3C//DTD SVG 1.1//EN" "http://www.w3.org/Graphics/SVG/1.1/DTD/svg11.dtd">
<svg xmlns="http://www.w3.org/2000/svg" version="1.1" width="512px" height="512px" style="shape-rendering:geometricPrecision; text-rendering:geometricPrecision; image-rendering:optimizeQuality; fill-rule:evenodd; clip-rule:evenodd" xmlns:xlink="http://www.w3.org/1999/xlink">
<g><path style="opacity:0.998" fill="#0eb561" d="M 332.5,383.5 C 251.71,388.861 190.543,357.194 149,288.5C 131.071,253.928 124.238,217.262 128.5,178.5C 141.003,104.173 182.67,54.3395 253.5,29C 327.801,9.02978 391.634,26.5298 445,81.5C 489.372,135.701 501.039,196.367 480,263.5C 472.575,283.693 462.075,302.026 448.5,318.5C 461.203,328.943 474.036,339.276 487,349.5C 494.092,364.561 490.258,375.728 475.5,383C 427.834,383.5 380.168,383.667 332.5,383.5 Z"/></g>
<g><path style="opacity:1" fill="#f0f1f1" d="M 298.5,95.5 C 330.913,93.2815 354.746,106.281 370,134.5C 381.711,166.492 374.877,193.659 349.5,216C 343.943,219.946 337.943,223.113 331.5,225.5C 331.515,234.629 328.848,242.796 323.5,250C 310.505,258.754 299.339,256.921 290,244.5C 283.066,223.982 287.566,206.482 303.5,192C 309.456,188.235 315.789,185.235 322.5,183C 337.152,169.244 337.152,155.578 322.5,142C 306.533,134.251 294.366,138.084 286,153.5C 285.199,160.71 283.533,167.71 281,174.5C 272.269,184.187 262.102,186.021 250.5,180C 241.655,171.117 239.155,160.617 243,148.5C 250.971,119.693 269.471,102.027 298.5,95.5 Z"/></g>
<g><path style="opacity:0.997" fill="#fec107" d="M 128.5,178.5 C 124.238,217.262 131.071,253.928 149,288.5C 190.543,357.194 251.71,388.861 332.5,383.5C 307.779,445.698 262.113,481.198 195.5,490C 142.5,490.667 89.5,490.667 36.5,490C 20.8985,483.203 16.7319,472.036 24,456.5C 24.956,455.421 25.7894,454.255 26.5,453C 36.5671,445.972 46.2338,438.472 55.5,430.5C 19.8773,383.095 11.3773,331.095 30,274.5C 48.231,227.435 81.0643,195.435 128.5,178.5 Z"/></g>
<g><path style="opacity:1" fill="#eff1f0" d="M 302.5,266.5 C 323.969,265.787 332.469,275.787 328,296.5C 322.494,306.666 313.994,310.499 302.5,308C 291.047,303.261 286.214,294.761 288,282.5C 290.6,275.07 295.433,269.737 302.5,266.5 Z"/></g>
</svg>
