<?xml version="1.0" encoding="UTF-8"?>
<!DOCTYPE svg PUBLIC "-//W3C//DTD SVG 1.1//EN" "http://www.w3.org/Graphics/SVG/1.1/DTD/svg11.dtd">
<svg xmlns="http://www.w3.org/2000/svg" version="1.1" width="512px" height="512px" style="shape-rendering:geometricPrecision; text-rendering:geometricPrecision; image-rendering:optimizeQuality; fill-rule:evenodd; clip-rule:evenodd" xmlns:xlink="http://www.w3.org/1999/xlink">
<g><path style="opacity:0.963" fill="#262727" d="M 421.5,5.5 C 423.635,7.07092 425.968,8.40425 428.5,9.5C 430.404,9.73758 431.738,10.7376 432.5,12.5C 434.177,14.5398 435.844,16.5398 437.5,18.5C 439.933,24.2332 441.433,30.2332 442,36.5C 442.343,44.5109 442.843,52.5109 443.5,60.5C 442.746,76.1548 442.246,91.8214 442,107.5C 441.807,212.171 441.307,316.838 440.5,421.5C 442.161,440.806 442.661,460.139 442,479.5C 441.227,484.995 439.394,489.995 436.5,494.5C 434.167,496.167 432.167,498.167 430.5,500.5C 429.71,501.401 428.71,502.068 427.5,502.5C 423.207,503.656 418.874,504.656 414.5,505.5C 410.6,506.43 406.6,506.763 402.5,506.5C 400.167,505.167 397.833,505.167 395.5,506.5C 386.5,506.5 377.5,506.5 368.5,506.5C 366.5,505.167 364.5,505.167 362.5,506.5C 353.833,506.5 345.167,506.5 336.5,506.5C 334.5,505.167 332.5,505.167 330.5,506.5C 323.167,506.5 315.833,506.5 308.5,506.5C 306.5,505.167 304.5,505.167 302.5,506.5C 298.833,506.5 295.167,506.5 291.5,506.5C 289.5,505.167 287.5,505.167 285.5,506.5C 278.833,506.5 272.167,506.5 265.5,506.5C 263.5,505.167 261.5,505.167 259.5,506.5C 254.833,506.5 250.167,506.5 245.5,506.5C 243.5,505.167 241.5,505.167 239.5,506.5C 235.5,506.5 231.5,506.5 227.5,506.5C 225.5,505.167 223.5,505.167 221.5,506.5C 213.167,506.5 204.833,506.5 196.5,506.5C 194.167,505.167 191.833,505.167 189.5,506.5C 182.183,505.882 174.849,505.549 167.5,505.5C 164.833,505.5 162.167,505.5 159.5,505.5C 155.833,505.5 152.167,505.5 148.5,505.5C 146.167,505.5 143.833,505.5 141.5,505.5C 133.5,505.5 125.5,505.5 117.5,505.5C 114.941,505.198 112.607,505.532 110.5,506.5C 102.16,506.666 93.8267,506.5 85.5,506C 79.1587,504.325 74.6587,500.492 72,494.5C 70.3677,489.97 69.3677,485.304 69,480.5C 69.3533,342.462 69.6867,204.462 70,66.5C 72.9562,64.2779 75.7895,61.9446 78.5,59.5C 82.9046,56.6042 86.9046,53.1042 90.5,49C 90.2716,48.6012 89.9382,48.4346 89.5,48.5C 100.532,36.4678 112.198,25.1344 124.5,14.5C 125.833,13.8333 126.833,12.8333 127.5,11.5C 129.258,4.75391 133.592,2.08725 140.5,3.5C 141.635,5.21321 143.302,5.87988 145.5,5.5C 150.167,5.5 154.833,5.5 159.5,5.5C 162.5,6.83333 165.5,6.83333 168.5,5.5C 175.791,6.39236 183.124,6.7257 190.5,6.5C 193.833,6.5 197.167,6.5 200.5,6.5C 206.5,6.5 212.5,6.5 218.5,6.5C 222.167,7.83333 225.833,7.83333 229.5,6.5C 235.5,6.5 241.5,6.5 247.5,6.5C 251.167,7.83333 254.833,7.83333 258.5,6.5C 262.833,6.5 267.167,6.5 271.5,6.5C 275.042,6.81277 278.375,6.47944 281.5,5.5C 287.167,5.5 292.833,5.5 298.5,5.5C 301.167,5.5 303.833,5.5 306.5,5.5C 340.448,3.00225 374.448,2.16891 408.5,3C 412.933,3.41807 417.266,4.2514 421.5,5.5 Z M 144.5,11.5 C 145.5,11.5 146.5,11.5 147.5,11.5C 146.341,13.2503 144.674,14.2503 142.5,14.5C 142.5,14.1667 142.5,13.8333 142.5,13.5C 143.5,13.1667 144.167,12.5 144.5,11.5 Z M 167.5,11.5 C 171.833,11.5 176.167,11.5 180.5,11.5C 168.428,18.8921 156.095,25.8921 143.5,32.5C 143.5,31.8333 143.5,31.1667 143.5,30.5C 151.539,24.1557 159.539,17.8224 167.5,11.5 Z M 200.5,11.5 C 203.5,11.5 206.5,11.5 209.5,11.5C 196.501,19.6688 183.168,27.3354 169.5,34.5C 179.528,26.4794 189.861,18.8128 200.5,11.5 Z M 229.5,11.5 C 232.5,11.5 235.5,11.5 238.5,11.5C 223.096,20.8917 207.43,29.8917 191.5,38.5C 203.777,29.0211 216.444,20.0211 229.5,11.5 Z M 258.5,11.5 C 259.167,11.5 259.833,11.5 260.5,11.5C 258.664,13.588 256.331,14.9213 253.5,15.5C 254.945,13.9373 256.611,12.604 258.5,11.5 Z M 280.5,11.5 C 282.5,11.5 284.5,11.5 286.5,11.5C 274.168,19.3351 261.502,26.6684 248.5,33.5C 259.167,26.1667 269.833,18.8333 280.5,11.5 Z M 306.5,11.5 C 310.5,11.5 314.5,11.5 318.5,11.5C 291.501,27.6689 264.167,43.3356 236.5,58.5C 259.833,42.8333 283.167,27.1667 306.5,11.5 Z M 376.5,11.5 C 379.833,11.5 383.167,11.5 386.5,11.5C 355.332,30.5876 323.665,48.921 291.5,66.5C 319.627,47.9311 347.96,29.5977 376.5,11.5 Z M 406.5,11.5 C 407.5,11.5 408.5,11.5 409.5,11.5C 406.992,13.9236 403.992,15.5903 400.5,16.5C 402.5,14.8333 404.5,13.1667 406.5,11.5 Z M 253.5,15.5 C 253.027,16.9063 252.027,17.573 250.5,17.5C 250.973,16.0937 251.973,15.427 253.5,15.5 Z M 400.5,16.5 C 399.341,18.2503 397.674,19.2503 395.5,19.5C 396.659,17.7497 398.326,16.7497 400.5,16.5 Z M 422.5,16.5 C 422.027,17.9063 421.027,18.573 419.5,18.5C 419.973,17.0937 420.973,16.427 422.5,16.5 Z M 393.5,20.5 C 393.027,21.9063 392.027,22.573 390.5,22.5C 390.973,21.0937 391.973,20.427 393.5,20.5 Z M 428.5,37.5 C 428.5,39.8333 428.5,42.1667 428.5,44.5C 412.031,53.5686 395.698,62.9019 379.5,72.5C 378.833,71.5 378.167,70.5 377.5,69.5C 393.987,58.0859 410.987,47.4193 428.5,37.5 Z M 428.5,56.5 C 428.5,57.1667 428.5,57.8333 428.5,58.5C 421.658,62.4216 414.658,66.0883 407.5,69.5C 413.989,64.4181 420.989,60.0847 428.5,56.5 Z M 236.5,58.5 C 236.027,59.9063 235.027,60.573 233.5,60.5C 233.973,59.0937 234.973,58.427 236.5,58.5 Z M 289.5,67.5 C 289.027,68.9063 288.027,69.573 286.5,69.5C 286.973,68.0937 287.973,67.427 289.5,67.5 Z M 405.5,70.5 C 405.027,71.9063 404.027,72.573 402.5,72.5C 402.973,71.0937 403.973,70.427 405.5,70.5 Z M 428.5,70.5 C 428.5,72.5 428.5,74.5 428.5,76.5C 418.5,82.1667 408.5,87.8333 398.5,93.5C 398.567,92.0413 398.234,90.7079 397.5,89.5C 407.564,82.7777 417.898,76.4444 428.5,70.5 Z M 93.5,73.5 C 94.5,73.5 95.5,73.5 96.5,73.5C 92.1352,77.1892 87.4685,80.5225 82.5,83.5C 82.5,82.1667 82.5,80.8333 82.5,79.5C 86.1667,77.5 89.8333,75.5 93.5,73.5 Z M 400.5,73.5 C 400.027,74.9063 399.027,75.573 397.5,75.5C 397.973,74.0937 398.973,73.427 400.5,73.5 Z M 112.5,79.5 C 102.887,86.9799 92.8872,93.9799 82.5,100.5C 82.5,99.1667 82.5,97.8333 82.5,96.5C 92.5171,90.8055 102.517,85.1388 112.5,79.5 Z M 358.5,84.5 C 357.609,85.1098 356.609,85.4431 355.5,85.5C 356.476,84.1851 357.476,82.8518 358.5,81.5C 359.562,82.4246 359.562,83.4246 358.5,84.5 Z M 386.5,95.5 C 388.379,96.3414 390.379,96.6747 392.5,96.5C 386.201,100.988 379.534,104.988 372.5,108.5C 372.5,107.167 372.5,105.833 372.5,104.5C 377.515,101.996 382.181,98.9957 386.5,95.5 Z M 334.5,96.5 C 335.167,96.5 335.833,96.5 336.5,96.5C 330.666,100.921 324.332,104.588 317.5,107.5C 322.648,103.089 328.314,99.4223 334.5,96.5 Z M 143.5,106.5 C 123.462,120.525 103.129,134.192 82.5,147.5C 82.5,145.167 82.5,142.833 82.5,140.5C 102.833,129.167 123.167,117.833 143.5,106.5 Z M 317.5,107.5 C 316.341,109.25 314.674,110.25 312.5,110.5C 313.659,108.75 315.326,107.75 317.5,107.5 Z M 428.5,109.5 C 428.5,110.5 428.5,111.5 428.5,112.5C 416.674,118.579 405.007,124.912 393.5,131.5C 404.625,123.43 416.292,116.097 428.5,109.5 Z M 105.5,113.5 C 98.3537,119.244 90.6871,124.244 82.5,128.5C 82.5,127.5 82.5,126.5 82.5,125.5C 90.3241,121.755 97.9908,117.755 105.5,113.5 Z M 359.5,113.5 C 359.5,114.5 359.5,115.5 359.5,116.5C 347.473,123.179 335.473,129.845 323.5,136.5C 335.125,128.348 347.125,120.681 359.5,113.5 Z M 428.5,123.5 C 428.5,126.167 428.5,128.833 428.5,131.5C 410.5,141.5 392.5,151.5 374.5,161.5C 374.5,160.167 374.5,158.833 374.5,157.5C 392.5,146.167 410.5,134.833 428.5,123.5 Z M 391.5,132.5 C 391.027,133.906 390.027,134.573 388.5,134.5C 388.973,133.094 389.973,132.427 391.5,132.5 Z M 159.5,137.5 C 158.167,138.833 156.833,140.167 155.5,141.5C 154.5,141.5 153.5,141.5 152.5,141.5C 154.336,139.412 156.669,138.079 159.5,137.5 Z M 140.5,148.5 C 139.167,150.167 137.833,151.833 136.5,153.5C 118.5,164.5 100.5,175.5 82.5,186.5C 82.5,184.833 82.5,183.167 82.5,181.5C 101.536,169.982 120.869,158.982 140.5,148.5 Z M 428.5,153.5 C 428.5,156.167 428.5,158.833 428.5,161.5C 407.536,172.648 386.87,184.315 366.5,196.5C 367.167,194.5 367.833,192.5 368.5,190.5C 388.517,178.14 408.517,165.807 428.5,153.5 Z M 361.5,166.5 C 361.5,167.5 361.5,168.5 361.5,169.5C 346.464,178.685 331.13,187.352 315.5,195.5C 330.488,185.336 345.821,175.67 361.5,166.5 Z M 198.5,169.5 C 198.027,170.906 197.027,171.573 195.5,171.5C 195.973,170.094 196.973,169.427 198.5,169.5 Z M 195.5,171.5 C 195.027,172.906 194.027,173.573 192.5,173.5C 192.5,173.167 192.5,172.833 192.5,172.5C 193.391,171.89 194.391,171.557 195.5,171.5 Z M 178.5,180.5 C 178.267,182.062 177.6,183.395 176.5,184.5C 172.5,186.833 168.5,189.167 164.5,191.5C 163.167,191.5 161.833,191.5 160.5,191.5C 166.464,187.848 172.464,184.181 178.5,180.5 Z M 428.5,194.5 C 428.5,197.167 428.5,199.833 428.5,202.5C 391.833,223.167 355.167,243.833 318.5,264.5C 354.876,240.806 391.543,217.473 428.5,194.5 Z M 89.5,195.5 C 89.0269,196.906 88.0269,197.573 86.5,197.5C 86.9731,196.094 87.9731,195.427 89.5,195.5 Z M 315.5,195.5 C 315.027,196.906 314.027,197.573 312.5,197.5C 312.973,196.094 313.973,195.427 315.5,195.5 Z M 82.5,198.5 C 83.1667,198.5 83.8333,198.5 84.5,198.5C 84.1667,199.5 83.5,200.167 82.5,200.5C 82.5,199.833 82.5,199.167 82.5,198.5 Z M 148.5,198.5 C 149.833,198.5 151.167,198.5 152.5,198.5C 129.543,213.985 106.209,228.985 82.5,243.5C 82.5,240.833 82.5,238.167 82.5,235.5C 104.5,223.167 126.5,210.833 148.5,198.5 Z M 188.5,208.5 C 187.341,210.25 185.674,211.25 183.5,211.5C 184.659,209.75 186.326,208.75 188.5,208.5 Z M 183.5,211.5 C 150.377,233.569 116.71,254.902 82.5,275.5C 82.5,273.167 82.5,270.833 82.5,268.5C 116.005,249.247 149.671,230.247 183.5,211.5 Z M 428.5,213.5 C 428.5,215.833 428.5,218.167 428.5,220.5C 404.517,234.139 380.517,247.806 356.5,261.5C 355.833,261.167 355.167,260.833 354.5,260.5C 379.13,244.847 403.797,229.18 428.5,213.5 Z M 324.5,218.5 C 325.5,218.5 326.5,218.5 327.5,218.5C 321.43,222.558 315.097,226.225 308.5,229.5C 313.796,225.846 319.129,222.179 324.5,218.5 Z M 306.5,230.5 C 306.027,231.906 305.027,232.573 303.5,232.5C 303.973,231.094 304.973,230.427 306.5,230.5 Z M 428.5,232.5 C 428.5,233.833 428.5,235.167 428.5,236.5C 414.995,244.42 401.328,252.087 387.5,259.5C 386.5,259.5 385.5,259.5 384.5,259.5C 398.824,250.001 413.491,241.001 428.5,232.5 Z M 110.5,239.5 C 110.027,240.906 109.027,241.573 107.5,241.5C 107.973,240.094 108.973,239.427 110.5,239.5 Z M 105.5,242.5 C 98.0407,247.735 90.374,252.735 82.5,257.5C 82.5,256.5 82.5,255.5 82.5,254.5C 90.1667,250.5 97.8333,246.5 105.5,242.5 Z M 428.5,259.5 C 428.5,262.167 428.5,264.833 428.5,267.5C 414.032,275.234 399.699,283.234 385.5,291.5C 384.833,290.5 384.167,289.5 383.5,288.5C 398.209,278.473 413.209,268.806 428.5,259.5 Z M 188.5,262.5 C 188.5,262.833 188.5,263.167 188.5,263.5C 153.415,285.923 118.081,307.923 82.5,329.5C 82.5,327.167 82.5,324.833 82.5,322.5C 117.833,302.5 153.167,282.5 188.5,262.5 Z M 318.5,264.5 C 318.027,265.906 317.027,266.573 315.5,266.5C 315.973,265.094 316.973,264.427 318.5,264.5 Z M 373.5,266.5 C 372.833,267.5 372.167,268.5 371.5,269.5C 369.833,270.167 368.167,270.833 366.5,271.5C 365.833,271.5 365.5,271.167 365.5,270.5C 368.193,269.153 370.86,267.82 373.5,266.5 Z M 313.5,267.5 C 313.027,268.906 312.027,269.573 310.5,269.5C 310.973,268.094 311.973,267.427 313.5,267.5 Z M 343.5,267.5 C 344.167,267.5 344.5,267.833 344.5,268.5C 339.632,271.434 334.632,274.1 329.5,276.5C 333.819,273.004 338.485,270.004 343.5,267.5 Z M 329.5,276.5 C 328.341,278.25 326.674,279.25 324.5,279.5C 325.659,277.75 327.326,276.75 329.5,276.5 Z M 428.5,278.5 C 428.5,280.833 428.5,283.167 428.5,285.5C 396.5,303.5 364.5,321.5 332.5,339.5C 364.125,318.681 396.125,298.348 428.5,278.5 Z M 126.5,283.5 C 126.027,284.906 125.027,285.573 123.5,285.5C 123.973,284.094 124.973,283.427 126.5,283.5 Z M 202.5,283.5 C 162.846,309.33 122.846,334.663 82.5,359.5C 82.5,356.833 82.5,354.167 82.5,351.5C 122.5,328.833 162.5,306.167 202.5,283.5 Z M 121.5,286.5 C 121.027,287.906 120.027,288.573 118.5,288.5C 118.973,287.094 119.973,286.427 121.5,286.5 Z M 116.5,289.5 C 105.701,297.285 94.368,304.285 82.5,310.5C 82.5,309.833 82.5,309.167 82.5,308.5C 93.5376,301.648 104.871,295.314 116.5,289.5 Z M 371.5,295.5 C 372.167,296.5 372.833,297.5 373.5,298.5C 355.301,309.099 336.968,319.432 318.5,329.5C 335.961,317.931 353.627,306.598 371.5,295.5 Z M 428.5,296.5 C 428.5,297.167 428.5,297.833 428.5,298.5C 423.632,301.434 418.632,304.1 413.5,306.5C 418.291,302.932 423.291,299.598 428.5,296.5 Z M 413.5,306.5 C 412.341,308.25 410.674,309.25 408.5,309.5C 409.659,307.75 411.326,306.75 413.5,306.5 Z M 408.5,309.5 C 407.341,311.25 405.674,312.25 403.5,312.5C 404.659,310.75 406.326,309.75 408.5,309.5 Z M 428.5,310.5 C 428.5,312.167 428.5,313.833 428.5,315.5C 405.635,328.765 382.635,341.765 359.5,354.5C 382.294,339.597 405.294,324.931 428.5,310.5 Z M 428.5,327.5 C 428.5,329.5 428.5,331.5 428.5,333.5C 403.15,347.861 377.816,362.195 352.5,376.5C 377.457,359.682 402.79,343.348 428.5,327.5 Z M 318.5,329.5 C 317.341,331.25 315.674,332.25 313.5,332.5C 314.659,330.75 316.326,329.75 318.5,329.5 Z M 332.5,339.5 C 331.341,341.25 329.674,342.25 327.5,342.5C 328.659,340.75 330.326,339.75 332.5,339.5 Z M 169.5,345.5 C 167.371,347.95 164.704,349.617 161.5,350.5C 163.629,348.05 166.296,346.383 169.5,345.5 Z M 189.5,351.5 C 189.027,352.906 188.027,353.573 186.5,353.5C 186.973,352.094 187.973,351.427 189.5,351.5 Z M 184.5,354.5 C 171.349,363.913 157.682,372.58 143.5,380.5C 143.833,379.167 144.167,377.833 144.5,376.5C 157.833,369.167 171.167,361.833 184.5,354.5 Z M 428.5,356.5 C 428.5,358.167 428.5,359.833 428.5,361.5C 409.635,372.432 390.635,383.099 371.5,393.5C 390.225,380.78 409.225,368.447 428.5,356.5 Z M 137.5,362.5 C 136.5,364.5 135.5,366.5 134.5,368.5C 117.139,379.178 99.8054,389.844 82.5,400.5C 82.5,398.167 82.5,395.833 82.5,393.5C 100.699,382.901 119.032,372.568 137.5,362.5 Z M 428.5,373.5 C 428.5,375.5 428.5,377.5 428.5,379.5C 411.15,389.195 393.816,398.861 376.5,408.5C 393.451,396.351 410.785,384.684 428.5,373.5 Z M 352.5,376.5 C 351.341,378.25 349.674,379.25 347.5,379.5C 348.659,377.75 350.326,376.75 352.5,376.5 Z M 128.5,386.5 C 128.5,387.833 128.5,389.167 128.5,390.5C 113.816,399.527 99.1493,408.527 84.5,417.5C 83.8505,415.565 83.5172,413.565 83.5,411.5C 98.634,403.432 113.634,395.099 128.5,386.5 Z M 155.5,389.5 C 154.341,391.25 152.674,392.25 150.5,392.5C 151.659,390.75 153.326,389.75 155.5,389.5 Z M 150.5,392.5 C 148.381,394.4 146.047,396.066 143.5,397.5C 143.5,396.833 143.5,396.167 143.5,395.5C 145.713,394.227 148.046,393.227 150.5,392.5 Z M 196.5,393.5 C 195.341,395.25 193.674,396.25 191.5,396.5C 192.659,394.75 194.326,393.75 196.5,393.5 Z M 191.5,396.5 C 178.459,405.527 165.126,414.193 151.5,422.5C 151.443,421.391 151.11,420.391 150.5,419.5C 164.032,411.568 177.699,403.901 191.5,396.5 Z M 129.5,404.5 C 129.5,405.167 129.5,405.833 129.5,406.5C 114.167,415.833 98.8333,425.167 83.5,434.5C 83.5,433.167 83.5,431.833 83.5,430.5C 98.594,421.405 113.927,412.738 129.5,404.5 Z M 376.5,408.5 C 376.027,409.906 375.027,410.573 373.5,410.5C 373.973,409.094 374.973,408.427 376.5,408.5 Z M 428.5,413.5 C 428.5,414.5 428.5,415.5 428.5,416.5C 423.817,418.863 419.15,421.196 414.5,423.5C 418.865,419.811 423.531,416.478 428.5,413.5 Z M 184.5,419.5 C 183.341,421.25 181.674,422.25 179.5,422.5C 180.659,420.75 182.326,419.75 184.5,419.5 Z M 179.5,422.5 C 174.108,426.553 168.441,430.22 162.5,433.5C 161.833,433.5 161.5,433.167 161.5,432.5C 167.17,428.663 173.17,425.33 179.5,422.5 Z M 414.5,423.5 C 414.027,424.906 413.027,425.573 411.5,425.5C 411.973,424.094 412.973,423.427 414.5,423.5 Z M 138.5,426.5 C 139.906,426.973 140.573,427.973 140.5,429.5C 121.002,442.084 101.335,454.417 81.5,466.5C 81.5,463.833 81.5,461.167 81.5,458.5C 100.635,448.099 119.635,437.432 138.5,426.5 Z M 150.5,438.5 C 150.833,439.167 151.167,439.833 151.5,440.5C 148.709,442.735 145.709,444.735 142.5,446.5C 140.833,446.5 139.167,446.5 137.5,446.5C 141.63,443.597 145.963,440.93 150.5,438.5 Z M 428.5,439.5 C 428.5,440.5 428.5,441.5 428.5,442.5C 424.728,444.934 420.728,446.934 416.5,448.5C 419.929,444.738 423.929,441.738 428.5,439.5 Z M 416.5,448.5 C 416.027,449.906 415.027,450.573 413.5,450.5C 413.973,449.094 414.973,448.427 416.5,448.5 Z M 118.5,456.5 C 120.833,456.5 123.167,456.5 125.5,456.5C 111.876,465.985 97.8762,474.985 83.5,483.5C 82.6586,481.621 82.3253,479.621 82.5,477.5C 94.8636,470.99 106.864,463.99 118.5,456.5 Z M 173.5,456.5 C 174.833,456.5 176.167,456.5 177.5,456.5C 154.87,470.819 132.203,485.153 109.5,499.5C 106.833,499.5 104.167,499.5 101.5,499.5C 125.5,485.167 149.5,470.833 173.5,456.5 Z M 202.5,456.5 C 204.167,456.5 205.833,456.5 207.5,456.5C 185.5,470.833 163.5,485.167 141.5,499.5C 137.5,499.5 133.5,499.5 129.5,499.5C 153.998,485.419 178.331,471.085 202.5,456.5 Z M 252.5,456.5 C 253.167,456.5 253.833,456.5 254.5,456.5C 233.005,471.082 211.338,485.415 189.5,499.5C 186.167,499.5 182.833,499.5 179.5,499.5C 203.998,485.419 228.331,471.085 252.5,456.5 Z M 428.5,456.5 C 428.5,457.833 428.5,459.167 428.5,460.5C 424.299,463.1 419.966,465.434 415.5,467.5C 419.515,463.487 423.848,459.821 428.5,456.5 Z M 271.5,463.5 C 270.5,464.833 269.5,466.167 268.5,467.5C 252.5,478.167 236.5,488.833 220.5,499.5C 216.833,499.5 213.167,499.5 209.5,499.5C 229.831,486.998 250.498,474.998 271.5,463.5 Z M 118.5,475.5 C 118.027,476.906 117.027,477.573 115.5,477.5C 115.973,476.094 116.973,475.427 118.5,475.5 Z M 115.5,477.5 C 114.341,479.25 112.674,480.25 110.5,480.5C 111.659,478.75 113.326,477.75 115.5,477.5 Z M 428.5,477.5 C 428.5,478.5 428.5,479.5 428.5,480.5C 427.167,480.833 425.833,481.167 424.5,481.5C 425.5,479.833 426.833,478.5 428.5,477.5 Z M 384.5,479.5 C 377.061,486.393 369.394,493.059 361.5,499.5C 357.5,499.5 353.5,499.5 349.5,499.5C 360.996,492.584 372.663,485.917 384.5,479.5 Z M 110.5,480.5 C 103.542,485.652 96.2082,490.319 88.5,494.5C 88.1667,493.833 87.8333,493.167 87.5,492.5C 95.0092,488.245 102.676,484.245 110.5,480.5 Z M 311.5,480.5 C 311.027,481.906 310.027,482.573 308.5,482.5C 308.973,481.094 309.973,480.427 311.5,480.5 Z M 353.5,481.5 C 345.807,487.853 337.807,493.853 329.5,499.5C 326.833,499.5 324.167,499.5 321.5,499.5C 331.835,492.997 342.502,486.997 353.5,481.5 Z M 308.5,482.5 C 300.538,488.154 292.538,493.821 284.5,499.5C 282.5,499.5 280.5,499.5 278.5,499.5C 288.167,493.331 298.167,487.664 308.5,482.5 Z M 395.5,499.5 C 390.833,499.5 386.167,499.5 381.5,499.5C 390.187,494.067 399.02,488.733 408,483.5C 408.667,484.167 408.667,484.833 408,485.5C 403.255,489.74 399.088,494.407 395.5,499.5 Z"/></g>
<g><path style="opacity:0.439" fill="#e2eefe" d="M 140.5,3.5 C 142.553,3.40206 144.22,4.06873 145.5,5.5C 143.302,5.87988 141.635,5.21321 140.5,3.5 Z"/></g>
<g><path style="opacity:0.767" fill="#e0eeff" d="M 200.5,6.5 C 197.167,6.5 193.833,6.5 190.5,6.5C 194.001,2.76488 197.334,2.76488 200.5,6.5 Z"/></g>
<g><path style="opacity:0.721" fill="#d0ddeb" d="M 229.5,6.5 C 225.833,7.83333 222.167,7.83333 218.5,6.5C 220.696,5.23659 223.03,4.23659 225.5,3.5C 227.417,3.75384 228.751,4.75384 229.5,6.5 Z"/></g>
<g><path style="opacity:0.819" fill="#c9d6e3" d="M 258.5,6.5 C 254.833,7.83333 251.167,7.83333 247.5,6.5C 249.696,5.23659 252.03,4.23659 254.5,3.5C 256.653,3.56132 257.986,4.56132 258.5,6.5 Z"/></g>
<g><path style="opacity:0.815" fill="#e3f0ff" d="M 281.5,5.5 C 278.375,6.47944 275.042,6.81277 271.5,6.5C 274.508,3.03244 277.842,2.69911 281.5,5.5 Z"/></g>
<g><path style="opacity:0.667" fill="#e0efff" d="M 306.5,5.5 C 303.833,5.5 301.167,5.5 298.5,5.5C 301.167,2.83333 303.833,2.83333 306.5,5.5 Z"/></g>
<g><path style="opacity:0.829" fill="#d3e1f0" d="M 428.5,9.5 C 425.968,8.40425 423.635,7.07092 421.5,5.5C 425.283,3.89674 427.616,5.23007 428.5,9.5 Z"/></g>
<g><path style="opacity:0.965" fill="#bfcbd7" d="M 168.5,5.5 C 165.5,6.83333 162.5,6.83333 159.5,5.5C 162.456,2.84826 165.456,2.84826 168.5,5.5 Z"/></g>
<g><path style="opacity:0.357" fill="#e0eeff" d="M 144.5,11.5 C 144.167,12.5 143.5,13.1667 142.5,13.5C 142.5,12.1667 143.167,11.5 144.5,11.5 Z"/></g>
<g><path style="opacity:0.96" fill="#dae7f6" d="M 167.5,11.5 C 159.539,17.8224 151.539,24.1557 143.5,30.5C 143.608,25.1301 143.275,19.7968 142.5,14.5C 144.674,14.2503 146.341,13.2503 147.5,11.5C 154.309,10.2676 160.976,10.2676 167.5,11.5 Z"/></g>
<g><path style="opacity:0.977" fill="#e0eefe" d="M 200.5,11.5 C 189.861,18.8128 179.528,26.4794 169.5,34.5C 183.168,27.3354 196.501,19.6688 209.5,11.5C 216.296,10.2264 222.963,10.2264 229.5,11.5C 216.444,20.0211 203.777,29.0211 191.5,38.5C 207.43,29.8917 223.096,20.8917 238.5,11.5C 245.296,10.2264 251.963,10.2264 258.5,11.5C 256.611,12.604 254.945,13.9373 253.5,15.5C 256.331,14.9213 258.664,13.588 260.5,11.5C 267.296,10.2264 273.963,10.2264 280.5,11.5C 269.833,18.8333 259.167,26.1667 248.5,33.5C 261.502,26.6684 274.168,19.3351 286.5,11.5C 293.296,10.2264 299.963,10.2264 306.5,11.5C 283.167,27.1667 259.833,42.8333 236.5,58.5C 264.167,43.3356 291.501,27.6689 318.5,11.5C 325.296,10.2264 331.963,10.2264 338.5,11.5C 351.307,10.2158 363.974,10.2158 376.5,11.5C 347.96,29.5977 319.627,47.9311 291.5,66.5C 323.665,48.921 355.332,30.5876 386.5,11.5C 393.309,10.2676 399.976,10.2676 406.5,11.5C 404.5,13.1667 402.5,14.8333 400.5,16.5C 403.992,15.5903 406.992,13.9236 409.5,11.5C 415.082,9.80707 419.749,11.1404 423.5,15.5C 422.833,15.5 422.5,15.8333 422.5,16.5C 424.752,16.9156 426.252,18.249 427,20.5C 428.131,26.112 428.631,31.7787 428.5,37.5C 410.987,47.4193 393.987,58.0859 377.5,69.5C 375.059,67.7287 372.393,66.3953 369.5,65.5C 365.38,65.928 361.713,67.428 358.5,70C 350.271,78.7239 342.271,87.5572 334.5,96.5C 328.314,99.4223 322.648,103.089 317.5,107.5C 324.332,104.588 330.666,100.921 336.5,96.5C 342.857,94.8213 348.524,91.8213 353.5,87.5C 354.167,87.5 354.5,87.1667 354.5,86.5C 355.167,86.5 355.5,86.1667 355.5,85.5C 356.609,85.4431 357.609,85.1098 358.5,84.5C 359.494,93.9856 359.827,103.652 359.5,113.5C 347.125,120.681 335.125,128.348 323.5,136.5C 335.473,129.845 347.473,123.179 359.5,116.5C 361.587,133.009 362.254,149.675 361.5,166.5C 345.821,175.67 330.488,185.336 315.5,195.5C 331.13,187.352 346.464,178.685 361.5,169.5C 361.145,181.737 357.145,192.571 349.5,202C 346.066,204.435 342.4,206.435 338.5,208C 328.454,208.515 318.454,209.348 308.5,210.5C 284.544,208.283 260.544,207.45 236.5,208C 203.236,211.091 187.236,229.258 188.5,262.5C 153.167,282.5 117.833,302.5 82.5,322.5C 82.5,318.5 82.5,314.5 82.5,310.5C 94.368,304.285 105.701,297.285 116.5,289.5C 104.871,295.314 93.5376,301.648 82.5,308.5C 82.5,297.5 82.5,286.5 82.5,275.5C 116.71,254.902 150.377,233.569 183.5,211.5C 149.671,230.247 116.005,249.247 82.5,268.5C 82.5,264.833 82.5,261.167 82.5,257.5C 90.374,252.735 98.0407,247.735 105.5,242.5C 97.8333,246.5 90.1667,250.5 82.5,254.5C 82.5,250.833 82.5,247.167 82.5,243.5C 106.209,228.985 129.543,213.985 152.5,198.5C 173.136,201.486 186.469,193.153 192.5,173.5C 194.027,173.573 195.027,172.906 195.5,171.5C 194.391,171.557 193.391,171.89 192.5,172.5C 194.256,157.832 188.256,147.998 174.5,143C 168.231,141.743 161.898,141.243 155.5,141.5C 156.833,140.167 158.167,138.833 159.5,137.5C 156.669,138.079 154.336,139.412 152.5,141.5C 152.167,141.5 151.833,141.5 151.5,141.5C 150.833,141.5 150.5,141.833 150.5,142.5C 147.366,143.901 144.366,145.568 141.5,147.5C 140.833,147.5 140.5,147.833 140.5,148.5C 120.869,158.982 101.536,169.982 82.5,181.5C 82.5,170.167 82.5,158.833 82.5,147.5C 103.129,134.192 123.462,120.525 143.5,106.5C 123.167,117.833 102.833,129.167 82.5,140.5C 82.5,136.5 82.5,132.5 82.5,128.5C 90.6871,124.244 98.3537,119.244 105.5,113.5C 97.9908,117.755 90.3241,121.755 82.5,125.5C 82.5,117.167 82.5,108.833 82.5,100.5C 92.8872,93.9799 102.887,86.9799 112.5,79.5C 102.517,85.1388 92.5171,90.8055 82.5,96.5C 82.5,92.1667 82.5,87.8333 82.5,83.5C 87.4685,80.5225 92.1352,77.1892 96.5,73.5C 103.119,72.7429 109.785,72.2429 116.5,72C 128.702,71.1259 136.869,64.9592 141,53.5C 142.023,46.5023 142.856,39.5023 143.5,32.5C 156.095,25.8921 168.428,18.8921 180.5,11.5C 187.296,10.2264 193.963,10.2264 200.5,11.5 Z M 200.5,11.5 C 203.5,11.5 206.5,11.5 209.5,11.5C 196.501,19.6688 183.168,27.3354 169.5,34.5C 179.528,26.4794 189.861,18.8128 200.5,11.5 Z M 229.5,11.5 C 232.5,11.5 235.5,11.5 238.5,11.5C 223.096,20.8917 207.43,29.8917 191.5,38.5C 203.777,29.0211 216.444,20.0211 229.5,11.5 Z M 258.5,11.5 C 259.167,11.5 259.833,11.5 260.5,11.5C 258.664,13.588 256.331,14.9213 253.5,15.5C 254.945,13.9373 256.611,12.604 258.5,11.5 Z M 280.5,11.5 C 282.5,11.5 284.5,11.5 286.5,11.5C 274.168,19.3351 261.502,26.6684 248.5,33.5C 259.167,26.1667 269.833,18.8333 280.5,11.5 Z M 306.5,11.5 C 310.5,11.5 314.5,11.5 318.5,11.5C 291.501,27.6689 264.167,43.3356 236.5,58.5C 259.833,42.8333 283.167,27.1667 306.5,11.5 Z M 376.5,11.5 C 379.833,11.5 383.167,11.5 386.5,11.5C 355.332,30.5876 323.665,48.921 291.5,66.5C 319.627,47.9311 347.96,29.5977 376.5,11.5 Z M 406.5,11.5 C 407.5,11.5 408.5,11.5 409.5,11.5C 406.992,13.9236 403.992,15.5903 400.5,16.5C 402.5,14.8333 404.5,13.1667 406.5,11.5 Z M 253.5,15.5 C 253.027,16.9063 252.027,17.573 250.5,17.5C 250.973,16.0937 251.973,15.427 253.5,15.5 Z M 400.5,16.5 C 399.341,18.2503 397.674,19.2503 395.5,19.5C 396.659,17.7497 398.326,16.7497 400.5,16.5 Z M 422.5,16.5 C 422.027,17.9063 421.027,18.573 419.5,18.5C 419.973,17.0937 420.973,16.427 422.5,16.5 Z M 393.5,20.5 C 393.027,21.9063 392.027,22.573 390.5,22.5C 390.973,21.0937 391.973,20.427 393.5,20.5 Z M 236.5,58.5 C 236.027,59.9063 235.027,60.573 233.5,60.5C 233.973,59.0937 234.973,58.427 236.5,58.5 Z M 289.5,67.5 C 289.027,68.9063 288.027,69.573 286.5,69.5C 286.973,68.0937 287.973,67.427 289.5,67.5 Z M 334.5,96.5 C 335.167,96.5 335.833,96.5 336.5,96.5C 330.666,100.921 324.332,104.588 317.5,107.5C 322.648,103.089 328.314,99.4223 334.5,96.5 Z M 317.5,107.5 C 316.341,109.25 314.674,110.25 312.5,110.5C 313.659,108.75 315.326,107.75 317.5,107.5 Z M 159.5,137.5 C 158.167,138.833 156.833,140.167 155.5,141.5C 154.5,141.5 153.5,141.5 152.5,141.5C 154.336,139.412 156.669,138.079 159.5,137.5 Z M 198.5,169.5 C 198.027,170.906 197.027,171.573 195.5,171.5C 195.973,170.094 196.973,169.427 198.5,169.5 Z M 195.5,171.5 C 195.027,172.906 194.027,173.573 192.5,173.5C 192.5,173.167 192.5,172.833 192.5,172.5C 193.391,171.89 194.391,171.557 195.5,171.5 Z M 315.5,195.5 C 315.027,196.906 314.027,197.573 312.5,197.5C 312.973,196.094 313.973,195.427 315.5,195.5 Z M 188.5,208.5 C 187.341,210.25 185.674,211.25 183.5,211.5C 184.659,209.75 186.326,208.75 188.5,208.5 Z M 110.5,239.5 C 110.027,240.906 109.027,241.573 107.5,241.5C 107.973,240.094 108.973,239.427 110.5,239.5 Z M 126.5,283.5 C 126.027,284.906 125.027,285.573 123.5,285.5C 123.973,284.094 124.973,283.427 126.5,283.5 Z M 121.5,286.5 C 121.027,287.906 120.027,288.573 118.5,288.5C 118.973,287.094 119.973,286.427 121.5,286.5 Z"/></g>
<g><path style="opacity:0.992" fill="#a0b5c3" d="M 127.5,11.5 C 126.833,12.8333 125.833,13.8333 124.5,14.5C 124.5,12.5 125.5,11.5 127.5,11.5 Z"/></g>
<g><path style="opacity:0.58" fill="#dae6f5" d="M 432.5,12.5 C 436.009,12.8079 437.676,14.8079 437.5,18.5C 435.844,16.5398 434.177,14.5398 432.5,12.5 Z"/></g>
<g><path style="opacity:1" fill="#aec8d9" d="M 92.5,63.5 C 94.5273,63.6621 96.5273,63.4955 98.5,63C 102.725,59.3227 106.058,55.4893 108.5,51.5C 101.532,55.1644 94.865,59.1644 88.5,63.5C 87.7611,63.631 87.0944,63.4643 86.5,63C 88.3783,61.4571 89.8783,59.6238 91,57.5C 104.318,45.3486 117.152,32.6819 129.5,19.5C 130.665,28.8155 130.832,38.1489 130,47.5C 129.582,51.8537 128.248,55.8537 126,59.5C 122.161,61.8373 117.994,63.3373 113.5,64C 106.321,64.8213 99.3209,64.6546 92.5,63.5 Z"/></g>
<g><path style="opacity:1" fill="#deedfd" d="M 92.5,63.5 C 91.1667,63.5 89.8333,63.5 88.5,63.5C 94.865,59.1644 101.532,55.1644 108.5,51.5C 106.058,55.4893 102.725,59.3227 98.5,63C 96.5273,63.4955 94.5273,63.6621 92.5,63.5 Z"/></g>
<g><path style="opacity:0.973" fill="#606c73" d="M 89.5,48.5 C 89.9382,48.4346 90.2716,48.6012 90.5,49C 86.9046,53.1042 82.9046,56.6042 78.5,59.5C 81.8333,55.5 85.5,51.8333 89.5,48.5 Z"/></g>
<g><path style="opacity:0.938" fill="#e0eefe" d="M 428.5,44.5 C 428.5,48.5 428.5,52.5 428.5,56.5C 420.989,60.0847 413.989,64.4181 407.5,69.5C 414.658,66.0883 421.658,62.4216 428.5,58.5C 428.5,62.5 428.5,66.5 428.5,70.5C 417.898,76.4444 407.564,82.7777 397.5,89.5C 396.761,89.631 396.094,89.4643 395.5,89C 390.3,83.3006 384.966,77.8006 379.5,72.5C 395.698,62.9019 412.031,53.5686 428.5,44.5 Z M 405.5,70.5 C 405.027,71.9063 404.027,72.573 402.5,72.5C 402.973,71.0937 403.973,70.427 405.5,70.5 Z M 400.5,73.5 C 400.027,74.9063 399.027,75.573 397.5,75.5C 397.973,74.0937 398.973,73.427 400.5,73.5 Z"/></g>
<g><path style="opacity:0.993" fill="#292929" d="M 377.5,69.5 C 378.167,70.5 378.833,71.5 379.5,72.5C 384.966,77.8006 390.3,83.3006 395.5,89C 396.094,89.4643 396.761,89.631 397.5,89.5C 398.234,90.7079 398.567,92.0413 398.5,93.5C 397.833,93.5 397.5,93.8333 397.5,94.5C 397.167,94.5 396.833,94.5 396.5,94.5C 395.508,94.3284 394.842,94.6618 394.5,95.5C 393.508,95.3284 392.842,95.6618 392.5,96.5C 390.379,96.6747 388.379,96.3414 386.5,95.5C 381.842,91.3425 377.342,87.0092 373,82.5C 372.503,84.8098 372.337,87.1432 372.5,89.5C 372.5,89.8333 372.5,90.1667 372.5,90.5C 372.5,95.1667 372.5,99.8333 372.5,104.5C 372.5,105.833 372.5,107.167 372.5,108.5C 373.374,125.132 374.041,141.465 374.5,157.5C 374.5,158.833 374.5,160.167 374.5,161.5C 373.039,171.259 371.039,180.926 368.5,190.5C 367.833,192.5 367.167,194.5 366.5,196.5C 360.637,205.284 352.637,211.451 342.5,215C 337.467,216.106 332.467,217.273 327.5,218.5C 326.5,218.5 325.5,218.5 324.5,218.5C 311.844,216.661 299.011,216.327 286,217.5C 272.506,216.706 259.006,216.039 245.5,215.5C 233.904,214.233 223.238,216.733 213.5,223C 203.927,231.229 200.261,241.396 202.5,253.5C 202.5,253.833 202.5,254.167 202.5,254.5C 201.709,260.419 201.209,266.419 201,272.5C 198.261,276.782 194.927,277.448 191,274.5C 189.986,270.759 189.153,267.093 188.5,263.5C 188.5,263.167 188.5,262.833 188.5,262.5C 187.236,229.258 203.236,211.091 236.5,208C 260.544,207.45 284.544,208.283 308.5,210.5C 318.454,209.348 328.454,208.515 338.5,208C 342.4,206.435 346.066,204.435 349.5,202C 357.145,192.571 361.145,181.737 361.5,169.5C 361.5,168.5 361.5,167.5 361.5,166.5C 362.254,149.675 361.587,133.009 359.5,116.5C 359.5,115.5 359.5,114.5 359.5,113.5C 359.827,103.652 359.494,93.9856 358.5,84.5C 359.562,83.4246 359.562,82.4246 358.5,81.5C 357.476,82.8518 356.476,84.1851 355.5,85.5C 354.833,85.5 354.5,85.8333 354.5,86.5C 353.833,86.5 353.5,86.8333 353.5,87.5C 348.524,91.8213 342.857,94.8213 336.5,96.5C 335.833,96.5 335.167,96.5 334.5,96.5C 342.271,87.5572 350.271,78.7239 358.5,70C 361.713,67.428 365.38,65.928 369.5,65.5C 372.393,66.3953 375.059,67.7287 377.5,69.5 Z M 358.5,84.5 C 357.609,85.1098 356.609,85.4431 355.5,85.5C 356.476,84.1851 357.476,82.8518 358.5,81.5C 359.562,82.4246 359.562,83.4246 358.5,84.5 Z"/></g>
<g><path style="opacity:0.927" fill="#dbeaf9" d="M 93.5,73.5 C 89.8333,75.5 86.1667,77.5 82.5,79.5C 82.5,77.1667 82.5,74.8333 82.5,72.5C 86.3714,72.185 90.0381,72.5184 93.5,73.5 Z"/></g>
<g><path style="opacity:0.977" fill="#e0eefe" d="M 428.5,76.5 C 428.5,87.5 428.5,98.5 428.5,109.5C 416.292,116.097 404.625,123.43 393.5,131.5C 405.007,124.912 416.674,118.579 428.5,112.5C 428.5,116.167 428.5,119.833 428.5,123.5C 410.5,134.833 392.5,146.167 374.5,157.5C 374.041,141.465 373.374,125.132 372.5,108.5C 379.534,104.988 386.201,100.988 392.5,96.5C 393.492,96.6716 394.158,96.3382 394.5,95.5C 395.492,95.6716 396.158,95.3382 396.5,94.5C 396.833,94.5 397.167,94.5 397.5,94.5C 398.167,94.5 398.5,94.1667 398.5,93.5C 408.5,87.8333 418.5,82.1667 428.5,76.5 Z M 391.5,132.5 C 391.027,133.906 390.027,134.573 388.5,134.5C 388.973,133.094 389.973,132.427 391.5,132.5 Z"/></g>
<g><path style="opacity:0.932" fill="#deecfb" d="M 386.5,95.5 C 382.181,98.9957 377.515,101.996 372.5,104.5C 372.5,99.8333 372.5,95.1667 372.5,90.5C 373.833,90.1667 373.833,89.8333 372.5,89.5C 372.337,87.1432 372.503,84.8098 373,82.5C 377.342,87.0092 381.842,91.3425 386.5,95.5 Z"/></g>
<g><path style="opacity:0.999" fill="#282929" d="M 252.5,115.5 C 255.649,115.211 258.649,115.711 261.5,117C 265.295,120.96 269.295,124.794 273.5,128.5C 277.685,124.481 282.018,120.647 286.5,117C 289.014,115.748 291.68,115.248 294.5,115.5C 294.477,117.927 293.977,120.26 293,122.5C 288.651,126.682 284.485,131.015 280.5,135.5C 286.018,141.184 291.351,147.017 296.5,153C 293.131,156.261 289.131,157.261 284.5,156C 280.345,151.679 276.012,147.512 271.5,143.5C 267.624,147.784 263.291,151.617 258.5,155C 255.986,156.252 253.32,156.752 250.5,156.5C 252.941,148.202 257.941,141.702 265.5,137C 260.333,131.833 255.167,126.667 250,121.5C 249.333,120.5 249.333,119.5 250,118.5C 251.045,117.627 251.878,116.627 252.5,115.5 Z"/></g>
<g><path style="opacity:0.968" fill="#e0eefe" d="M 428.5,131.5 C 428.5,138.833 428.5,146.167 428.5,153.5C 408.517,165.807 388.517,178.14 368.5,190.5C 371.039,180.926 373.039,171.259 374.5,161.5C 392.5,151.5 410.5,141.5 428.5,131.5 Z"/></g>
<g><path style="opacity:0.991" fill="#282929" d="M 151.5,141.5 C 151.833,141.5 152.167,141.5 152.5,141.5C 153.5,141.5 154.5,141.5 155.5,141.5C 161.898,141.243 168.231,141.743 174.5,143C 188.256,147.998 194.256,157.832 192.5,172.5C 192.5,172.833 192.5,173.167 192.5,173.5C 186.469,193.153 173.136,201.486 152.5,198.5C 151.167,198.5 149.833,198.5 148.5,198.5C 133.861,191.219 128.361,179.552 132,163.5C 133.254,159.996 134.754,156.663 136.5,153.5C 137.833,151.833 139.167,150.167 140.5,148.5C 141.167,148.5 141.5,148.167 141.5,147.5C 144.366,145.568 147.366,143.901 150.5,142.5C 151.167,142.5 151.5,142.167 151.5,141.5 Z M 178.5,180.5 C 178.267,182.062 177.6,183.395 176.5,184.5C 172.5,186.833 168.5,189.167 164.5,191.5C 163.167,191.5 161.833,191.5 160.5,191.5C 166.464,187.848 172.464,184.181 178.5,180.5 Z"/></g>
<g><path style="opacity:0.991" fill="#deecfb" d="M 178.5,180.5 C 172.464,184.181 166.464,187.848 160.5,191.5C 151.727,189.567 145.894,184.234 143,175.5C 140.081,160.982 145.581,151.649 159.5,147.5C 176.205,151.922 183.039,162.588 180,179.5C 179.617,180.056 179.117,180.389 178.5,180.5 Z"/></g>
<g><path style="opacity:0.955" fill="#e0eefe" d="M 136.5,153.5 C 134.754,156.663 133.254,159.996 132,163.5C 128.361,179.552 133.861,191.219 148.5,198.5C 126.5,210.833 104.5,223.167 82.5,235.5C 82.5,227.833 82.5,220.167 82.5,212.5C 85.1667,212.167 85.1667,211.833 82.5,211.5C 82.5,207.833 82.5,204.167 82.5,200.5C 83.5,200.167 84.1667,199.5 84.5,198.5C 83.8333,198.5 83.1667,198.5 82.5,198.5C 82.5,194.5 82.5,190.5 82.5,186.5C 100.5,175.5 118.5,164.5 136.5,153.5 Z M 89.5,195.5 C 89.0269,196.906 88.0269,197.573 86.5,197.5C 86.9731,196.094 87.9731,195.427 89.5,195.5 Z"/></g>
<g><path style="opacity:0.976" fill="#e0eefe" d="M 428.5,161.5 C 428.5,172.5 428.5,183.5 428.5,194.5C 391.543,217.473 354.876,240.806 318.5,264.5C 355.167,243.833 391.833,223.167 428.5,202.5C 428.5,206.167 428.5,209.833 428.5,213.5C 403.797,229.18 379.13,244.847 354.5,260.5C 347.397,257.618 343.73,259.952 343.5,267.5C 338.485,270.004 333.819,273.004 329.5,276.5C 334.632,274.1 339.632,271.434 344.5,268.5C 348.167,271.5 351.5,274.833 354.5,278.5C 357.072,279.323 358.239,280.989 358,283.5C 350.929,287.717 346.429,293.717 344.5,301.5C 347.794,301.741 350.794,300.908 353.5,299C 357.648,295.686 361.648,292.186 365.5,288.5C 368.243,290.239 370.243,292.573 371.5,295.5C 353.627,306.598 335.961,317.931 318.5,329.5C 336.968,319.432 355.301,309.099 373.5,298.5C 375.609,299.391 377.609,300.558 379.5,302C 389.699,302.682 391.699,299.182 385.5,291.5C 399.699,283.234 414.032,275.234 428.5,267.5C 428.5,271.167 428.5,274.833 428.5,278.5C 396.125,298.348 364.125,318.681 332.5,339.5C 364.5,321.5 396.5,303.5 428.5,285.5C 428.5,289.167 428.5,292.833 428.5,296.5C 423.291,299.598 418.291,302.932 413.5,306.5C 418.632,304.1 423.632,301.434 428.5,298.5C 428.5,302.5 428.5,306.5 428.5,310.5C 405.294,324.931 382.294,339.597 359.5,354.5C 382.635,341.765 405.635,328.765 428.5,315.5C 428.5,319.5 428.5,323.5 428.5,327.5C 402.79,343.348 377.457,359.682 352.5,376.5C 377.816,362.195 403.15,347.861 428.5,333.5C 428.5,341.167 428.5,348.833 428.5,356.5C 409.225,368.447 390.225,380.78 371.5,393.5C 390.635,383.099 409.635,372.432 428.5,361.5C 428.5,365.5 428.5,369.5 428.5,373.5C 410.785,384.684 393.451,396.351 376.5,408.5C 393.816,398.861 411.15,389.195 428.5,379.5C 428.5,390.833 428.5,402.167 428.5,413.5C 423.531,416.478 418.865,419.811 414.5,423.5C 419.15,421.196 423.817,418.863 428.5,416.5C 428.5,424.167 428.5,431.833 428.5,439.5C 423.929,441.738 419.929,444.738 416.5,448.5C 420.728,446.934 424.728,444.934 428.5,442.5C 428.5,447.167 428.5,451.833 428.5,456.5C 423.848,459.821 419.515,463.487 415.5,467.5C 419.966,465.434 424.299,463.1 428.5,460.5C 428.5,466.167 428.5,471.833 428.5,477.5C 426.833,478.5 425.5,479.833 424.5,481.5C 425.833,481.167 427.167,480.833 428.5,480.5C 429.974,496.025 422.974,502.692 407.5,500.5C 403.319,500.499 399.319,500.166 395.5,499.5C 399.088,494.407 403.255,489.74 408,485.5C 408.667,484.833 408.667,484.167 408,483.5C 399.02,488.733 390.187,494.067 381.5,499.5C 374.704,500.774 368.037,500.774 361.5,499.5C 369.394,493.059 377.061,486.393 384.5,479.5C 372.663,485.917 360.996,492.584 349.5,499.5C 342.704,500.774 336.037,500.774 329.5,499.5C 337.807,493.853 345.807,487.853 353.5,481.5C 342.502,486.997 331.835,492.997 321.5,499.5C 309.039,500.803 296.705,500.803 284.5,499.5C 292.538,493.821 300.538,488.154 308.5,482.5C 298.167,487.664 288.167,493.331 278.5,499.5C 271.704,500.774 265.037,500.774 258.5,499.5C 245.705,500.803 233.039,500.803 220.5,499.5C 236.5,488.833 252.5,478.167 268.5,467.5C 268.461,468.583 268.127,469.583 267.5,470.5C 270.242,471.218 272.909,470.718 275.5,469C 282.499,464.904 288.666,459.738 294,453.5C 294.791,452.255 295.291,450.922 295.5,449.5C 290.335,443.565 284.669,438.065 278.5,433C 275.036,432.183 271.702,432.517 268.5,434C 267.446,435.388 267.28,436.888 268,438.5C 270.709,441.378 273.542,444.044 276.5,446.5C 275.5,446.833 274.5,447.167 273.5,447.5C 258.65,447.593 243.65,447.426 228.5,447C 247.154,436.3 257.988,420.133 261,398.5C 261.333,392.5 261.667,386.5 262,380.5C 282.498,368.495 290.165,350.828 285,327.5C 275.256,303.028 257.089,291.862 230.5,294C 234.239,290.383 238.072,286.883 242,283.5C 243.009,281.975 243.509,280.308 243.5,278.5C 238.087,278.47 233.421,280.304 229.5,284C 224.088,288.741 219.421,294.074 215.5,300C 221.194,305.694 226.86,311.36 232.5,317C 237.31,318.254 241.31,317.087 244.5,313.5C 241.016,309.515 237.349,305.682 233.5,302C 253.538,301.785 266.705,311.285 273,330.5C 276.165,342.874 274.499,354.54 268,365.5C 265.318,368.35 262.484,371.016 259.5,373.5C 254.063,360.227 246.063,348.727 235.5,339C 224.856,331.732 213.19,327.565 200.5,326.5C 174.724,329.381 154.057,341.048 138.5,361.5C 137.833,361.5 137.5,361.833 137.5,362.5C 119.032,372.568 100.699,382.901 82.5,393.5C 82.5,382.167 82.5,370.833 82.5,359.5C 122.846,334.663 162.846,309.33 202.5,283.5C 162.5,306.167 122.5,328.833 82.5,351.5C 82.5,344.167 82.5,336.833 82.5,329.5C 118.081,307.923 153.415,285.923 188.5,263.5C 189.153,267.093 189.986,270.759 191,274.5C 194.927,277.448 198.261,276.782 201,272.5C 201.209,266.419 201.709,260.419 202.5,254.5C 203.833,254.167 203.833,253.833 202.5,253.5C 200.261,241.396 203.927,231.229 213.5,223C 223.238,216.733 233.904,214.233 245.5,215.5C 259.006,216.039 272.506,216.706 286,217.5C 299.011,216.327 311.844,216.661 324.5,218.5C 319.129,222.179 313.796,225.846 308.5,229.5C 315.097,226.225 321.43,222.558 327.5,218.5C 332.467,217.273 337.467,216.106 342.5,215C 352.637,211.451 360.637,205.284 366.5,196.5C 386.87,184.315 407.536,172.648 428.5,161.5 Z M 324.5,218.5 C 325.5,218.5 326.5,218.5 327.5,218.5C 321.43,222.558 315.097,226.225 308.5,229.5C 313.796,225.846 319.129,222.179 324.5,218.5 Z M 306.5,230.5 C 306.027,231.906 305.027,232.573 303.5,232.5C 303.973,231.094 304.973,230.427 306.5,230.5 Z M 318.5,264.5 C 318.027,265.906 317.027,266.573 315.5,266.5C 315.973,265.094 316.973,264.427 318.5,264.5 Z M 313.5,267.5 C 313.027,268.906 312.027,269.573 310.5,269.5C 310.973,268.094 311.973,267.427 313.5,267.5 Z M 343.5,267.5 C 344.167,267.5 344.5,267.833 344.5,268.5C 339.632,271.434 334.632,274.1 329.5,276.5C 333.819,273.004 338.485,270.004 343.5,267.5 Z M 329.5,276.5 C 328.341,278.25 326.674,279.25 324.5,279.5C 325.659,277.75 327.326,276.75 329.5,276.5 Z M 371.5,295.5 C 372.167,296.5 372.833,297.5 373.5,298.5C 355.301,309.099 336.968,319.432 318.5,329.5C 335.961,317.931 353.627,306.598 371.5,295.5 Z M 413.5,306.5 C 412.341,308.25 410.674,309.25 408.5,309.5C 409.659,307.75 411.326,306.75 413.5,306.5 Z M 408.5,309.5 C 407.341,311.25 405.674,312.25 403.5,312.5C 404.659,310.75 406.326,309.75 408.5,309.5 Z M 318.5,329.5 C 317.341,331.25 315.674,332.25 313.5,332.5C 314.659,330.75 316.326,329.75 318.5,329.5 Z M 332.5,339.5 C 331.341,341.25 329.674,342.25 327.5,342.5C 328.659,340.75 330.326,339.75 332.5,339.5 Z M 169.5,345.5 C 167.371,347.95 164.704,349.617 161.5,350.5C 163.629,348.05 166.296,346.383 169.5,345.5 Z M 189.5,351.5 C 189.027,352.906 188.027,353.573 186.5,353.5C 186.973,352.094 187.973,351.427 189.5,351.5 Z M 184.5,354.5 C 171.349,363.913 157.682,372.58 143.5,380.5C 143.833,379.167 144.167,377.833 144.5,376.5C 157.833,369.167 171.167,361.833 184.5,354.5 Z M 352.5,376.5 C 351.341,378.25 349.674,379.25 347.5,379.5C 348.659,377.75 350.326,376.75 352.5,376.5 Z M 155.5,389.5 C 154.341,391.25 152.674,392.25 150.5,392.5C 151.659,390.75 153.326,389.75 155.5,389.5 Z M 376.5,408.5 C 376.027,409.906 375.027,410.573 373.5,410.5C 373.973,409.094 374.973,408.427 376.5,408.5 Z M 414.5,423.5 C 414.027,424.906 413.027,425.573 411.5,425.5C 411.973,424.094 412.973,423.427 414.5,423.5 Z M 416.5,448.5 C 416.027,449.906 415.027,450.573 413.5,450.5C 413.973,449.094 414.973,448.427 416.5,448.5 Z M 384.5,479.5 C 377.061,486.393 369.394,493.059 361.5,499.5C 357.5,499.5 353.5,499.5 349.5,499.5C 360.996,492.584 372.663,485.917 384.5,479.5 Z M 311.5,480.5 C 311.027,481.906 310.027,482.573 308.5,482.5C 308.973,481.094 309.973,480.427 311.5,480.5 Z M 353.5,481.5 C 345.807,487.853 337.807,493.853 329.5,499.5C 326.833,499.5 324.167,499.5 321.5,499.5C 331.835,492.997 342.502,486.997 353.5,481.5 Z M 308.5,482.5 C 300.538,488.154 292.538,493.821 284.5,499.5C 282.5,499.5 280.5,499.5 278.5,499.5C 288.167,493.331 298.167,487.664 308.5,482.5 Z M 395.5,499.5 C 390.833,499.5 386.167,499.5 381.5,499.5C 390.187,494.067 399.02,488.733 408,483.5C 408.667,484.167 408.667,484.833 408,485.5C 403.255,489.74 399.088,494.407 395.5,499.5 Z"/></g>
<g><path style="opacity:0.841" fill="#d1ddec" d="M 176.5,184.5 C 174.332,188.693 170.832,191.36 166,192.5C 165.235,192.43 164.735,192.097 164.5,191.5C 168.5,189.167 172.5,186.833 176.5,184.5 Z"/></g>
<g><path style="opacity:0.942" fill="#e1eefe" d="M 428.5,220.5 C 428.5,224.5 428.5,228.5 428.5,232.5C 413.491,241.001 398.824,250.001 384.5,259.5C 383.833,259.5 383.5,259.833 383.5,260.5C 381.216,260.975 379.216,261.975 377.5,263.5C 376.833,263.5 376.5,263.833 376.5,264.5C 375.833,264.833 375.167,265.167 374.5,265.5C 373.833,265.5 373.5,265.833 373.5,266.5C 370.86,267.82 368.193,269.153 365.5,270.5C 364.761,270.631 364.094,270.464 363.5,270C 361.278,267.044 358.945,264.21 356.5,261.5C 380.517,247.806 404.517,234.139 428.5,220.5 Z"/></g>
<g><path style="opacity:0.955" fill="#e0eefd" d="M 428.5,236.5 C 428.5,244.167 428.5,251.833 428.5,259.5C 413.209,268.806 398.209,278.473 383.5,288.5C 379.765,286.275 376.432,283.442 373.5,280C 380.366,275.475 385.366,269.475 388.5,262C 388.257,261.098 387.923,260.265 387.5,259.5C 401.328,252.087 414.995,244.42 428.5,236.5 Z"/></g>
<g><path style="opacity:0.985" fill="#292929" d="M 354.5,260.5 C 355.167,260.833 355.833,261.167 356.5,261.5C 358.945,264.21 361.278,267.044 363.5,270C 364.094,270.464 364.761,270.631 365.5,270.5C 365.5,271.167 365.833,271.5 366.5,271.5C 366.369,272.376 366.702,273.043 367.5,273.5C 369.188,272.479 370.521,271.145 371.5,269.5C 372.167,268.5 372.833,267.5 373.5,266.5C 374.167,266.5 374.5,266.167 374.5,265.5C 375.167,265.167 375.833,264.833 376.5,264.5C 377.167,264.5 377.5,264.167 377.5,263.5C 379.216,261.975 381.216,260.975 383.5,260.5C 384.167,260.5 384.5,260.167 384.5,259.5C 385.5,259.5 386.5,259.5 387.5,259.5C 387.923,260.265 388.257,261.098 388.5,262C 385.366,269.475 380.366,275.475 373.5,280C 376.432,283.442 379.765,286.275 383.5,288.5C 384.167,289.5 384.833,290.5 385.5,291.5C 391.699,299.182 389.699,302.682 379.5,302C 377.609,300.558 375.609,299.391 373.5,298.5C 372.833,297.5 372.167,296.5 371.5,295.5C 370.243,292.573 368.243,290.239 365.5,288.5C 361.648,292.186 357.648,295.686 353.5,299C 350.794,300.908 347.794,301.741 344.5,301.5C 346.429,293.717 350.929,287.717 358,283.5C 358.239,280.989 357.072,279.323 354.5,278.5C 351.5,274.833 348.167,271.5 344.5,268.5C 344.5,267.833 344.167,267.5 343.5,267.5C 343.73,259.952 347.397,257.618 354.5,260.5 Z M 373.5,266.5 C 372.833,267.5 372.167,268.5 371.5,269.5C 369.833,270.167 368.167,270.833 366.5,271.5C 365.833,271.5 365.5,271.167 365.5,270.5C 368.193,269.153 370.86,267.82 373.5,266.5 Z"/></g>
<g><path style="opacity:1" fill="#c8d4e1" d="M 371.5,269.5 C 370.521,271.145 369.188,272.479 367.5,273.5C 366.702,273.043 366.369,272.376 366.5,271.5C 368.167,270.833 369.833,270.167 371.5,269.5 Z"/></g>
<g><path style="opacity:0.994" fill="#292929" d="M 295.5,449.5 C 295.291,450.922 294.791,452.255 294,453.5C 288.666,459.738 282.499,464.904 275.5,469C 272.909,470.718 270.242,471.218 267.5,470.5C 268.127,469.583 268.461,468.583 268.5,467.5C 269.5,466.167 270.5,464.833 271.5,463.5C 272.167,463.5 272.5,463.167 272.5,462.5C 274.525,460.804 276.525,459.137 278.5,457.5C 279.043,457.44 279.376,457.107 279.5,456.5C 272.01,455.181 264.677,455.181 257.5,456.5C 256.5,456.5 255.5,456.5 254.5,456.5C 253.833,456.5 253.167,456.5 252.5,456.5C 237.5,456.5 222.5,456.5 207.5,456.5C 205.833,456.5 204.167,456.5 202.5,456.5C 194.167,456.5 185.833,456.5 177.5,456.5C 176.167,456.5 174.833,456.5 173.5,456.5C 157.5,456.5 141.5,456.5 125.5,456.5C 123.167,456.5 120.833,456.5 118.5,456.5C 117.235,455.521 115.901,454.521 114.5,453.5C 113.167,452.167 113.167,450.833 114.5,449.5C 122.06,447.88 129.727,446.88 137.5,446.5C 139.167,446.5 140.833,446.5 142.5,446.5C 148.653,447.653 154.986,447.82 161.5,447C 158.536,444.19 155.202,442.024 151.5,440.5C 151.167,439.833 150.833,439.167 150.5,438.5C 147.769,434.766 144.436,431.766 140.5,429.5C 140.573,427.973 139.906,426.973 138.5,426.5C 135.485,419.806 132.485,413.139 129.5,406.5C 129.5,405.833 129.5,405.167 129.5,404.5C 129.002,399.848 128.669,395.181 128.5,390.5C 128.5,389.167 128.5,387.833 128.5,386.5C 130.292,380.458 132.292,374.458 134.5,368.5C 135.5,366.5 136.5,364.5 137.5,362.5C 138.167,362.5 138.5,362.167 138.5,361.5C 154.057,341.048 174.724,329.381 200.5,326.5C 213.19,327.565 224.856,331.732 235.5,339C 246.063,348.727 254.063,360.227 259.5,373.5C 262.484,371.016 265.318,368.35 268,365.5C 274.499,354.54 276.165,342.874 273,330.5C 266.705,311.285 253.538,301.785 233.5,302C 237.349,305.682 241.016,309.515 244.5,313.5C 241.31,317.087 237.31,318.254 232.5,317C 226.86,311.36 221.194,305.694 215.5,300C 219.421,294.074 224.088,288.741 229.5,284C 233.421,280.304 238.087,278.47 243.5,278.5C 243.509,280.308 243.009,281.975 242,283.5C 238.072,286.883 234.239,290.383 230.5,294C 257.089,291.862 275.256,303.028 285,327.5C 290.165,350.828 282.498,368.495 262,380.5C 261.667,386.5 261.333,392.5 261,398.5C 257.988,420.133 247.154,436.3 228.5,447C 243.65,447.426 258.65,447.593 273.5,447.5C 274.5,447.167 275.5,446.833 276.5,446.5C 273.542,444.044 270.709,441.378 268,438.5C 267.28,436.888 267.446,435.388 268.5,434C 271.702,432.517 275.036,432.183 278.5,433C 284.669,438.065 290.335,443.565 295.5,449.5 Z M 169.5,345.5 C 167.371,347.95 164.704,349.617 161.5,350.5C 163.629,348.05 166.296,346.383 169.5,345.5 Z M 189.5,351.5 C 189.027,352.906 188.027,353.573 186.5,353.5C 186.973,352.094 187.973,351.427 189.5,351.5 Z M 184.5,354.5 C 171.349,363.913 157.682,372.58 143.5,380.5C 143.833,379.167 144.167,377.833 144.5,376.5C 157.833,369.167 171.167,361.833 184.5,354.5 Z M 155.5,389.5 C 154.341,391.25 152.674,392.25 150.5,392.5C 151.659,390.75 153.326,389.75 155.5,389.5 Z M 150.5,392.5 C 148.381,394.4 146.047,396.066 143.5,397.5C 143.5,396.833 143.5,396.167 143.5,395.5C 145.713,394.227 148.046,393.227 150.5,392.5 Z M 196.5,393.5 C 195.341,395.25 193.674,396.25 191.5,396.5C 192.659,394.75 194.326,393.75 196.5,393.5 Z M 191.5,396.5 C 178.459,405.527 165.126,414.193 151.5,422.5C 151.443,421.391 151.11,420.391 150.5,419.5C 164.032,411.568 177.699,403.901 191.5,396.5 Z M 184.5,419.5 C 183.341,421.25 181.674,422.25 179.5,422.5C 180.659,420.75 182.326,419.75 184.5,419.5 Z M 179.5,422.5 C 174.108,426.553 168.441,430.22 162.5,433.5C 161.833,433.5 161.5,433.167 161.5,432.5C 167.17,428.663 173.17,425.33 179.5,422.5 Z"/></g>
<g><path style="opacity:0.974" fill="#e0eefe" d="M 195.5,445.5 C 196.183,444.356 195.849,444.356 194.5,445.5C 184.342,446.127 175.008,443.627 166.5,438C 164.365,437.124 163.031,435.624 162.5,433.5C 168.441,430.22 174.108,426.553 179.5,422.5C 173.17,425.33 167.17,428.663 161.5,432.5C 157.188,430.188 153.855,426.855 151.5,422.5C 165.126,414.193 178.459,405.527 191.5,396.5C 177.699,403.901 164.032,411.568 150.5,419.5C 146.027,412.972 143.694,405.639 143.5,397.5C 146.047,396.066 148.381,394.4 150.5,392.5C 148.046,393.227 145.713,394.227 143.5,395.5C 142.2,390.6 142.2,385.6 143.5,380.5C 157.682,372.58 171.349,363.913 184.5,354.5C 171.167,361.833 157.833,369.167 144.5,376.5C 145.897,367.12 150.23,359.453 157.5,353.5C 158.71,353.068 159.71,352.401 160.5,351.5C 161.167,351.5 161.5,351.167 161.5,350.5C 164.704,349.617 167.371,347.95 169.5,345.5C 170.492,345.672 171.158,345.338 171.5,344.5C 172.492,344.672 173.158,344.338 173.5,343.5C 191.586,336.111 209.253,337.278 226.5,347C 245.219,361.642 252.385,380.809 248,404.5C 241.688,430.272 225.188,444.272 198.5,446.5C 197.274,446.48 196.274,446.147 195.5,445.5 Z M 189.5,351.5 C 189.027,352.906 188.027,353.573 186.5,353.5C 186.973,352.094 187.973,351.427 189.5,351.5 Z M 155.5,389.5 C 154.341,391.25 152.674,392.25 150.5,392.5C 151.659,390.75 153.326,389.75 155.5,389.5 Z M 196.5,393.5 C 195.341,395.25 193.674,396.25 191.5,396.5C 192.659,394.75 194.326,393.75 196.5,393.5 Z M 184.5,419.5 C 183.341,421.25 181.674,422.25 179.5,422.5C 180.659,420.75 182.326,419.75 184.5,419.5 Z"/></g>
<g><path style="opacity:0.938" fill="#e0eefe" d="M 134.5,368.5 C 132.292,374.458 130.292,380.458 128.5,386.5C 113.634,395.099 98.634,403.432 83.5,411.5C 83.0578,407.846 82.7244,404.179 82.5,400.5C 99.8054,389.844 117.139,379.178 134.5,368.5 Z"/></g>
<g><path style="opacity:0.939" fill="#e1eefe" d="M 128.5,390.5 C 128.669,395.181 129.002,399.848 129.5,404.5C 113.927,412.738 98.594,421.405 83.5,430.5C 83.5,426.5 83.5,422.5 83.5,418.5C 84.1667,418.5 84.5,418.167 84.5,417.5C 99.1493,408.527 113.816,399.527 128.5,390.5 Z"/></g>
<g><path style="opacity:0.954" fill="#e0eefe" d="M 129.5,406.5 C 132.485,413.139 135.485,419.806 138.5,426.5C 119.635,437.432 100.635,448.099 81.5,458.5C 81.1149,450.358 81.7815,442.358 83.5,434.5C 98.8333,425.167 114.167,415.833 129.5,406.5 Z"/></g>
<g><path style="opacity:0.942" fill="#dfedfc" d="M 140.5,429.5 C 144.436,431.766 147.769,434.766 150.5,438.5C 145.963,440.93 141.63,443.597 137.5,446.5C 129.727,446.88 122.06,447.88 114.5,449.5C 113.167,450.833 113.167,452.167 114.5,453.5C 115.901,454.521 117.235,455.521 118.5,456.5C 106.864,463.99 94.8636,470.99 82.5,477.5C 81.5184,474.038 81.185,470.371 81.5,466.5C 101.335,454.417 121.002,442.084 140.5,429.5 Z"/></g>
<g><path style="opacity:0.951" fill="#d3e0ef" d="M 151.5,440.5 C 155.202,442.024 158.536,444.19 161.5,447C 154.986,447.82 148.653,447.653 142.5,446.5C 145.709,444.735 148.709,442.735 151.5,440.5 Z"/></g>
<g><path style="opacity:1" fill="#656a6f" d="M 257.5,456.5 C 264.677,455.181 272.01,455.181 279.5,456.5C 279.376,457.107 279.043,457.44 278.5,457.5C 271.687,456.509 264.687,456.175 257.5,456.5 Z"/></g>
<g><path style="opacity:0.941" fill="#e1eefe" d="M 125.5,456.5 C 141.5,456.5 157.5,456.5 173.5,456.5C 149.5,470.833 125.5,485.167 101.5,499.5C 96.1181,500.301 91.7848,498.634 88.5,494.5C 96.2082,490.319 103.542,485.652 110.5,480.5C 102.676,484.245 95.0092,488.245 87.5,492.5C 84.8352,490.165 83.5018,487.165 83.5,483.5C 97.8762,474.985 111.876,465.985 125.5,456.5 Z M 118.5,475.5 C 118.027,476.906 117.027,477.573 115.5,477.5C 115.973,476.094 116.973,475.427 118.5,475.5 Z M 115.5,477.5 C 114.341,479.25 112.674,480.25 110.5,480.5C 111.659,478.75 113.326,477.75 115.5,477.5 Z"/></g>
<g><path style="opacity:0.948" fill="#e0eefe" d="M 177.5,456.5 C 185.833,456.5 194.167,456.5 202.5,456.5C 178.331,471.085 153.998,485.419 129.5,499.5C 122.704,500.774 116.037,500.774 109.5,499.5C 132.203,485.153 154.87,470.819 177.5,456.5 Z"/></g>
<g><path style="opacity:0.967" fill="#e0eefe" d="M 207.5,456.5 C 222.5,456.5 237.5,456.5 252.5,456.5C 228.331,471.085 203.998,485.419 179.5,499.5C 166.567,500.211 153.9,500.211 141.5,499.5C 163.5,485.167 185.5,470.833 207.5,456.5 Z"/></g>
<g><path style="opacity:0.949" fill="#e0eefe" d="M 254.5,456.5 C 255.5,456.5 256.5,456.5 257.5,456.5C 264.687,456.175 271.687,456.509 278.5,457.5C 276.525,459.137 274.525,460.804 272.5,462.5C 271.833,462.5 271.5,462.833 271.5,463.5C 250.498,474.998 229.831,486.998 209.5,499.5C 202.704,500.774 196.037,500.774 189.5,499.5C 211.338,485.415 233.005,471.082 254.5,456.5 Z"/></g>
<g><path style="opacity:0.09" fill="#d0dbe8" d="M 436.5,494.5 C 436.205,498.129 434.205,500.129 430.5,500.5C 432.167,498.167 434.167,496.167 436.5,494.5 Z"/></g>
<g><path style="opacity:0.699" fill="#e2f0ff" d="M 141.5,505.5 C 143.833,505.5 146.167,505.5 148.5,505.5C 147.866,506.947 146.699,507.613 145,507.5C 143.301,507.613 142.134,506.947 141.5,505.5 Z"/></g>
<g><path style="opacity:0.74" fill="#e1eeff" d="M 159.5,505.5 C 162.167,505.5 164.833,505.5 167.5,505.5C 164.833,508.167 162.167,508.167 159.5,505.5 Z"/></g>
<g><path style="opacity:1" fill="#d3e1f0" d="M 189.5,506.5 C 191.833,505.167 194.167,505.167 196.5,506.5C 194.167,507.833 191.833,507.833 189.5,506.5 Z"/></g>
<g><path style="opacity:0.869" fill="#d7e4f2" d="M 427.5,502.5 C 423.971,505.438 419.971,506.938 415.5,507C 414.944,506.617 414.611,506.117 414.5,505.5C 418.874,504.656 423.207,503.656 427.5,502.5 Z"/></g>
<g><path style="opacity:0.4" fill="#dce9f9" d="M 110.5,506.5 C 112.607,505.532 114.941,505.198 117.5,505.5C 115.458,507.591 113.125,507.924 110.5,506.5 Z"/></g>
<g><path style="opacity:0.273" fill="#d1ddec" d="M 221.5,506.5 C 223.5,505.167 225.5,505.167 227.5,506.5C 225.5,507.833 223.5,507.833 221.5,506.5 Z"/></g>
<g><path style="opacity:0.292" fill="#cad7e5" d="M 239.5,506.5 C 241.5,505.167 243.5,505.167 245.5,506.5C 243.5,507.833 241.5,507.833 239.5,506.5 Z"/></g>
<g><path style="opacity:0.349" fill="#c7d3e0" d="M 259.5,506.5 C 261.5,505.167 263.5,505.167 265.5,506.5C 263.5,507.833 261.5,507.833 259.5,506.5 Z"/></g>
<g><path style="opacity:0.384" fill="#c3cedb" d="M 285.5,506.5 C 287.5,505.167 289.5,505.167 291.5,506.5C 289.5,507.833 287.5,507.833 285.5,506.5 Z"/></g>
<g><path style="opacity:0.315" fill="#c1cdda" d="M 302.5,506.5 C 304.5,505.167 306.5,505.167 308.5,506.5C 306.5,507.833 304.5,507.833 302.5,506.5 Z"/></g>
<g><path style="opacity:0.424" fill="#bdc7d5" d="M 330.5,506.5 C 332.5,505.167 334.5,505.167 336.5,506.5C 334.5,507.833 332.5,507.833 330.5,506.5 Z"/></g>
<g><path style="opacity:0.439" fill="#c1cdda" d="M 362.5,506.5 C 364.5,505.167 366.5,505.167 368.5,506.5C 366.5,507.833 364.5,507.833 362.5,506.5 Z"/></g>
<g><path style="opacity:0.341" fill="#d4deeb" d="M 395.5,506.5 C 397.833,505.167 400.167,505.167 402.5,506.5C 400.167,507.833 397.833,507.833 395.5,506.5 Z"/></g>
</svg>
