<?xml version="1.0" encoding="UTF-8"?>
<!DOCTYPE svg PUBLIC "-//W3C//DTD SVG 1.1//EN" "http://www.w3.org/Graphics/SVG/1.1/DTD/svg11.dtd">
<svg xmlns="http://www.w3.org/2000/svg" version="1.1" width="512px" height="512px" style="shape-rendering:geometricPrecision; text-rendering:geometricPrecision; image-rendering:optimizeQuality; fill-rule:evenodd; clip-rule:evenodd" xmlns:xlink="http://www.w3.org/1999/xlink">
<g><path style="opacity:0.968" fill="#030303" d="M 511.5,74.5 C 511.5,98.1667 511.5,121.833 511.5,145.5C 510.574,160.029 509.408,174.696 508,189.5C 506.125,219.476 490.625,237.643 461.5,244C 452.909,245.656 444.243,246.656 435.5,247C 370.497,246.533 305.497,245.7 240.5,244.5C 239.987,252.226 237.487,259.226 233,265.5C 222.065,278.438 210.398,290.771 198,302.5C 196.667,304.5 195.333,306.5 194,308.5C 190.159,318.028 186.326,327.528 182.5,337C 195.528,339.693 203.695,347.527 207,360.5C 209.73,370.675 210.73,381.008 210,391.5C 207.302,402.364 200.469,409.031 189.5,411.5C 191.616,429.783 192.782,448.116 193,466.5C 192.705,475.102 189.205,481.935 182.5,487C 175.905,490.532 168.905,492.865 161.5,494C 133.66,498.62 105.66,501.787 77.5,503.5C 67.8376,502.921 58.1709,502.421 48.5,502C 20.9554,501.467 10.2887,487.633 16.5,460.5C 16.9308,446.161 17.0974,431.827 17,417.5C 7.78045,414.12 1.94712,407.787 -0.5,398.5C -0.5,389.833 -0.5,381.167 -0.5,372.5C 2.4507,355.052 12.784,345.219 30.5,343C 27.1369,336.809 25.4702,330.142 25.5,323C 26.4184,286.727 28.9184,250.561 33,214.5C 33.6587,200.511 37.992,187.845 46,176.5C 60.9976,161.494 77.1643,147.994 94.5,136C 106.907,125.049 119.407,114.215 132,103.5C 131.832,86.8166 130.999,70.15 129.5,53.5C 129.183,25.9798 142.85,11.4798 170.5,10C 205.149,7.15793 239.816,7.15793 274.5,10C 330.5,10.3333 386.5,10.6667 442.5,11C 458.487,11.2942 474.153,13.6275 489.5,18C 499.625,23.3758 505.458,31.8758 507,43.5C 508.925,53.9205 510.425,64.2539 511.5,74.5 Z"/></g>
<g><path style="opacity:1" fill="#f1f1f1" d="M 184.5,21.5 C 233.699,21.7962 282.866,23.1295 332,25.5C 370.498,24.6173 408.998,24.4506 447.5,25C 454.167,25.6667 460.833,26.3333 467.5,27C 481.694,26.8692 490.194,33.7025 493,47.5C 494.813,55.0863 496.147,62.7529 497,70.5C 498.218,111.226 497.218,151.893 494,192.5C 491.952,209.215 483.118,220.715 467.5,227C 461.21,228.823 454.877,230.489 448.5,232C 427.011,233.098 405.511,233.931 384,234.5C 324.19,230.32 264.356,229.487 204.5,232C 215.935,222.578 225.101,211.411 232,198.5C 240.936,175.449 238.936,153.449 226,132.5C 214.871,118.906 200.705,113.406 183.5,116C 177.428,121.966 173.262,129.132 171,137.5C 163.177,149.998 153.844,161.331 143,171.5C 144.647,148.721 145.814,125.888 146.5,103C 146.56,91.4354 145.727,79.9354 144,68.5C 143.333,59.8333 143.333,51.1667 144,42.5C 146.013,35.8193 150.18,30.986 156.5,28C 160.363,26.2678 164.363,24.9344 168.5,24C 174.064,23.7513 179.398,22.9179 184.5,21.5 Z"/></g>
<g><path style="opacity:1" fill="#090606" d="M 429.5,38.5 C 431.199,38.3398 432.866,38.5065 434.5,39C 443.439,47.7 450.273,57.8667 455,69.5C 458.394,77.6809 461.394,86.0143 464,94.5C 468.683,106.638 464.85,114.138 452.5,117C 437.515,119.439 422.515,119.772 407.5,118C 396.211,115.032 392.044,107.865 395,96.5C 403.301,78.5611 412.635,61.2277 423,44.5C 425.063,42.2659 427.229,40.2659 429.5,38.5 Z"/></g>
<g><path style="opacity:1" fill="#080404" d="M 172.5,41.5 C 201.168,42.6276 229.834,42.7943 258.5,42C 268.221,45.4285 271.721,52.2618 269,62.5C 268.064,66.2074 266.231,69.3741 263.5,72C 259.066,74.1446 254.4,75.4779 249.5,76C 223.841,77.1665 198.174,77.4999 172.5,77C 166.173,72.504 163.506,66.3374 164.5,58.5C 163.161,50.8477 165.828,45.181 172.5,41.5 Z"/></g>
<g><path style="opacity:1" fill="#fb3434" d="M 431.5,48.5 C 434.223,51.5863 436.723,54.9196 439,58.5C 445.814,71.6221 451.647,85.1221 456.5,99C 456.785,104.713 454.119,108.046 448.5,109C 435.11,109.924 421.777,109.591 408.5,108C 407.069,107.535 405.903,106.701 405,105.5C 404.333,102.5 404.333,99.5 405,96.5C 413.592,80.3121 422.425,64.3121 431.5,48.5 Z"/></g>
<g><path style="opacity:1" fill="#64EB7E" d="M 236.5,49.5 C 241.844,49.334 247.177,49.5006 252.5,50C 260.75,52.4777 262.416,57.1443 257.5,64C 255.283,65.2754 252.949,66.2754 250.5,67C 226.195,68.8312 201.861,69.4979 177.5,69C 170.575,62.5084 170.908,56.5084 178.5,51C 190.501,50.6427 202.501,50.8093 214.5,51.5C 222.062,51.6789 229.395,51.0122 236.5,49.5 Z"/></g>
<g><path style="opacity:1" fill="#0b0b0b" d="M 258.5,86.5 C 272.863,86.2358 287.196,86.5692 301.5,87.5C 301.5,89.1667 301.5,90.8333 301.5,92.5C 295.166,93.2502 288.833,94.0835 282.5,95C 246.5,95.7744 210.5,96.1077 174.5,96C 170.597,95.588 168.93,93.4214 169.5,89.5C 174.979,90.021 180.479,90.3543 186,90.5C 210.307,88.8245 234.473,87.4912 258.5,86.5 Z"/></g>
<g><path style="opacity:1" fill="#fde0c5" d="M 219.5,245.5 C 222.388,244.99 224.721,245.656 226.5,247.5C 226.174,250.311 225.341,252.978 224,255.5C 220,260.167 216,264.833 212,269.5C 201.297,278.535 191.631,288.535 183,299.5C 178.295,307.986 174.961,316.986 173,326.5C 171.623,328.754 170.123,330.92 168.5,333C 163.768,335.466 158.768,337.133 153.5,338C 127.354,339.642 101.187,340.809 75,341.5C 46.777,346.61 35.277,335.11 40.5,307C 41.2157,284.146 42.3824,261.313 44,238.5C 45.2186,224.635 47.5519,210.968 51,197.5C 53.4539,190.759 57.2872,184.925 62.5,180C 77.8333,167.333 93.1667,154.667 108.5,142C 116.698,134.137 124.531,125.97 132,117.5C 131.635,138.849 131.635,160.182 132,181.5C 121.636,191.529 111.636,201.863 102,212.5C 97.262,219.634 93.9286,227.301 92,235.5C 93.7328,237.602 95.7328,237.935 98,236.5C 100.667,231.833 103.333,227.167 106,222.5C 126.392,201.44 147.392,181.106 169,161.5C 177.424,152.324 184.09,141.991 189,130.5C 191.133,128.147 193.8,127.147 197,127.5C 208.218,129.373 215.885,135.706 220,146.5C 226.954,168.103 223.954,188.103 211,206.5C 195.233,221.262 180.567,236.929 167,253.5C 162.511,259.65 158.677,266.15 155.5,273C 155.8,275.32 157.133,276.487 159.5,276.5C 161.606,275.57 163.606,274.404 165.5,273C 172.461,264.37 179.795,256.037 187.5,248C 198.164,247.056 208.831,246.222 219.5,245.5 Z"/></g>
<g><path style="opacity:1" fill="#040404" d="M 323.5,133.5 C 360.502,133.333 397.502,133.5 434.5,134C 438.872,134.421 443.205,135.088 447.5,136C 450.003,137.549 450.003,139.216 447.5,141C 438.868,142.018 430.201,142.518 421.5,142.5C 387.17,141.521 352.837,140.688 318.5,140C 315.895,139.974 314.729,138.807 315,136.5C 317.87,135.307 320.704,134.307 323.5,133.5 Z"/></g>
<g><path style="opacity:1" fill="#0b0b0b" d="M 328.5,152.5 C 363.502,152.333 398.502,152.5 433.5,153C 437.848,153.573 442.181,154.24 446.5,155C 449.346,155.879 450.013,157.546 448.5,160C 447.167,160.333 445.833,160.667 444.5,161C 402.828,161.57 361.161,161.237 319.5,160C 315.362,160.218 314.028,158.552 315.5,155C 320.015,154.386 324.348,153.552 328.5,152.5 Z"/></g>
<g><path style="opacity:1" fill="#050505" d="M 327.5,172.5 C 364.502,172.333 401.502,172.5 438.5,173C 441.789,173.882 445.123,174.548 448.5,175C 449.86,176.938 449.527,178.604 447.5,180C 439.035,181.013 430.535,181.513 422,181.5C 387.506,180.433 353.006,179.599 318.5,179C 314.383,178.451 313.716,176.784 316.5,174C 320.356,173.823 324.023,173.323 327.5,172.5 Z"/></g>
<g><path style="opacity:1" fill="#0a0a0a" d="M 330.5,191.5 C 364.835,191.333 399.168,191.5 433.5,192C 437.531,192.481 441.531,193.147 445.5,194C 449.13,194.271 450.13,195.938 448.5,199C 446.833,199.333 445.167,199.667 443.5,200C 400.792,200.862 358.125,200.195 315.5,198C 314.167,196.667 314.167,195.333 315.5,194C 320.661,193.268 325.661,192.434 330.5,191.5 Z"/></g>
<g><path style="opacity:1" fill="#7f7163" d="M 219.5,245.5 C 221.948,244.527 224.615,244.194 227.5,244.5C 227.737,245.791 227.404,246.791 226.5,247.5C 224.721,245.656 222.388,244.99 219.5,245.5 Z"/></g>
<g><path style="opacity:1" fill="#64EB7E" d="M 140.5,351.5 C 154.171,351.333 167.837,351.5 181.5,352C 185.066,352.7 187.9,354.533 190,357.5C 194.834,368.335 196.834,379.669 196,391.5C 193.913,395.302 190.746,397.802 186.5,399C 179.674,401.232 172.674,402.565 165.5,403C 132.473,404.394 99.4731,406.227 66.5,408.5C 52.454,407.924 38.454,406.758 24.5,405C 15.2313,400.978 11.2313,393.811 12.5,383.5C 11.2394,367.276 18.5728,358.109 34.5,356C 70.023,355.201 105.356,353.701 140.5,351.5 Z"/></g>
<g><path style="opacity:1" fill="#014017" d="M 167.5,415.5 C 170.167,415.5 172.833,415.5 175.5,415.5C 178.226,433.054 179.059,450.721 178,468.5C 177.31,471.196 175.81,473.363 173.5,475C 169.167,477.584 164.5,479.251 159.5,480C 136.796,482.505 114.129,485.171 91.5,488C 75.8333,488.667 60.1667,488.667 44.5,488C 39.4187,487.533 35.2521,485.366 32,481.5C 30.484,460.924 29.6506,440.258 29.5,419.5C 48.4428,421.468 67.4428,421.968 86.5,421C 113.696,419.707 140.696,417.873 167.5,415.5 Z"/></g>
</svg>
