<?xml version="1.0" encoding="UTF-8"?>
<!DOCTYPE svg PUBLIC "-//W3C//DTD SVG 1.1//EN" "http://www.w3.org/Graphics/SVG/1.1/DTD/svg11.dtd">
<svg xmlns="http://www.w3.org/2000/svg" version="1.1" width="512px" height="512px" style="shape-rendering:geometricPrecision; text-rendering:geometricPrecision; image-rendering:optimizeQuality; fill-rule:evenodd; clip-rule:evenodd" xmlns:xlink="http://www.w3.org/1999/xlink">
<g><path style="opacity:0.964" fill="#030303" d="M 28.5,72.5 C 32.1309,72.1604 35.4642,72.9937 38.5,75C 59.8423,105.345 89.1756,121.679 126.5,124C 145.2,127.677 160.866,136.511 173.5,150.5C 211.623,129.054 249.623,129.221 287.5,151C 292.286,154.118 296.786,157.618 301,161.5C 315.909,149.416 333.075,143.25 352.5,143C 380.096,146.415 405.429,140.415 428.5,125C 435.167,119.667 441.833,114.333 448.5,109C 457.3,107.149 462.467,110.649 464,119.5C 467.833,116.333 471.667,113.167 475.5,110C 484.917,107.752 490.25,111.419 491.5,121C 490.251,139.323 483.417,155.157 471,168.5C 473.212,187.221 467.212,202.554 453,214.5C 452.293,237.268 441.959,253.935 422,264.5C 410.623,293.118 389.456,307.785 358.5,308.5C 352.408,308.488 346.408,307.822 340.5,306.5C 332.193,307.434 323.86,307.601 315.5,307C 290.229,337.989 257.563,351.655 217.5,348C 180.362,342.612 152.696,323.612 134.5,291C 96.1122,290.602 72.6122,271.768 64,234.5C 46.5753,221.561 39.742,204.394 43.5,183C 31.1806,169.051 27.514,153.051 32.5,135C 24.4442,121.661 20.1109,107.161 19.5,91.5C 19.8596,87.4827 20.3596,83.4827 21,79.5C 22.7668,76.228 25.2668,73.8947 28.5,72.5 Z"/></g>
<g><path style="opacity:1" fill="#fcfcfc" d="M 30.5,83.5 C 37.8609,91.3639 45.5276,99.1972 53.5,107C 72.8196,123.15 95.1529,131.816 120.5,133C 138.245,136.037 153.245,144.037 165.5,157C 126.396,190.233 114.729,231.4 130.5,280.5C 103.806,279.669 85.806,266.836 76.5,242C 76.6667,241.5 76.8333,241 77,240.5C 85.7572,244.395 94.4239,244.395 103,240.5C 103.896,237.975 103.396,235.808 101.5,234C 77.7461,235.255 61.5794,224.755 53,202.5C 52.1735,198.459 52.3401,194.459 53.5,190.5C 64.6361,198.664 76.8028,201.331 90,198.5C 90.6667,196.5 90.6667,194.5 90,192.5C 82.1153,191.198 74.2819,189.364 66.5,187C 48.3721,178.553 39.8721,164.386 41,144.5C 51.7216,155.947 64.8883,161.447 80.5,161C 83.0701,158.282 83.0701,155.615 80.5,153C 62.2283,151.385 48.7283,142.551 40,126.5C 31.9071,113.285 28.7405,98.9516 30.5,83.5 Z"/></g>
<g><path style="opacity:1" fill="#fcfcfc" d="M 337.5,296.5 C 332.305,296.821 327.305,296.487 322.5,295.5C 341.253,259.385 341.086,223.385 322,187.5C 318.394,181.293 314.061,175.627 309,170.5C 308.333,169.833 308.333,169.167 309,168.5C 320.751,159.023 334.251,153.857 349.5,153C 389.541,157.921 423.874,146.421 452.5,118.5C 452.263,137.647 444.93,153.647 430.5,166.5C 419.776,176.189 407.109,180.356 392.5,179C 388.5,182 388.5,185 392.5,188C 407.285,189.804 420.619,186.304 432.5,177.5C 432.986,185.2 430.819,192.2 426,198.5C 413.831,212.668 398.497,218.335 380,215.5C 374.632,217.685 374.132,220.852 378.5,225C 390.617,226.648 402.284,225.148 413.5,220.5C 412.801,232.381 407.467,241.881 397.5,249C 390.657,254.089 382.99,256.923 374.5,257.5C 368.828,256.662 363.161,256.162 357.5,256C 354.468,260.18 355.468,263.18 360.5,265C 367.465,266.009 374.465,266.842 381.5,267.5C 372.167,285.172 357.5,294.839 337.5,296.5 Z"/></g>
<g><path style="opacity:1" fill="#5ae2a6" d="M 220.5,144.5 C 268.116,143.373 301.616,164.373 321,207.5C 334.337,250.324 324.504,286.824 291.5,317C 260.018,340.676 226.018,345.01 189.5,330C 146.55,306.934 128.383,271.101 135,222.5C 143.304,188.536 163.471,164.703 195.5,151C 203.788,148.16 212.122,145.993 220.5,144.5 Z"/></g>
<g><path style="opacity:1" fill="#fdfdfd" d="M 216.5,168.5 C 256.41,164.691 284.243,181.025 300,217.5C 309.01,250.797 300.51,278.631 274.5,301C 236.629,324.159 202.463,319.659 172,287.5C 150.375,255.065 151.375,223.399 175,192.5C 186.551,180.426 200.385,172.426 216.5,168.5 Z"/></g>
<g><path style="opacity:1" fill="#0a0a0a" d="M 231.5,193.5 C 233.167,193.5 234.833,193.5 236.5,193.5C 236.5,195.833 236.5,198.167 236.5,200.5C 249.865,201.861 256.532,209.194 256.5,222.5C 253.5,222.5 250.5,222.5 247.5,222.5C 247.577,214.909 243.91,210.242 236.5,208.5C 235.719,209.729 235.219,211.062 235,212.5C 234.111,219.826 233.778,227.159 234,234.5C 240.657,236.713 246.657,240.047 252,244.5C 258.217,256.984 256.05,267.817 245.5,277C 240.214,278.69 234.88,280.19 229.5,281.5C 228.593,284.421 228.26,287.421 228.5,290.5C 226.833,290.5 225.167,290.5 223.5,290.5C 223.552,286.802 223.886,283.135 224.5,279.5C 208.418,277.743 201.085,268.743 202.5,252.5C 205.5,252.5 208.5,252.5 211.5,252.5C 210.136,263.449 214.802,269.783 225.5,271.5C 225.806,261.806 226.472,252.139 227.5,242.5C 215.421,240.421 208.421,233.421 206.5,221.5C 208.588,207.08 216.921,199.746 231.5,199.5C 231.5,197.5 231.5,195.5 231.5,193.5 Z"/></g>
<g><path style="opacity:1" fill="#fafafa" d="M 225.5,208.5 C 226.833,208.5 228.167,208.5 229.5,208.5C 229.5,211.167 229.5,213.833 229.5,216.5C 228.806,221.805 228.472,227.138 228.5,232.5C 216.988,229.809 213.821,223.143 219,212.5C 220.571,210.077 222.737,208.744 225.5,208.5 Z"/></g>
<g><path style="opacity:1" fill="#8a8a8a" d="M 225.5,208.5 C 226.919,207.549 228.585,207.216 230.5,207.5C 230.81,210.713 230.477,213.713 229.5,216.5C 229.5,213.833 229.5,211.167 229.5,208.5C 228.167,208.5 226.833,208.5 225.5,208.5 Z"/></g>
<g><path style="opacity:1" fill="#0e0e0e" d="M 174.5,232.5 C 178.637,232.146 182.637,232.646 186.5,234C 188.998,240.003 186.998,242.836 180.5,242.5C 172.435,242.71 170.435,239.376 174.5,232.5 Z"/></g>
<g><path style="opacity:1" fill="#080808" d="M 274.5,241.5 C 278.571,241.234 282.571,241.567 286.5,242.5C 289.1,245.041 289.1,247.541 286.5,250C 282.5,250.667 278.5,250.667 274.5,250C 271.899,247.17 271.899,244.337 274.5,241.5 Z"/></g>
<g><path style="opacity:1" fill="#f8f8f8" d="M 232.5,244.5 C 246.64,249.364 249.307,257.864 240.5,270C 237.464,272.006 234.131,272.84 230.5,272.5C 230.946,263.149 231.613,253.815 232.5,244.5 Z"/></g>
<g><path style="opacity:1" fill="#a2a2a2" d="M 322.5,295.5 C 327.305,296.487 332.305,296.821 337.5,296.5C 332.32,297.815 326.986,297.815 321.5,296.5C 321.624,295.893 321.957,295.56 322.5,295.5 Z"/></g>
<g><path style="opacity:0.883" fill="#000000" d="M 89.5,346.5 C 95.5764,345.411 98.2431,347.911 97.5,354C 96.4192,368.224 94.9192,382.391 93,396.5C 86.3597,399.684 83.193,397.517 83.5,390C 84.6667,377.167 85.8333,364.333 87,351.5C 87.3661,349.548 88.1995,347.882 89.5,346.5 Z"/></g>
<g><path style="opacity:0.884" fill="#000000" d="M 163.5,352.5 C 167.637,352.428 169.97,354.428 170.5,358.5C 168.852,372.794 167.352,387.127 166,401.5C 165.242,403.91 163.575,404.91 161,404.5C 156.987,404.355 155.154,402.189 155.5,398C 156.94,383.826 158.44,369.659 160,355.5C 161.145,354.364 162.312,353.364 163.5,352.5 Z"/></g>
<g><path style="opacity:0.883" fill="#000000" d="M 234.5,359.5 C 239.674,359.009 242.34,361.342 242.5,366.5C 241.27,380.536 239.77,394.536 238,408.5C 235.339,411.966 232.339,412.299 229,409.5C 228.974,394.118 229.974,378.785 232,363.5C 232.662,362.016 233.496,360.683 234.5,359.5 Z"/></g>
<g><path style="opacity:0.882" fill="#000000" d="M 124.5,366.5 C 129.741,365.61 132.408,367.777 132.5,373C 131.06,387.174 129.56,401.341 128,415.5C 123.371,419.802 119.871,418.969 117.5,413C 119.119,398.525 120.619,384.025 122,369.5C 122.698,368.309 123.531,367.309 124.5,366.5 Z"/></g>
<g><path style="opacity:0.88" fill="#000000" d="M 306.5,366.5 C 313.077,365.578 315.744,368.412 314.5,375C 313.598,388.921 312.098,402.754 310,416.5C 303.831,419.493 300.664,417.493 300.5,410.5C 301.697,397.836 302.863,385.169 304,372.5C 304.236,370.189 305.069,368.189 306.5,366.5 Z"/></g>
<g><path style="opacity:0.893" fill="#000000" d="M 196.5,373.5 C 202.576,372.411 205.243,374.911 204.5,381C 203.333,393.833 202.167,406.667 201,419.5C 200.574,422.761 198.741,424.428 195.5,424.5C 191.091,424.016 189.425,421.516 190.5,417C 191.667,404.167 192.833,391.333 194,378.5C 194.366,376.548 195.199,374.882 196.5,373.5 Z"/></g>
<g><path style="opacity:0.883" fill="#000000" d="M 269.5,379.5 C 273.747,379.118 276.414,380.951 277.5,385C 275.881,399.475 274.381,413.975 273,428.5C 270.162,432.035 266.995,432.368 263.5,429.5C 263.665,413.837 264.832,398.17 267,382.5C 268.045,381.627 268.878,380.627 269.5,379.5 Z"/></g>
<g><path style="opacity:0.883" fill="#000000" d="M 341.5,386.5 C 347.275,385.275 349.941,387.608 349.5,393.5C 348.371,407.924 346.705,422.257 344.5,436.5C 341.706,439.1 338.873,439.1 336,436.5C 336.07,421.126 337.07,405.792 339,390.5C 339.662,389.016 340.496,387.683 341.5,386.5 Z"/></g>
</svg>
