<?xml version="1.0" encoding="UTF-8"?>
<!DOCTYPE svg PUBLIC "-//W3C//DTD SVG 1.1//EN" "http://www.w3.org/Graphics/SVG/1.1/DTD/svg11.dtd">
<svg xmlns="http://www.w3.org/2000/svg" version="1.1" width="500px" height="500px" style="shape-rendering:geometricPrecision; text-rendering:geometricPrecision; image-rendering:optimizeQuality; fill-rule:evenodd; clip-rule:evenodd" xmlns:xlink="http://www.w3.org/1999/xlink">
<g><path style="opacity:1" fill="#efeeee" d="M 135.5,30.5 C 145.715,36.867 155.548,43.867 165,51.5C 165.604,55.4154 164.437,58.7488 161.5,61.5C 159.366,65.1576 156.533,68.4909 153,71.5C 145.327,84.0665 136.66,96.0665 127,107.5C 126.64,109.608 125.973,111.608 125,113.5C 119.448,120.683 113.948,127.683 108.5,134.5C 106.712,134.785 105.045,134.452 103.5,133.5C 95.0651,127.267 86.3984,121.1 77.5,115C 76.7476,114.329 76.4142,113.496 76.5,112.5C 95.4236,84.585 115.09,57.2517 135.5,30.5 Z"/></g>
<g><path style="opacity:1" fill="#667891" d="M 135.5,30.5 C 115.09,57.2517 95.4236,84.585 76.5,112.5C 75.7281,113.694 74.7281,114.694 73.5,115.5C 71.6464,115.858 69.6464,115.358 67.5,114C 62.4051,110.039 57.2384,106.206 52,102.5C 48.3871,102.906 46.3871,104.906 46,108.5C 45.3292,107.748 44.4959,107.414 43.5,107.5C 67.0896,72.5693 97.7562,45.9026 135.5,27.5C 135.5,28.5 135.5,29.5 135.5,30.5 Z"/></g>
<g><path style="opacity:1" fill="#f6ce9b" d="M 161.5,61.5 C 161.389,62.1174 161.056,62.6174 160.5,63C 163.02,64.6971 165.353,66.5305 167.5,68.5C 168.989,70.6451 169.989,72.9785 170.5,75.5C 172.527,75.3379 174.527,75.5045 176.5,76C 178.827,78.1417 180.493,80.6417 181.5,83.5C 183.936,83.317 186.103,83.9837 188,85.5C 188.674,84.4216 189.674,83.7549 191,83.5C 196.455,84.5889 201.955,85.2556 207.5,85.5C 207.833,85.5 208.167,85.5 208.5,85.5C 214.207,88.8197 220.541,90.8197 227.5,91.5C 254.459,98.205 279.793,108.705 303.5,123C 316.659,136.812 326.659,152.646 333.5,170.5C 334.977,184.493 336.811,198.493 339,212.5C 339.708,213.381 340.542,214.047 341.5,214.5C 341.5,215.167 341.5,215.833 341.5,216.5C 342.022,228.98 343.356,241.313 345.5,253.5C 334.517,247.528 323.517,241.528 312.5,235.5C 307.992,232.747 303.659,229.747 299.5,226.5C 300.873,226.657 302.207,226.49 303.5,226C 301.914,220.724 300.081,215.557 298,210.5C 295.976,181.928 281.809,162.095 255.5,151C 240.559,147.578 225.559,147.078 210.5,149.5C 197.908,155.006 191.575,164.673 191.5,178.5C 190.431,181.408 190.264,184.408 191,187.5C 195.155,199.786 199.155,212.119 203,224.5C 205.846,230.022 209.346,235.022 213.5,239.5C 220.556,250.731 226.556,262.398 231.5,274.5C 231.5,275.5 231.5,276.5 231.5,277.5C 232.81,282.076 233.81,286.743 234.5,291.5C 234.5,294.833 234.5,298.167 234.5,301.5C 231.281,300.287 228.615,298.287 226.5,295.5C 225.571,294.311 225.238,292.978 225.5,291.5C 223.095,290.313 220.761,288.813 218.5,287C 210.622,278.958 202.956,270.791 195.5,262.5C 192.771,261.938 191.271,260.272 191,257.5C 188.665,254.639 185.832,252.473 182.5,251C 180.443,247.277 177.443,244.61 173.5,243C 165.657,236.131 159.657,227.965 155.5,218.5C 153.476,216.31 151.643,213.977 150,211.5C 146.695,203.723 143.528,195.89 140.5,188C 138.394,186.3 136.894,184.133 136,181.5C 132.657,169.133 127.657,157.466 121,146.5C 117.234,143.006 113.068,140.006 108.5,137.5C 107.145,139.521 105.479,141.188 103.5,142.5C 105.14,139.851 106.807,137.184 108.5,134.5C 113.948,127.683 119.448,120.683 125,113.5C 125.973,111.608 126.64,109.608 127,107.5C 136.66,96.0665 145.327,84.0665 153,71.5C 156.533,68.4909 159.366,65.1576 161.5,61.5 Z"/></g>
<g><path style="opacity:1" fill="#fbc59d" d="M 167.5,68.5 C 172.444,71.6452 177.444,74.8118 182.5,78C 190.997,80.3686 199.331,82.8686 207.5,85.5C 201.955,85.2556 196.455,84.5889 191,83.5C 189.674,83.7549 188.674,84.4216 188,85.5C 186.103,83.9837 183.936,83.317 181.5,83.5C 180.493,80.6417 178.827,78.1417 176.5,76C 174.527,75.5045 172.527,75.3379 170.5,75.5C 169.989,72.9785 168.989,70.6451 167.5,68.5 Z"/></g>
<g><path style="opacity:1" fill="#fdb69c" d="M 208.5,85.5 C 215.168,86.7446 221.501,88.7446 227.5,91.5C 220.541,90.8197 214.207,88.8197 208.5,85.5 Z"/></g>
<g><path style="opacity:1" fill="#506781" d="M 73.5,115.5 C 65.5225,127.468 57.1892,139.135 48.5,150.5C 45.6631,151.616 42.9964,151.116 40.5,149C 35.3336,145.327 30.3336,141.494 25.5,137.5C 31.0082,127.141 37.0082,117.141 43.5,107.5C 44.4959,107.414 45.3292,107.748 46,108.5C 46.3871,104.906 48.3871,102.906 52,102.5C 57.2384,106.206 62.4051,110.039 67.5,114C 69.6464,115.358 71.6464,115.858 73.5,115.5 Z"/></g>
<g><path style="opacity:1" fill="#dddbdc" d="M 76.5,112.5 C 76.4142,113.496 76.7476,114.329 77.5,115C 86.3984,121.1 95.0651,127.267 103.5,133.5C 105.045,134.452 106.712,134.785 108.5,134.5C 106.807,137.184 105.14,139.851 103.5,142.5C 103.5,143.167 103.167,143.5 102.5,143.5C 99.0978,148.106 95.2645,152.439 91,156.5C 90.3923,158.154 89.8923,159.821 89.5,161.5C 89.5,161.833 89.5,162.167 89.5,162.5C 87.5346,166.299 84.7013,169.299 81,171.5C 70.9013,165.071 61.068,158.238 51.5,151C 50.552,150.517 49.552,150.351 48.5,150.5C 57.1892,139.135 65.5225,127.468 73.5,115.5C 74.7281,114.694 75.7281,113.694 76.5,112.5 Z"/></g>
<g><path style="opacity:1" fill="#ebb87e" d="M 234.5,301.5 C 233.606,305.468 232.773,309.468 232,313.5C 231.147,315.125 230.147,315.458 229,314.5C 228.506,316.134 228.34,317.801 228.5,319.5C 226.806,321.861 224.806,323.861 222.5,325.5C 219.15,325.665 215.817,325.498 212.5,325C 210.63,322.96 208.63,321.127 206.5,319.5C 199.461,310.954 191.794,302.787 183.5,295C 181.417,295.559 180.084,297.059 179.5,299.5C 178.167,300.833 176.833,302.167 175.5,303.5C 175.443,302.391 175.11,301.391 174.5,300.5C 174.5,298.833 174.5,297.167 174.5,295.5C 176.288,295.785 177.955,295.452 179.5,294.5C 178.219,288.889 174.885,285.222 169.5,283.5C 168.957,280.962 167.957,278.628 166.5,276.5C 165.206,274.672 164.206,272.672 163.5,270.5C 161.022,269.805 159.022,268.305 157.5,266C 156.207,265.51 154.873,265.343 153.5,265.5C 152.508,265.672 151.842,265.338 151.5,264.5C 151.938,264.565 152.272,264.399 152.5,264C 148.933,259.003 145.266,254.17 141.5,249.5C 138.904,244.987 136.904,240.32 135.5,235.5C 134.5,235.5 133.5,235.5 132.5,235.5C 130.992,233.819 129.992,231.819 129.5,229.5C 126.242,220.896 123.076,212.229 120,203.5C 118.647,201.12 117.481,198.62 116.5,196C 115.535,194.025 114.201,192.525 112.5,191.5C 109.162,180.972 103.162,172.138 94.5,165C 92.9221,163.906 91.2554,163.072 89.5,162.5C 89.5,162.167 89.5,161.833 89.5,161.5C 91.4628,160.04 93.2962,158.373 95,156.5C 97.2259,151.965 99.7259,147.632 102.5,143.5C 103.167,143.5 103.5,143.167 103.5,142.5C 105.479,141.188 107.145,139.521 108.5,137.5C 113.068,140.006 117.234,143.006 121,146.5C 127.657,157.466 132.657,169.133 136,181.5C 136.894,184.133 138.394,186.3 140.5,188C 143.528,195.89 146.695,203.723 150,211.5C 151.643,213.977 153.476,216.31 155.5,218.5C 159.657,227.965 165.657,236.131 173.5,243C 177.443,244.61 180.443,247.277 182.5,251C 185.832,252.473 188.665,254.639 191,257.5C 191.271,260.272 192.771,261.938 195.5,262.5C 202.956,270.791 210.622,278.958 218.5,287C 220.761,288.813 223.095,290.313 225.5,291.5C 225.238,292.978 225.571,294.311 226.5,295.5C 228.615,298.287 231.281,300.287 234.5,301.5 Z"/></g>
<g><path style="opacity:1" fill="#ebb87e" d="M 299.5,226.5 C 286.743,220.287 274.41,213.287 262.5,205.5C 259.607,203.886 256.607,202.553 253.5,201.5C 253.119,200.069 252.119,199.236 250.5,199C 247.854,198.503 245.187,198.336 242.5,198.5C 247.558,196.826 252.392,197.492 257,200.5C 258.011,200.108 258.511,199.441 258.5,198.5C 260.405,200.058 261.239,199.725 261,197.5C 248.64,182.735 232.807,174.402 213.5,172.5C 205.25,171.477 197.917,173.477 191.5,178.5C 191.575,164.673 197.908,155.006 210.5,149.5C 225.559,147.078 240.559,147.578 255.5,151C 281.809,162.095 295.976,181.928 298,210.5C 300.081,215.557 301.914,220.724 303.5,226C 302.207,226.49 300.873,226.657 299.5,226.5 Z"/></g>
<g><path style="opacity:1" fill="#e7cfb7" d="M 102.5,143.5 C 99.7259,147.632 97.2259,151.965 95,156.5C 93.2962,158.373 91.4628,160.04 89.5,161.5C 89.8923,159.821 90.3923,158.154 91,156.5C 95.2645,152.439 99.0978,148.106 102.5,143.5 Z"/></g>
<g><path style="opacity:1" fill="#d59a66" d="M 213.5,172.5 C 215.063,184.949 218.897,196.616 225,207.5C 226.569,211.148 226.736,214.814 225.5,218.5C 221.233,225.371 217.233,232.371 213.5,239.5C 209.346,235.022 205.846,230.022 203,224.5C 199.155,212.119 195.155,199.786 191,187.5C 190.264,184.408 190.431,181.408 191.5,178.5C 197.917,173.477 205.25,171.477 213.5,172.5 Z"/></g>
<g><path style="opacity:1" fill="#e3a970" d="M 213.5,172.5 C 232.807,174.402 248.64,182.735 261,197.5C 261.239,199.725 260.405,200.058 258.5,198.5C 258.511,199.441 258.011,200.108 257,200.5C 252.392,197.492 247.558,196.826 242.5,198.5C 239.284,199.065 236.951,200.732 235.5,203.5C 233.925,205.525 232.092,207.525 230,209.5C 228.981,212.872 227.481,215.872 225.5,218.5C 226.736,214.814 226.569,211.148 225,207.5C 218.897,196.616 215.063,184.949 213.5,172.5 Z"/></g>
<g><path style="opacity:1" fill="#509d46" d="M 242.5,198.5 C 245.187,198.336 247.854,198.503 250.5,199C 252.119,199.236 253.119,200.069 253.5,201.5C 247.199,199.774 241.199,200.441 235.5,203.5C 236.951,200.732 239.284,199.065 242.5,198.5 Z"/></g>
<g><path style="opacity:1" fill="#1ca847" d="M 253.5,201.5 C 256.607,202.553 259.607,203.886 262.5,205.5C 263.433,208.37 265.1,210.704 267.5,212.5C 263.035,215.131 259.369,218.631 256.5,223C 250.929,233.978 245.263,244.812 239.5,255.5C 238.624,255.369 237.957,255.702 237.5,256.5C 235.167,261.167 232.833,265.833 230.5,270.5C 231.246,271.736 231.579,273.07 231.5,274.5C 226.556,262.398 220.556,250.731 213.5,239.5C 217.233,232.371 221.233,225.371 225.5,218.5C 227.481,215.872 228.981,212.872 230,209.5C 232.092,207.525 233.925,205.525 235.5,203.5C 241.199,200.441 247.199,199.774 253.5,201.5 Z"/></g>
<g><path style="opacity:1" fill="#febd9f" d="M 333.5,170.5 C 334.887,172.877 335.721,175.543 336,178.5C 337.51,190.561 339.344,202.561 341.5,214.5C 340.542,214.047 339.708,213.381 339,212.5C 336.811,198.493 334.977,184.493 333.5,170.5 Z"/></g>
<g><path style="opacity:1" fill="#faa785" d="M 112.5,191.5 C 114.201,192.525 115.535,194.025 116.5,196C 117.481,198.62 118.647,201.12 120,203.5C 123.076,212.229 126.242,220.896 129.5,229.5C 123.075,217.245 117.408,204.578 112.5,191.5 Z"/></g>
<g><path style="opacity:1" fill="#25b657" d="M 262.5,205.5 C 274.41,213.287 286.743,220.287 299.5,226.5C 303.659,229.747 307.992,232.747 312.5,235.5C 310.184,234.84 307.851,234.173 305.5,233.5C 302.378,234.444 300.378,233.11 299.5,229.5C 298,228.5 296.5,227.5 295,226.5C 289.459,232.21 283.959,238.043 278.5,244C 271.732,247.779 264.732,251.112 257.5,254C 251.577,255.304 245.577,255.804 239.5,255.5C 245.263,244.812 250.929,233.978 256.5,223C 259.369,218.631 263.035,215.131 267.5,212.5C 265.1,210.704 263.433,208.37 262.5,205.5 Z"/></g>
<g><path style="opacity:1" fill="#31cb64" d="M 312.5,235.5 C 323.517,241.528 334.517,247.528 345.5,253.5C 345.833,253.5 346.167,253.5 346.5,253.5C 346.833,254.167 347.167,254.833 347.5,255.5C 352.715,260.946 359.049,264.613 366.5,266.5C 366.833,266.5 367.167,266.5 367.5,266.5C 371.282,271.237 376.282,274.237 382.5,275.5C 382.833,275.5 383.167,275.5 383.5,275.5C 387.716,280.305 393.049,283.639 399.5,285.5C 402.789,288.82 406.789,291.153 411.5,292.5C 413.153,292.66 414.486,293.326 415.5,294.5C 416.478,296.812 418.145,298.478 420.5,299.5C 425.253,302.054 429.919,304.887 434.5,308C 435.793,308.49 437.127,308.657 438.5,308.5C 440.5,309.833 442.5,311.167 444.5,312.5C 442.864,313.749 441.697,315.416 441,317.5C 431.929,345.586 437.762,370.086 458.5,391C 461.257,391.938 463.59,393.438 465.5,395.5C 465.5,396.833 465.5,398.167 465.5,399.5C 463.484,400.486 462.151,402.153 461.5,404.5C 460.914,404.291 460.414,403.957 460,403.5C 459.505,405.473 459.338,407.473 459.5,409.5C 458.5,409.5 457.5,409.5 456.5,409.5C 456.5,411.5 456.5,413.5 456.5,415.5C 453.645,415.842 452.145,417.509 452,420.5C 451.667,420.167 451.333,419.833 451,419.5C 450.506,421.134 450.34,422.801 450.5,424.5C 449.167,424.5 447.833,424.5 446.5,424.5C 446.808,426.924 446.474,429.257 445.5,431.5C 441.873,437.392 438.54,443.392 435.5,449.5C 401.081,434.44 373.081,442.107 351.5,472.5C 349.468,471.952 348.468,470.619 348.5,468.5C 346.097,468.552 343.764,468.219 341.5,467.5C 341.714,465.856 341.38,464.356 340.5,463C 335.42,462.79 331.086,460.956 327.5,457.5C 325.223,456.579 322.89,455.913 320.5,455.5C 315.5,453.336 310.833,450.669 306.5,447.5C 304.409,443.585 301.076,441.585 296.5,441.5C 296.5,440.5 296.5,439.5 296.5,438.5C 292.503,438.171 289.169,436.504 286.5,433.5C 282.911,431.537 279.244,429.87 275.5,428.5C 275.297,426.61 275.963,425.11 277.5,424C 275.32,423.581 273.154,423.748 271,424.5C 268.73,423.14 266.23,422.473 263.5,422.5C 258.675,416.576 252.342,412.909 244.5,411.5C 239.5,409.336 234.833,406.669 230.5,403.5C 229.826,401.976 228.826,400.642 227.5,399.5C 223.87,397.842 220.203,396.508 216.5,395.5C 211.5,393.336 206.833,390.669 202.5,387.5C 202.5,386.833 202.5,386.167 202.5,385.5C 212.24,364.19 211.574,343.19 200.5,322.5C 201.195,318.819 203.195,317.819 206.5,319.5C 208.63,321.127 210.63,322.96 212.5,325C 215.817,325.498 219.15,325.665 222.5,325.5C 228.197,323.826 231.864,320.16 233.5,314.5C 233.5,314.167 233.5,313.833 233.5,313.5C 235.255,311.197 236.422,308.53 237,305.5C 238.122,307.624 239.622,309.457 241.5,311C 247.139,313.984 252.806,316.817 258.5,319.5C 265.351,317.307 267.018,313.141 263.5,307C 258.666,303.748 253.666,300.748 248.5,298C 243.473,295.38 239.64,296.547 237,301.5C 237.026,292.947 235.193,284.947 231.5,277.5C 231.5,276.5 231.5,275.5 231.5,274.5C 231.579,273.07 231.246,271.736 230.5,270.5C 232.833,265.833 235.167,261.167 237.5,256.5C 237.957,255.702 238.624,255.369 239.5,255.5C 245.577,255.804 251.577,255.304 257.5,254C 264.732,251.112 271.732,247.779 278.5,244C 283.959,238.043 289.459,232.21 295,226.5C 296.5,227.5 298,228.5 299.5,229.5C 300.378,233.11 302.378,234.444 305.5,233.5C 307.851,234.173 310.184,234.84 312.5,235.5 Z"/></g>
<g><path style="opacity:1" fill="#fdbc9d" d="M 341.5,216.5 C 344.709,228.494 346.376,240.828 346.5,253.5C 346.167,253.5 345.833,253.5 345.5,253.5C 343.356,241.313 342.022,228.98 341.5,216.5 Z"/></g>
<g><path style="opacity:1" fill="#f9a886" d="M 132.5,235.5 C 133.5,235.5 134.5,235.5 135.5,235.5C 136.904,240.32 138.904,244.987 141.5,249.5C 145.266,254.17 148.933,259.003 152.5,264C 152.272,264.399 151.938,264.565 151.5,264.5C 143.429,256.039 137.096,246.372 132.5,235.5 Z"/></g>
<g><path style="opacity:1" fill="#6baf69" d="M 347.5,255.5 C 354.332,258.412 360.666,262.079 366.5,266.5C 359.049,264.613 352.715,260.946 347.5,255.5 Z"/></g>
<g><path style="opacity:1" fill="#f3a17b" d="M 153.5,265.5 C 154.873,265.343 156.207,265.51 157.5,266C 159.022,268.305 161.022,269.805 163.5,270.5C 164.206,272.672 165.206,274.672 166.5,276.5C 164.277,277.702 161.777,278.369 159,278.5C 151.516,277.772 144.016,277.438 136.5,277.5C 135.833,277.5 135.167,277.5 134.5,277.5C 135.263,276.732 136.263,276.232 137.5,276C 146.521,275.569 155.521,275.569 164.5,276C 160.376,272.945 156.709,269.445 153.5,265.5 Z"/></g>
<g><path style="opacity:1" fill="#74ab68" d="M 367.5,266.5 C 372.701,269.263 377.701,272.263 382.5,275.5C 376.282,274.237 371.282,271.237 367.5,266.5 Z"/></g>
<g><path style="opacity:1" fill="#79a868" d="M 383.5,275.5 C 389.122,278.472 394.455,281.805 399.5,285.5C 393.049,283.639 387.716,280.305 383.5,275.5 Z"/></g>
<g><path style="opacity:1" fill="#d59966" d="M 134.5,277.5 C 135.167,277.5 135.833,277.5 136.5,277.5C 136.751,279.17 137.418,280.67 138.5,282C 142.317,284.966 146.317,287.799 150.5,290.5C 154.568,292.356 158.568,294.523 162.5,297C 166.606,297.891 170.606,299.058 174.5,300.5C 175.11,301.391 175.443,302.391 175.5,303.5C 174.682,308.148 172.682,312.148 169.5,315.5C 167.917,317.663 166.584,319.996 165.5,322.5C 153.41,319.788 142.743,314.455 133.5,306.5C 132.772,304.488 131.938,302.488 131,300.5C 129.989,299.663 128.822,299.33 127.5,299.5C 126.005,294.12 126.172,288.787 128,283.5C 129.011,282.663 130.178,282.33 131.5,282.5C 131.433,281.041 131.766,279.708 132.5,278.5C 132.842,277.662 133.508,277.328 134.5,277.5 Z"/></g>
<g><path style="opacity:1" fill="#e3a870" d="M 166.5,276.5 C 167.957,278.628 168.957,280.962 169.5,283.5C 174.885,285.222 178.219,288.889 179.5,294.5C 177.955,295.452 176.288,295.785 174.5,295.5C 174.5,297.167 174.5,298.833 174.5,300.5C 170.606,299.058 166.606,297.891 162.5,297C 158.568,294.523 154.568,292.356 150.5,290.5C 146.317,287.799 142.317,284.966 138.5,282C 137.418,280.67 136.751,279.17 136.5,277.5C 144.016,277.438 151.516,277.772 159,278.5C 161.777,278.369 164.277,277.702 166.5,276.5 Z"/></g>
<g><path style="opacity:1" fill="#78a869" d="M 399.5,285.5 C 403.836,287.332 407.836,289.665 411.5,292.5C 406.789,291.153 402.789,288.82 399.5,285.5 Z"/></g>
<g><path style="opacity:1" fill="#e3906e" d="M 132.5,278.5 C 131.766,279.708 131.433,281.041 131.5,282.5C 130.178,282.33 129.011,282.663 128,283.5C 126.172,288.787 126.005,294.12 127.5,299.5C 128.822,299.33 129.989,299.663 131,300.5C 131.938,302.488 132.772,304.488 133.5,306.5C 124.256,300.57 122.089,292.57 127,282.5C 128.451,280.536 130.284,279.203 132.5,278.5 Z"/></g>
<g><path style="opacity:1" fill="#77e494" d="M 231.5,277.5 C 235.193,284.947 237.026,292.947 237,301.5C 239.64,296.547 243.473,295.38 248.5,298C 253.666,300.748 258.666,303.748 263.5,307C 267.018,313.141 265.351,317.307 258.5,319.5C 252.806,316.817 247.139,313.984 241.5,311C 239.622,309.457 238.122,307.624 237,305.5C 236.422,308.53 235.255,311.197 233.5,313.5C 234.966,309.217 235.633,304.717 235.5,300C 235.498,296.979 235.164,294.146 234.5,291.5C 233.81,286.743 232.81,282.076 231.5,277.5 Z"/></g>
<g><path style="opacity:1" fill="#16a846" d="M 306.5,298.5 C 307.239,298.369 307.906,298.536 308.5,299C 300.223,306.525 295.723,316.025 295,327.5C 294.333,332.833 294.333,338.167 295,343.5C 296.176,348.203 297.342,352.87 298.5,357.5C 294.922,359.902 293.755,363.235 295,367.5C 296.873,369.709 299.04,371.542 301.5,373C 299.735,378.635 301.735,382.135 307.5,383.5C 309.981,383.187 312.147,382.187 314,380.5C 315.766,381.233 317.599,381.567 319.5,381.5C 325.614,383.588 331.948,385.421 338.5,387C 344.833,387.667 351.167,387.667 357.5,387C 359.053,384.86 360.053,385.027 360.5,387.5C 337.415,405.926 313.415,407.093 288.5,391C 266.326,368.408 263.493,343.574 280,316.5C 287.122,307.861 295.955,301.861 306.5,298.5 Z"/></g>
<g><path style="opacity:1" fill="#63b568" d="M 415.5,294.5 C 423.302,298.568 430.968,302.902 438.5,307.5C 438.5,307.833 438.5,308.167 438.5,308.5C 437.127,308.657 435.793,308.49 434.5,308C 429.919,304.887 425.253,302.054 420.5,299.5C 418.145,298.478 416.478,296.812 415.5,294.5 Z"/></g>
<g><path style="opacity:1" fill="#809c64" d="M 438.5,307.5 C 442.201,309.012 445.534,311.012 448.5,313.5C 447.391,313.443 446.391,313.11 445.5,312.5C 445.167,312.5 444.833,312.5 444.5,312.5C 442.5,311.167 440.5,309.833 438.5,308.5C 438.5,308.167 438.5,307.833 438.5,307.5 Z"/></g>
<g><path style="opacity:1" fill="#1aa746" d="M 179.5,299.5 C 180.306,300.997 180.972,302.664 181.5,304.5C 185.644,307.476 189.644,310.643 193.5,314C 196.374,316.26 198.374,319.093 199.5,322.5C 196.43,328.54 193.43,334.54 190.5,340.5C 186.851,346.962 182.684,352.962 178,358.5C 177.283,363.22 177.45,367.886 178.5,372.5C 177.167,372.167 175.833,371.833 174.5,371.5C 169.062,368.947 163.729,366.113 158.5,363C 156.21,361.223 154.543,359.056 153.5,356.5C 153.5,353.833 153.5,351.167 153.5,348.5C 154.163,346.958 154.83,345.291 155.5,343.5C 156.85,341.265 158.35,339.932 160,339.5C 160.744,336.11 161.577,332.777 162.5,329.5C 166.379,325.743 168.712,321.076 169.5,315.5C 172.682,312.148 174.682,308.148 175.5,303.5C 176.833,302.167 178.167,300.833 179.5,299.5 Z"/></g>
<g><path style="opacity:1" fill="#ccc683" d="M 234.5,291.5 C 235.164,294.146 235.498,296.979 235.5,300C 235.633,304.717 234.966,309.217 233.5,313.5C 233.5,313.833 233.5,314.167 233.5,314.5C 231.667,316.112 230,317.778 228.5,319.5C 228.34,317.801 228.506,316.134 229,314.5C 230.147,315.458 231.147,315.125 232,313.5C 232.773,309.468 233.606,305.468 234.5,301.5C 234.5,298.167 234.5,294.833 234.5,291.5 Z"/></g>
<g><path style="opacity:1" fill="#469a4d" d="M 445.5,312.5 C 446.391,313.11 447.391,313.443 448.5,313.5C 452.655,314.742 456.322,316.742 459.5,319.5C 456.125,319.218 452.958,318.218 450,316.5C 449.228,316.645 448.561,316.978 448,317.5C 446.628,316.09 445.795,314.423 445.5,312.5 Z"/></g>
<g><path style="opacity:1" fill="#22b558" d="M 360.5,387.5 C 360.053,385.027 359.053,384.86 357.5,387C 351.167,387.667 344.833,387.667 338.5,387C 331.948,385.421 325.614,383.588 319.5,381.5C 329.264,382.534 336.098,378.534 340,369.5C 342.798,361.431 341.131,354.431 335,348.5C 334.531,344.96 335.865,342.293 339,340.5C 348.88,345.275 353.213,342.275 352,331.5C 350.587,329.586 348.753,328.253 346.5,327.5C 345.866,318.267 341.366,315.6 333,319.5C 314.778,315.382 305.778,322.715 306,341.5C 307.497,345.165 309.497,348.498 312,351.5C 311.782,354.603 310.449,357.27 308,359.5C 305.114,357.775 301.948,357.108 298.5,357.5C 297.342,352.87 296.176,348.203 295,343.5C 294.333,338.167 294.333,332.833 295,327.5C 295.723,316.025 300.223,306.525 308.5,299C 307.906,298.536 307.239,298.369 306.5,298.5C 317.637,294.685 328.97,294.519 340.5,298C 345.341,300.921 350.341,303.588 355.5,306C 360.055,311.215 364.555,316.382 369,321.5C 378.244,338.119 378.911,355.119 371,372.5C 367.573,377.788 364.073,382.788 360.5,387.5 Z"/></g>
<g><path style="opacity:1" fill="#16a846" d="M 444.5,312.5 C 444.833,312.5 445.167,312.5 445.5,312.5C 445.795,314.423 446.628,316.09 448,317.5C 448.561,316.978 449.228,316.645 450,316.5C 452.958,318.218 456.125,319.218 459.5,319.5C 461.879,323.311 465.212,325.978 469.5,327.5C 464.229,336.613 461.896,346.613 462.5,357.5C 462.569,363.206 463.069,368.873 464,374.5C 466.181,379.526 468.348,384.526 470.5,389.5C 468.852,391.429 467.185,393.429 465.5,395.5C 463.59,393.438 461.257,391.938 458.5,391C 437.762,370.086 431.929,345.586 441,317.5C 441.697,315.416 442.864,313.749 444.5,312.5 Z"/></g>
<g><path style="opacity:1" fill="#82c26d" d="M 233.5,314.5 C 231.864,320.16 228.197,323.826 222.5,325.5C 224.806,323.861 226.806,321.861 228.5,319.5C 230,317.778 231.667,316.112 233.5,314.5 Z"/></g>
<g><path style="opacity:1" fill="#5f9b52" d="M 169.5,315.5 C 168.712,321.076 166.379,325.743 162.5,329.5C 163.227,327.046 164.227,324.713 165.5,322.5C 166.584,319.996 167.917,317.663 169.5,315.5 Z"/></g>
<g><path style="opacity:1" fill="#23b557" d="M 206.5,319.5 C 203.195,317.819 201.195,318.819 200.5,322.5C 211.574,343.19 212.24,364.19 202.5,385.5C 198.053,382.774 193.387,380.274 188.5,378C 189.552,376.284 188.886,375.284 186.5,375C 185.395,370.774 184.062,370.607 182.5,374.5C 181.476,373.147 180.143,372.48 178.5,372.5C 177.45,367.886 177.283,363.22 178,358.5C 182.684,352.962 186.851,346.962 190.5,340.5C 193.43,334.54 196.43,328.54 199.5,322.5C 198.374,319.093 196.374,316.26 193.5,314C 189.644,310.643 185.644,307.476 181.5,304.5C 180.972,302.664 180.306,300.997 179.5,299.5C 180.084,297.059 181.417,295.559 183.5,295C 191.794,302.787 199.461,310.954 206.5,319.5 Z"/></g>
<g><path style="opacity:1" fill="#22b557" d="M 469.5,327.5 C 471.216,328.971 473.216,329.971 475.5,330.5C 475.48,332.143 476.147,333.476 477.5,334.5C 479.5,335.5 481.5,336.5 483.5,337.5C 484.864,336.957 486.197,336.79 487.5,337C 489.926,340.224 491.593,343.724 492.5,347.5C 490.78,351.4 489.447,355.4 488.5,359.5C 487.5,359.5 486.5,359.5 485.5,359.5C 485.762,358.022 485.429,356.689 484.5,355.5C 483.294,357.484 483.294,359.484 484.5,361.5C 483.41,365.987 482.076,370.32 480.5,374.5C 476.791,376.223 474.791,379.223 474.5,383.5C 473.5,383.5 472.5,383.5 471.5,383.5C 471.795,385.735 471.461,387.735 470.5,389.5C 468.348,384.526 466.181,379.526 464,374.5C 463.069,368.873 462.569,363.206 462.5,357.5C 461.896,346.613 464.229,336.613 469.5,327.5 Z"/></g>
<g><path style="opacity:1" fill="#79e79a" d="M 319.5,381.5 C 317.599,381.567 315.766,381.233 314,380.5C 312.147,382.187 309.981,383.187 307.5,383.5C 301.735,382.135 299.735,378.635 301.5,373C 299.04,371.542 296.873,369.709 295,367.5C 293.755,363.235 294.922,359.902 298.5,357.5C 301.948,357.108 305.114,357.775 308,359.5C 310.449,357.27 311.782,354.603 312,351.5C 309.497,348.498 307.497,345.165 306,341.5C 305.778,322.715 314.778,315.382 333,319.5C 341.366,315.6 345.866,318.267 346.5,327.5C 348.753,328.253 350.587,329.586 352,331.5C 353.213,342.275 348.88,345.275 339,340.5C 335.865,342.293 334.531,344.96 335,348.5C 341.131,354.431 342.798,361.431 340,369.5C 336.098,378.534 329.264,382.534 319.5,381.5 Z"/></g>
<g><path style="opacity:1" fill="#46984d" d="M 162.5,329.5 C 161.577,332.777 160.744,336.11 160,339.5C 158.35,339.932 156.85,341.265 155.5,343.5C 154.83,345.291 154.163,346.958 153.5,348.5C 153.5,347.5 153.5,346.5 153.5,345.5C 155.471,339.554 158.471,334.221 162.5,329.5 Z"/></g>
<g><path style="opacity:1" fill="#6f8c58" d="M 153.5,345.5 C 153.5,346.5 153.5,347.5 153.5,348.5C 153.5,351.167 153.5,353.833 153.5,356.5C 150.989,352.808 150.989,349.142 153.5,345.5 Z"/></g>
<g><path style="opacity:1" fill="#4eb76d" d="M 459.5,319.5 C 470.891,325.278 481.724,331.945 492,339.5C 493.734,343.017 494.401,346.684 494,350.5C 490.246,359.016 485.746,367.016 480.5,374.5C 482.076,370.32 483.41,365.987 484.5,361.5C 483.294,359.484 483.294,357.484 484.5,355.5C 485.429,356.689 485.762,358.022 485.5,359.5C 486.5,359.5 487.5,359.5 488.5,359.5C 489.447,355.4 490.78,351.4 492.5,347.5C 491.593,343.724 489.926,340.224 487.5,337C 486.197,336.79 484.864,336.957 483.5,337.5C 481.5,336.5 479.5,335.5 477.5,334.5C 476.147,333.476 475.48,332.143 475.5,330.5C 473.216,329.971 471.216,328.971 469.5,327.5C 465.212,325.978 461.879,323.311 459.5,319.5 Z"/></g>
<g><path style="opacity:1" fill="#51a65c" d="M 174.5,371.5 C 175.833,371.833 177.167,372.167 178.5,372.5C 180.143,372.48 181.476,373.147 182.5,374.5C 184.062,370.607 185.395,370.774 186.5,375C 188.886,375.284 189.552,376.284 188.5,378C 193.387,380.274 198.053,382.774 202.5,385.5C 202.5,386.167 202.5,386.833 202.5,387.5C 192.833,382.669 183.5,377.336 174.5,371.5 Z"/></g>
<g><path style="opacity:1" fill="#78e999" d="M 385.5,379.5 C 394.009,381.506 401.509,385.506 408,391.5C 409.626,398.773 406.793,401.94 399.5,401C 392.574,398.292 386.408,394.459 381,389.5C 379.315,384.487 380.815,381.154 385.5,379.5 Z"/></g>
<g><path style="opacity:1" fill="#57bd79" d="M 480.5,374.5 C 476.251,383.339 471.251,391.672 465.5,399.5C 465.5,398.167 465.5,396.833 465.5,395.5C 467.185,393.429 468.852,391.429 470.5,389.5C 471.461,387.735 471.795,385.735 471.5,383.5C 472.5,383.5 473.5,383.5 474.5,383.5C 474.791,379.223 476.791,376.223 480.5,374.5 Z"/></g>
<g><path style="opacity:1" fill="#67b366" d="M 216.5,395.5 C 220.203,396.508 223.87,397.842 227.5,399.5C 228.826,400.642 229.826,401.976 230.5,403.5C 225.5,401.336 220.833,398.669 216.5,395.5 Z"/></g>
<g><path style="opacity:1" fill="#55cb7b" d="M 465.5,399.5 C 463.003,405.165 460.003,410.498 456.5,415.5C 456.5,413.5 456.5,411.5 456.5,409.5C 457.5,409.5 458.5,409.5 459.5,409.5C 459.338,407.473 459.505,405.473 460,403.5C 460.414,403.957 460.914,404.291 461.5,404.5C 462.151,402.153 463.484,400.486 465.5,399.5 Z"/></g>
<g><path style="opacity:1" fill="#63b468" d="M 244.5,411.5 C 252.342,412.909 258.675,416.576 263.5,422.5C 256.668,419.588 250.334,415.921 244.5,411.5 Z"/></g>
<g><path style="opacity:1" fill="#5eb868" d="M 263.5,422.5 C 266.23,422.473 268.73,423.14 271,424.5C 273.154,423.748 275.32,423.581 277.5,424C 275.963,425.11 275.297,426.61 275.5,428.5C 279.244,429.87 282.911,431.537 286.5,433.5C 289.169,436.504 292.503,438.171 296.5,438.5C 296.5,439.5 296.5,440.5 296.5,441.5C 285.002,435.921 274.002,429.588 263.5,422.5 Z"/></g>
<g><path style="opacity:1" fill="#54cc7c" d="M 456.5,415.5 C 449.738,428.031 442.738,440.364 435.5,452.5C 435.5,451.5 435.5,450.5 435.5,449.5C 438.54,443.392 441.873,437.392 445.5,431.5C 446.474,429.257 446.808,426.924 446.5,424.5C 447.833,424.5 449.167,424.5 450.5,424.5C 450.34,422.801 450.506,421.134 451,419.5C 451.333,419.833 451.667,420.167 452,420.5C 452.145,417.509 453.645,415.842 456.5,415.5 Z"/></g>
<g><path style="opacity:1" fill="#64b368" d="M 296.5,441.5 C 301.076,441.585 304.409,443.585 306.5,447.5C 302.827,446 299.494,444 296.5,441.5 Z"/></g>
<g><path style="opacity:1" fill="#16a846" d="M 435.5,449.5 C 435.5,450.5 435.5,451.5 435.5,452.5C 433.956,452.703 432.622,453.37 431.5,454.5C 429.863,453.556 428.863,454.223 428.5,456.5C 420.307,457.367 412.307,459.2 404.5,462C 397.484,466.174 390.817,470.841 384.5,476C 382.729,479.28 380.729,482.446 378.5,485.5C 376.282,486.057 373.949,486.057 371.5,485.5C 369.525,482.654 366.859,480.487 363.5,479C 361.655,477.872 359.655,477.372 357.5,477.5C 355.147,476.66 353.147,475.326 351.5,473.5C 351.5,473.167 351.5,472.833 351.5,472.5C 373.081,442.107 401.081,434.44 435.5,449.5 Z"/></g>
<g><path style="opacity:1" fill="#60b768" d="M 320.5,455.5 C 322.89,455.913 325.223,456.579 327.5,457.5C 331.086,460.956 335.42,462.79 340.5,463C 341.38,464.356 341.714,465.856 341.5,467.5C 334.004,464.255 327.004,460.255 320.5,455.5 Z"/></g>
<g><path style="opacity:1" fill="#25b558" d="M 428.5,456.5 C 427.741,458.436 426.741,460.269 425.5,462C 426.547,463.578 426.547,465.078 425.5,466.5C 424.914,466.291 424.414,465.957 424,465.5C 423.338,467.813 422.838,470.146 422.5,472.5C 420.408,472.561 418.908,473.561 418,475.5C 418.574,477.776 418.408,480.109 417.5,482.5C 416.5,482.5 415.5,482.5 414.5,482.5C 414.66,484.199 414.494,485.866 414,487.5C 412.121,489.527 410.954,491.86 410.5,494.5C 409.178,494.67 408.011,494.337 407,493.5C 406.392,495.154 405.892,496.821 405.5,498.5C 405.5,498.833 405.5,499.167 405.5,499.5C 401.5,499.5 397.5,499.5 393.5,499.5C 386.167,494.833 378.833,490.167 371.5,485.5C 373.949,486.057 376.282,486.057 378.5,485.5C 380.729,482.446 382.729,479.28 384.5,476C 390.817,470.841 397.484,466.174 404.5,462C 412.307,459.2 420.307,457.367 428.5,456.5 Z"/></g>
<g><path style="opacity:1" fill="#6bb467" d="M 341.5,467.5 C 343.764,468.219 346.097,468.552 348.5,468.5C 348.468,470.619 349.468,471.952 351.5,472.5C 351.5,472.833 351.5,473.167 351.5,473.5C 347.827,472 344.494,470 341.5,467.5 Z"/></g>
<g><path style="opacity:1" fill="#47b86c" d="M 435.5,452.5 C 427.437,466.284 419.604,480.284 412,494.5C 410.362,496.734 408.195,498.067 405.5,498.5C 405.892,496.821 406.392,495.154 407,493.5C 408.011,494.337 409.178,494.67 410.5,494.5C 410.954,491.86 412.121,489.527 414,487.5C 414.494,485.866 414.66,484.199 414.5,482.5C 415.5,482.5 416.5,482.5 417.5,482.5C 418.408,480.109 418.574,477.776 418,475.5C 418.908,473.561 420.408,472.561 422.5,472.5C 422.838,470.146 423.338,467.813 424,465.5C 424.414,465.957 424.914,466.291 425.5,466.5C 426.547,465.078 426.547,463.578 425.5,462C 426.741,460.269 427.741,458.436 428.5,456.5C 428.863,454.223 429.863,453.556 431.5,454.5C 432.622,453.37 433.956,452.703 435.5,452.5 Z"/></g>
<g><path style="opacity:1" fill="#5cb978" d="M 357.5,477.5 C 359.655,477.372 361.655,477.872 363.5,479C 366.859,480.487 369.525,482.654 371.5,485.5C 366.5,483.336 361.833,480.669 357.5,477.5 Z"/></g>
</svg>
