<?xml version="1.0" encoding="UTF-8"?>
<!DOCTYPE svg PUBLIC "-//W3C//DTD SVG 1.1//EN" "http://www.w3.org/Graphics/SVG/1.1/DTD/svg11.dtd">
<svg xmlns="http://www.w3.org/2000/svg" version="1.1" width="512px" height="512px" style="shape-rendering:geometricPrecision; text-rendering:geometricPrecision; image-rendering:optimizeQuality; fill-rule:evenodd; clip-rule:evenodd" xmlns:xlink="http://www.w3.org/1999/xlink">
<g><path style="opacity:0.986" fill="#020201" d="M 375.5,-0.5 C 379.5,-0.5 383.5,-0.5 387.5,-0.5C 390.386,0.879222 392.886,2.87922 395,5.5C 419.333,57.5 443.667,109.5 468,161.5C 483.345,165.194 492.011,174.861 494,190.5C 494.667,212.167 494.667,233.833 494,255.5C 493.097,259.531 490.597,261.531 486.5,261.5C 482.808,261.062 480.308,259.062 479,255.5C 478.5,243.838 478.333,232.171 478.5,220.5C 463.167,220.5 447.833,220.5 432.5,220.5C 293.833,220.5 155.167,220.5 16.5,220.5C 16.5,298.167 16.5,375.833 16.5,453.5C 155.167,453.5 293.833,453.5 432.5,453.5C 447.833,453.5 463.167,453.5 478.5,453.5C 478.333,441.495 478.5,429.495 479,417.5C 480.913,414.72 483.413,413.053 486.5,412.5C 491.061,412.56 493.561,414.893 494,419.5C 494.667,440.833 494.667,462.167 494,483.5C 492.411,497.72 484.911,507.054 471.5,511.5C 322.5,511.5 173.5,511.5 24.5,511.5C 12.7539,507.584 5.25389,499.584 2,487.5C 1.33333,387.167 1.33333,286.833 2,186.5C 6.98653,169.249 18.4865,161.249 36.5,162.5C 33.5053,113.338 55.172,80.5048 101.5,64C 134.715,56.1713 163.882,63.6713 189,86.5C 251.318,57.5882 313.484,28.5882 375.5,-0.5 Z"/></g>
<g><path style="opacity:1" fill="#4ca94c" d="M 341.5,42.5 C 341.585,39.3511 340.585,36.6845 338.5,34.5C 352.076,28.0478 365.742,21.5478 379.5,15C 380.784,14.3162 381.951,14.4829 383,15.5C 405.403,64.209 427.903,112.876 450.5,161.5C 447.291,162.787 444.125,162.787 441,161.5C 425.273,127.046 409.273,92.7131 393,58.5C 390.867,56.1465 388.2,55.1465 385,55.5C 376.249,57.762 368.082,56.5953 360.5,52C 357.266,48.8554 354.266,45.5221 351.5,42C 347.975,39.8723 344.642,40.0389 341.5,42.5 Z"/></g>
<g><path style="opacity:1" fill="#59be59" d="M 338.5,34.5 C 340.585,36.6845 341.585,39.3511 341.5,42.5C 316.522,53.9883 291.522,65.4883 266.5,77C 262.581,79.6895 261.581,83.1895 263.5,87.5C 257.206,89.6497 251.206,92.3164 245.5,95.5C 242.751,91.8295 239.084,90.6628 234.5,92C 224.167,96.8333 213.833,101.667 203.5,106.5C 201.588,104.343 199.921,102.009 198.5,99.5C 244.939,77.2794 291.606,55.6127 338.5,34.5 Z"/></g>
<g><path style="opacity:1" fill="#92cb49" d="M 424.5,161.5 C 407.341,162.497 390.008,162.83 372.5,162.5C 359.741,135.98 347.241,109.313 335,82.5C 332.79,81.2512 330.624,81.4178 328.5,83C 318.731,84.7957 309.731,82.9624 301.5,77.5C 315.515,70.7449 329.682,64.0782 344,57.5C 354.792,68.4901 367.959,73.4901 383.5,72.5C 397.366,102.107 411.032,131.773 424.5,161.5 Z"/></g>
<g><path style="opacity:1" fill="#fa8e30" d="M 152.5,153.5 C 153.131,140.368 150.464,128.035 144.5,116.5C 150.052,116.089 152.218,113.089 151,107.5C 145.226,103.263 138.726,101.263 131.5,101.5C 132.5,96.5 130.5,94.5 125.5,95.5C 126.609,94.71 127.942,94.21 129.5,94C 123.07,86.2967 115.07,81.4634 105.5,79.5C 146.577,70.954 176.41,85.6207 195,123.5C 199.116,136.159 200.616,149.159 199.5,162.5C 184.167,162.5 168.833,162.5 153.5,162.5C 153.492,159.455 153.159,156.455 152.5,153.5 Z"/></g>
<g><path style="opacity:1" fill="#9fe356" d="M 301.5,77.5 C 309.731,82.9624 318.731,84.7957 328.5,83C 330.624,81.4178 332.79,81.2512 335,82.5C 347.241,109.313 359.741,135.98 372.5,162.5C 354.5,162.5 336.5,162.5 318.5,162.5C 300.963,134.568 275.63,122.401 242.5,126C 232.468,127.622 223.135,131.122 214.5,136.5C 213.219,131.209 211.552,126.043 209.5,121C 220.496,114.835 231.829,109.169 243.5,104C 244.991,101.379 245.658,98.5455 245.5,95.5C 251.206,92.3164 257.206,89.6497 263.5,87.5C 265.59,90.8748 268.59,92.0414 272.5,91C 281.944,86.0188 291.611,81.5188 301.5,77.5 Z"/></g>
<g><path style="opacity:1" fill="#faaf37" d="M 105.5,79.5 C 115.07,81.4634 123.07,86.2967 129.5,94C 127.942,94.21 126.609,94.71 125.5,95.5C 123.72,96.9899 123.054,98.9899 123.5,101.5C 102.909,105.35 96.4093,117.016 104,136.5C 109.353,142.012 115.687,146.012 123,148.5C 123.499,153.155 123.666,157.821 123.5,162.5C 99.5,162.5 75.5,162.5 51.5,162.5C 48.4456,125.432 63.4456,98.5983 96.5,82C 99.4318,80.8551 102.432,80.0218 105.5,79.5 Z"/></g>
<g><path style="opacity:1" fill="#f9ad37" d="M 144.5,116.5 C 150.464,128.035 153.131,140.368 152.5,153.5C 147.721,145.676 140.888,140.343 132,137.5C 131.5,129.173 131.334,120.84 131.5,112.5C 136.093,113.064 140.426,114.397 144.5,116.5 Z"/></g>
<g><path style="opacity:1" fill="#f2a935" d="M 121.5,112.5 C 122.5,112.5 123.5,112.5 124.5,112.5C 124.5,119.833 124.5,127.167 124.5,134.5C 113.633,132.346 110.467,126.346 115,116.5C 117.095,114.875 119.261,113.542 121.5,112.5 Z"/></g>
<g><path style="opacity:1" fill="#f1e6d5" d="M 242.5,140.5 C 265.198,137.84 284.198,144.84 299.5,161.5C 271.175,162.5 242.841,162.833 214.5,162.5C 213.794,158.115 215.127,154.615 218.5,152C 225.932,146.782 233.932,142.949 242.5,140.5 Z"/></g>
<g><path style="opacity:1" fill="#f5ab36" d="M 130.5,151.5 C 136.667,152.664 140,156.331 140.5,162.5C 137.167,162.5 133.833,162.5 130.5,162.5C 130.5,158.833 130.5,155.167 130.5,151.5 Z"/></g>
<g><path style="opacity:1" fill="#141d0b" d="M 424.5,161.5 C 425.043,161.56 425.376,161.893 425.5,162.5C 389.669,163.83 354.002,163.83 318.5,162.5C 336.5,162.5 354.5,162.5 372.5,162.5C 390.008,162.83 407.341,162.497 424.5,161.5 Z"/></g>
<g><path style="opacity:1" fill="#907166" d="M 27.5,178.5 C 162.5,178.5 297.5,178.5 432.5,178.5C 432.5,187.167 432.5,195.833 432.5,204.5C 294.167,204.5 155.833,204.5 17.5,204.5C 17.5,199.5 17.5,194.5 17.5,189.5C 18.7238,183.942 22.0572,180.275 27.5,178.5 Z"/></g>
<g><path style="opacity:1" fill="#80645b" d="M 27.5,178.5 C 173.666,177.334 319.999,177.167 466.5,178C 471.91,179.743 475.744,183.243 478,188.5C 478.499,193.823 478.666,199.156 478.5,204.5C 463.167,204.5 447.833,204.5 432.5,204.5C 432.5,195.833 432.5,187.167 432.5,178.5C 297.5,178.5 162.5,178.5 27.5,178.5 Z"/></g>
<g><path style="opacity:1" fill="#68524b" d="M 17.5,189.5 C 17.5,194.5 17.5,199.5 17.5,204.5C 155.833,204.5 294.167,204.5 432.5,204.5C 447.833,204.5 463.167,204.5 478.5,204.5C 324.668,205.5 170.668,205.833 16.5,205.5C 16.1786,199.974 16.5119,194.64 17.5,189.5 Z"/></g>
<g><path style="opacity:1" fill="#907166" d="M 432.5,220.5 C 432.5,240.5 432.5,260.5 432.5,280.5C 419.656,280.171 406.989,280.505 394.5,281.5C 363.908,287.095 347.241,305.428 344.5,336.5C 346.858,368.024 363.525,386.857 394.5,393C 407.162,393.5 419.829,393.667 432.5,393.5C 432.5,413.5 432.5,433.5 432.5,453.5C 293.833,453.5 155.167,453.5 16.5,453.5C 16.5,375.833 16.5,298.167 16.5,220.5C 155.167,220.5 293.833,220.5 432.5,220.5 Z"/></g>
<g><path style="opacity:1" fill="#80635b" d="M 432.5,220.5 C 447.833,220.5 463.167,220.5 478.5,220.5C 478.333,232.171 478.5,243.838 479,255.5C 480.308,259.062 482.808,261.062 486.5,261.5C 486.5,267.833 486.5,274.167 486.5,280.5C 456.005,281.498 425.338,281.831 394.5,281.5C 406.989,280.505 419.656,280.171 432.5,280.5C 432.5,260.5 432.5,240.5 432.5,220.5 Z"/></g>
<g><path style="opacity:0.99" fill="#030202" d="M 486.5,280.5 C 496.247,279.29 503.414,282.956 508,291.5C 509.143,306.602 509.643,321.769 509.5,337C 509.643,352.231 509.143,367.398 508,382.5C 503.44,391.031 496.274,394.698 486.5,393.5C 468.5,393.5 450.5,393.5 432.5,393.5C 419.829,393.667 407.162,393.5 394.5,393C 363.525,386.857 346.858,368.024 344.5,336.5C 347.241,305.428 363.908,287.095 394.5,281.5C 425.338,281.831 456.005,281.498 486.5,280.5 Z"/></g>
<g><path style="opacity:1" fill="#744f45" d="M 432.5,296.5 C 432.5,323.5 432.5,350.5 432.5,377.5C 420.167,377.5 407.833,377.5 395.5,377.5C 373.112,373.107 361.112,359.441 359.5,336.5C 360.941,317.897 370.274,305.063 387.5,298C 402.442,296.566 417.442,296.066 432.5,296.5 Z"/></g>
<g><path style="opacity:1" fill="#66453d" d="M 432.5,296.5 C 452.503,296.333 472.503,296.5 492.5,297C 493,297.5 493.5,298 494,298.5C 494.667,324.167 494.667,349.833 494,375.5C 493.167,376.333 492.333,377.167 491.5,378C 459.331,378.831 427.331,378.664 395.5,377.5C 407.833,377.5 420.167,377.5 432.5,377.5C 432.5,350.5 432.5,323.5 432.5,296.5 Z"/></g>
<g><path style="opacity:1" fill="#030202" d="M 395.5,307.5 C 419.501,307.665 431.001,319.665 430,343.5C 423.389,361.724 410.556,368.89 391.5,365C 376.897,358.635 370.397,347.468 372,331.5C 375.349,318.985 383.182,310.985 395.5,307.5 Z"/></g>
<g><path style="opacity:1" fill="#ece1d0" d="M 397.5,322.5 C 413.171,323.187 418.338,330.854 413,345.5C 406.22,352.565 398.887,353.232 391,347.5C 383.72,336.724 385.886,328.391 397.5,322.5 Z"/></g>
<g><path style="opacity:1" fill="#81645c" d="M 432.5,393.5 C 450.5,393.5 468.5,393.5 486.5,393.5C 486.5,399.833 486.5,406.167 486.5,412.5C 483.413,413.053 480.913,414.72 479,417.5C 478.5,429.495 478.333,441.495 478.5,453.5C 463.167,453.5 447.833,453.5 432.5,453.5C 432.5,433.5 432.5,413.5 432.5,393.5 Z"/></g>
<g><path style="opacity:1" fill="#56433d" d="M 478.5,469.5 C 463.167,469.5 447.833,469.5 432.5,469.5C 294.167,469.5 155.833,469.5 17.5,469.5C 17.5,474.5 17.5,479.5 17.5,484.5C 16.5119,479.36 16.1786,474.026 16.5,468.5C 170.668,468.167 324.668,468.5 478.5,469.5 Z"/></g>
<g><path style="opacity:1" fill="#907166" d="M 432.5,469.5 C 432.5,478.5 432.5,487.5 432.5,496.5C 297.5,496.667 162.5,496.5 27.5,496C 22.1466,493.82 18.8133,489.987 17.5,484.5C 17.5,479.5 17.5,474.5 17.5,469.5C 155.833,469.5 294.167,469.5 432.5,469.5 Z"/></g>
<g><path style="opacity:1" fill="#81645c" d="M 432.5,469.5 C 447.833,469.5 463.167,469.5 478.5,469.5C 479.099,476.391 478.265,483.058 476,489.5C 473.76,492.402 470.927,494.569 467.5,496C 455.838,496.5 444.171,496.667 432.5,496.5C 432.5,487.5 432.5,478.5 432.5,469.5 Z"/></g>
</svg>
