<?xml version="1.0" encoding="UTF-8"?>
<!DOCTYPE svg PUBLIC "-//W3C//DTD SVG 1.1//EN" "http://www.w3.org/Graphics/SVG/1.1/DTD/svg11.dtd">
<svg xmlns="http://www.w3.org/2000/svg" version="1.1" width="512px" height="512px" style="shape-rendering:geometricPrecision; text-rendering:geometricPrecision; image-rendering:optimizeQuality; fill-rule:evenodd; clip-rule:evenodd" xmlns:xlink="http://www.w3.org/1999/xlink">
<g><path style="opacity:0.98" fill="#64EB7E" d="M 244.5,21.5 C 261.32,19.7049 276.653,23.5382 290.5,33C 325.103,58.3005 351.603,90.4672 370,129.5C 376.519,145.577 380.853,162.244 383,179.5C 387.071,211.701 389.071,244.035 389,276.5C 413.45,295.948 434.783,318.281 453,343.5C 469.301,371.667 475.634,402 472,434.5C 470.869,449.223 466.536,462.89 459,475.5C 444.285,491.29 427.452,493.79 408.5,483C 404.89,481.056 401.557,478.723 398.5,476C 385.296,463.794 371.796,451.961 358,440.5C 350.727,459.104 337.561,471.604 318.5,478C 273.207,491.876 227.874,491.876 182.5,478C 171.461,474.293 163.628,467.126 159,456.5C 156.834,450.151 154.834,443.818 153,437.5C 138.536,449.628 124.37,462.128 110.5,475C 99.4335,484.133 86.7668,487.799 72.5,486C 60.5863,482.422 52.0863,474.922 47,463.5C 36.846,433.517 35.846,403.184 44,372.5C 48.9583,356.916 56.2916,342.583 66,329.5C 82.3333,309.167 100.667,290.833 121,274.5C 121.756,245.074 123.756,215.741 127,186.5C 136.619,137.938 156.952,94.6051 188,56.5C 202.925,38.2989 221.758,26.6322 244.5,21.5 Z"/></g>
<g><path style="opacity:1" fill="#020202" d="M 244.5,51.5 C 251.574,51.161 258.574,51.661 265.5,53C 268.834,54.3314 271.834,56.1647 274.5,58.5C 275.881,62.1461 277.548,65.6461 279.5,69C 272.33,67.3316 264.997,66.1649 257.5,65.5C 255.035,65.4777 252.702,65.9777 250.5,67C 239.699,75.9374 231.032,86.6041 224.5,99C 233.885,106.817 244.718,109.984 257,108.5C 269.996,109.309 282.163,106.643 293.5,100.5C 291.416,96.6641 289.083,92.9974 286.5,89.5C 290.147,89.7108 293.647,91.0442 297,93.5C 297.167,93.1667 297.333,92.8333 297.5,92.5C 294.04,84.9416 291.207,77.2749 289,69.5C 313.882,92.037 332.882,118.704 346,149.5C 349.697,160.927 352.364,172.593 354,184.5C 358.408,220.359 360.575,256.359 360.5,292.5C 388.94,312.773 412.774,337.439 432,366.5C 445.282,395.163 446.949,424.496 437,454.5C 435.608,457.394 433.441,459.394 430.5,460.5C 426.145,458.975 422.145,456.808 418.5,454C 407.167,443.667 395.833,433.333 384.5,423C 372.348,412.688 359.014,404.188 344.5,397.5C 339.179,400.66 333.512,402.994 327.5,404.5C 329.121,414.109 329.621,423.776 329,433.5C 324.982,441.181 318.815,446.348 310.5,449C 299.115,453.096 287.449,456.096 275.5,458C 257.471,458.866 239.471,458.533 221.5,457C 210.017,455.713 199.017,452.713 188.5,448C 186.012,444.204 184.512,440.038 184,435.5C 182.364,424.165 180.864,412.832 179.5,401.5C 175.847,399.011 172.347,396.344 169,393.5C 154.932,399.444 142.099,407.278 130.5,417C 116.797,429.705 102.797,442.039 88.5,454C 85.4463,456.208 82.1129,457.208 78.5,457C 74.8164,452.8 72.3164,447.967 71,442.5C 62.5845,406.315 69.5845,373.648 92,344.5C 109.596,323.882 129.262,305.549 151,289.5C 151.335,261.476 152.335,233.476 154,205.5C 161.573,150.191 184.74,102.691 223.5,63C 229.985,58.0936 236.985,54.2603 244.5,51.5 Z"/></g>
<g><path style="opacity:1" fill="#fdfdfd" d="M 305.5,124.5 C 321.331,154.145 330.498,185.812 333,219.5C 335.186,262.186 334.853,304.853 332,347.5C 331.259,356.024 329.592,364.357 327,372.5C 324.331,375.164 321.164,376.998 317.5,378C 291.06,385.677 264.06,388.677 236.5,387C 223.145,385.652 210.478,381.986 198.5,376C 203.454,376.52 208.454,377.186 213.5,378C 220.833,378.667 228.167,378.667 235.5,378C 233.5,376.333 231.5,374.667 229.5,373C 212.13,369.233 196.964,361.4 184,349.5C 181.473,345.779 179.473,341.779 178,337.5C 174.273,285.193 176.606,233.193 185,181.5C 187.879,161.831 195.213,144.164 207,128.5C 232.04,136.736 257.54,138.569 283.5,134C 291.459,132.077 298.792,128.91 305.5,124.5 Z"/></g>
<g><path style="opacity:1" fill="#020202" d="M 254.5,179.5 C 280.952,177.792 298.452,189.458 307,214.5C 313.851,239.825 312.851,264.825 304,289.5C 292.741,315.38 273.241,325.213 245.5,319C 220.165,309.235 205.665,290.735 202,263.5C 198.676,240.663 205.176,221.163 221.5,205C 225.525,202.486 229.859,200.819 234.5,200C 230.5,198 226.5,196 222.5,194C 232.389,187.218 243.056,182.385 254.5,179.5 Z"/></g>
<g><path style="opacity:1" fill="#f7f7f7" d="M 260.5,204.5 C 267.01,204.07 273.344,204.903 279.5,207C 248.084,217.965 231.25,240.131 229,273.5C 217.475,250.992 220.975,231.159 239.5,214C 246.11,209.69 253.11,206.523 260.5,204.5 Z"/></g>
<g><path style="opacity:1" fill="#f8f8f8" d="M 203.5,413.5 C 203.735,412.903 204.235,412.57 205,412.5C 214.935,415.61 225.102,417.276 235.5,417.5C 234.169,425.329 230.836,432.162 225.5,438C 220.38,440.506 216.214,439.339 213,434.5C 208.946,427.81 205.779,420.81 203.5,413.5 Z"/></g>
</svg>
