<?xml version="1.0" encoding="UTF-8"?>
<!DOCTYPE svg PUBLIC "-//W3C//DTD SVG 1.1//EN" "http://www.w3.org/Graphics/SVG/1.1/DTD/svg11.dtd">
<svg xmlns="http://www.w3.org/2000/svg" version="1.1" width="512px" height="512px" style="shape-rendering:geometricPrecision; text-rendering:geometricPrecision; image-rendering:optimizeQuality; fill-rule:evenodd; clip-rule:evenodd" xmlns:xlink="http://www.w3.org/1999/xlink">
<g><path style="opacity:0.995" fill="#608aa9" d="M 43.5,-0.5 C 181.5,-0.5 319.5,-0.5 457.5,-0.5C 466.898,2.403 472.731,8.73634 475,18.5C 475.667,163.167 475.667,307.833 475,452.5C 472.438,463.005 465.938,469.339 455.5,471.5C 454.167,471.5 452.833,471.5 451.5,471.5C 434.069,470.176 416.736,470.176 399.5,471.5C 309.5,471.5 219.5,471.5 129.5,471.5C 112.5,470.167 95.5,470.167 78.5,471.5C 67.8281,471.667 57.1615,471.5 46.5,471C 37.1141,469.281 31.2808,463.781 29,454.5C 28.5,431.169 28.3334,407.836 28.5,384.5C 51.3273,383.502 74.3273,383.169 97.5,383.5C 96.0813,384.451 94.4147,384.784 92.5,384.5C 87.8333,384.5 83.1667,384.5 78.5,384.5C 78.1439,392.238 78.6439,399.905 80,407.5C 83.3141,414.149 88.4808,418.649 95.5,421C 208.167,421.667 320.833,421.667 433.5,421C 442,418.5 447.5,413 450,404.5C 450.667,291.167 450.667,177.833 450,64.5C 446.674,56.5074 440.841,51.3407 432.5,49C 320.5,48.3333 208.5,48.3333 96.5,49C 88.9476,51.0219 83.4476,55.5219 80,62.5C 78.5989,70.4148 78.0989,78.4148 78.5,86.5C 61.6583,86.8298 44.9916,86.4965 28.5,85.5C 28.3334,62.1643 28.5,38.831 29,15.5C 31.5996,8.07043 36.4329,2.73709 43.5,-0.5 Z"/></g>
<g><path style="opacity:1" fill="#4e7693" d="M 457.5,-0.5 C 466.833,-0.5 476.167,-0.5 485.5,-0.5C 492.567,2.73709 497.4,8.07043 500,15.5C 500.667,162.167 500.667,308.833 500,455.5C 497.928,462.573 493.428,467.406 486.5,470C 476.232,471.399 465.898,471.899 455.5,471.5C 465.938,469.339 472.438,463.005 475,452.5C 475.667,307.833 475.667,163.167 475,18.5C 472.731,8.73634 466.898,2.403 457.5,-0.5 Z"/></g>
<g><path style="opacity:1" fill="#38627c" d="M 92.5,384.5 C 92.1392,390.593 92.6392,396.593 94,402.5C 95.7309,404.617 97.8976,406.117 100.5,407C 210.889,407.994 321.223,407.66 431.5,406C 433.81,404.363 435.31,402.196 436,399.5C 436.667,289.5 436.667,179.5 436,69.5C 434.833,67 433,65.1667 430.5,64C 319.833,63.3333 209.167,63.3333 98.5,64C 96,65.1667 94.1667,67 93,69.5C 92.5006,75.1569 92.3339,80.8236 92.5,86.5C 87.8333,86.5 83.1667,86.5 78.5,86.5C 78.0989,78.4148 78.5989,70.4148 80,62.5C 83.4476,55.5219 88.9476,51.0219 96.5,49C 208.5,48.3333 320.5,48.3333 432.5,49C 440.841,51.3407 446.674,56.5074 450,64.5C 450.667,177.833 450.667,291.167 450,404.5C 447.5,413 442,418.5 433.5,421C 320.833,421.667 208.167,421.667 95.5,421C 88.4808,418.649 83.3141,414.149 80,407.5C 78.6439,399.905 78.1439,392.238 78.5,384.5C 83.1667,384.5 87.8333,384.5 92.5,384.5 Z"/></g>
<g><path style="opacity:1" fill="#4e7693" d="M 92.5,384.5 C 94.4147,384.784 96.0813,384.451 97.5,383.5C 102.108,382.726 104.941,380.059 106,375.5C 106.667,356.5 106.667,337.5 106,318.5C 104.838,314.679 102.338,312.346 98.5,311.5C 96.7354,310.539 94.7354,310.205 92.5,310.5C 92.5,260.167 92.5,209.833 92.5,159.5C 98.9572,160.025 103.457,157.358 106,151.5C 106.667,132.167 106.667,112.833 106,93.5C 103.182,88.0526 98.6815,85.7192 92.5,86.5C 92.3339,80.8236 92.5006,75.1569 93,69.5C 94.1667,67 96,65.1667 98.5,64C 209.167,63.3333 319.833,63.3333 430.5,64C 433,65.1667 434.833,67 436,69.5C 436.667,179.5 436.667,289.5 436,399.5C 435.31,402.196 433.81,404.363 431.5,406C 321.223,407.66 210.889,407.994 100.5,407C 97.8976,406.117 95.7309,404.617 94,402.5C 92.6392,396.593 92.1392,390.593 92.5,384.5 Z"/></g>
<g><path style="opacity:0.998" fill="#a6c6d2" d="M 28.5,85.5 C 44.9916,86.4965 61.6583,86.8298 78.5,86.5C 83.1667,86.5 87.8333,86.5 92.5,86.5C 98.6815,85.7192 103.182,88.0526 106,93.5C 106.667,112.833 106.667,132.167 106,151.5C 103.457,157.358 98.9572,160.025 92.5,159.5C 87.8333,159.5 83.1667,159.5 78.5,159.5C 61.8333,159.5 45.1667,159.5 28.5,159.5C 24.4862,159.666 20.4862,159.499 16.5,159C 14,157.833 12.1667,156 11,153.5C 10.3333,133.167 10.3333,112.833 11,92.5C 12.1667,90 14,88.1667 16.5,87C 20.4183,85.8436 24.4183,85.3436 28.5,85.5 Z"/></g>
<g><path style="opacity:0.992" fill="#618aa9" d="M 28.5,159.5 C 45.1667,159.5 61.8333,159.5 78.5,159.5C 78.5,209.833 78.5,260.167 78.5,310.5C 83.1667,310.5 87.8333,310.5 92.5,310.5C 94.7354,310.205 96.7354,310.539 98.5,311.5C 74.994,311.831 51.6607,311.498 28.5,310.5C 28.5,260.167 28.5,209.833 28.5,159.5 Z"/></g>
<g><path style="opacity:1" fill="#38627c" d="M 78.5,159.5 C 83.1667,159.5 87.8333,159.5 92.5,159.5C 92.5,209.833 92.5,260.167 92.5,310.5C 87.8333,310.5 83.1667,310.5 78.5,310.5C 78.5,260.167 78.5,209.833 78.5,159.5 Z"/></g>
<g><path style="opacity:1" fill="#a6c6d2" d="M 387.5,181.5 C 380.167,189.5 372.5,197.167 364.5,204.5C 351.78,197.91 339.113,197.91 326.5,204.5C 314.106,200.227 310.106,204.227 314.5,216.5C 307.91,229.113 307.91,241.78 314.5,254.5C 307.167,262.5 299.5,270.167 291.5,277.5C 277.848,258.4 274.015,237.4 280,214.5C 294.968,178.431 321.801,163.264 360.5,169C 370.513,171.162 379.513,175.329 387.5,181.5 Z"/></g>
<g><path style="opacity:1" fill="#53dcab" d="M 236.5,174.5 C 230.491,174.334 224.491,174.501 218.5,175C 220,176.5 221.5,178 223,179.5C 223.667,217.5 223.667,255.5 223,293.5C 221.64,296.023 219.807,298.023 217.5,299.5C 212.156,299.666 206.823,299.499 201.5,299C 199.083,297.337 197.25,295.171 196,292.5C 195.333,255.167 195.333,217.833 196,180.5C 197.5,177.667 199.667,175.5 202.5,174C 214.008,173.174 225.341,173.341 236.5,174.5 Z"/></g>
<g><path style="opacity:1" fill="#1ac88d" d="M 236.5,174.5 C 239.428,175.591 241.594,177.591 243,180.5C 243.667,217.833 243.667,255.167 243,292.5C 242.214,295.583 240.381,297.749 237.5,299C 230.842,299.5 224.175,299.666 217.5,299.5C 219.807,298.023 221.64,296.023 223,293.5C 223.667,255.5 223.667,217.5 223,179.5C 221.5,178 220,176.5 218.5,175C 224.491,174.501 230.491,174.334 236.5,174.5 Z"/></g>
<g><path style="opacity:1" fill="#38627c" d="M 397.5,193.5 C 390.167,201.167 382.833,208.833 375.5,216.5C 368.833,222.5 362.5,228.833 356.5,235.5C 352.5,238.833 348.833,242.5 345.5,246.5C 338.833,252.5 332.5,258.833 326.5,265.5C 318.833,272.833 311.167,280.167 303.5,287.5C 301.734,289.771 299.734,291.937 297.5,294C 290.536,297.451 286.203,295.451 284.5,288C 284.625,286.373 285.125,284.873 286,283.5C 288.04,281.63 289.873,279.63 291.5,277.5C 299.5,270.167 307.167,262.5 314.5,254.5C 321.5,248.167 328.167,241.5 334.5,234.5C 338.167,231.5 341.5,228.167 344.5,224.5C 351.5,218.167 358.167,211.5 364.5,204.5C 372.5,197.167 380.167,189.5 387.5,181.5C 389.63,179.873 391.63,178.04 393.5,176C 402.156,173.323 405.989,176.489 405,185.5C 402.972,188.692 400.472,191.359 397.5,193.5 Z"/></g>
<g><path style="opacity:1" fill="#a6c6d2" d="M 397.5,193.5 C 398.496,193.414 399.329,193.748 400,194.5C 418.256,222.335 417.923,250.001 399,277.5C 373.562,304.823 344.062,310.323 310.5,294C 308.5,292.667 306.5,291.333 304.5,290C 303.748,289.329 303.414,288.496 303.5,287.5C 311.167,280.167 318.833,272.833 326.5,265.5C 339.031,273.392 351.697,273.392 364.5,265.5C 367.707,268.811 371.374,269.311 375.5,267C 379.465,262.761 379.465,258.595 375.5,254.5C 383.441,241.758 383.441,229.091 375.5,216.5C 382.833,208.833 390.167,201.167 397.5,193.5 Z"/></g>
<g><path style="opacity:1" fill="#4e7693" d="M 364.5,204.5 C 358.167,211.5 351.5,218.167 344.5,224.5C 338.108,218.112 332.108,211.445 326.5,204.5C 339.113,197.91 351.78,197.91 364.5,204.5 Z"/></g>
<g><path style="opacity:1" fill="#618ba9" d="M 326.5,204.5 C 332.108,211.445 338.108,218.112 344.5,224.5C 341.5,228.167 338.167,231.5 334.5,234.5C 328.112,228.108 321.445,222.108 314.5,216.5C 310.106,204.227 314.106,200.227 326.5,204.5 Z"/></g>
<g><path style="opacity:1" fill="#4e7693" d="M 314.5,216.5 C 321.445,222.108 328.112,228.108 334.5,234.5C 328.167,241.5 321.5,248.167 314.5,254.5C 307.91,241.78 307.91,229.113 314.5,216.5 Z"/></g>
<g><path style="opacity:1" fill="#4f7794" d="M 375.5,216.5 C 383.441,229.091 383.441,241.758 375.5,254.5C 368.833,248.5 362.5,242.167 356.5,235.5C 362.5,228.833 368.833,222.5 375.5,216.5 Z"/></g>
<g><path style="opacity:1" fill="#618baa" d="M 356.5,235.5 C 362.5,242.167 368.833,248.5 375.5,254.5C 379.465,258.595 379.465,262.761 375.5,267C 371.374,269.311 367.707,268.811 364.5,265.5C 358.5,258.833 352.167,252.5 345.5,246.5C 348.833,242.5 352.5,238.833 356.5,235.5 Z"/></g>
<g><path style="opacity:1" fill="#4f7794" d="M 345.5,246.5 C 352.167,252.5 358.5,258.833 364.5,265.5C 351.697,273.392 339.031,273.392 326.5,265.5C 332.5,258.833 338.833,252.5 345.5,246.5 Z"/></g>
<g><path style="opacity:0.998" fill="#a6c6d2" d="M 28.5,310.5 C 51.6607,311.498 74.994,311.831 98.5,311.5C 102.338,312.346 104.838,314.679 106,318.5C 106.667,337.5 106.667,356.5 106,375.5C 104.941,380.059 102.108,382.726 97.5,383.5C 74.3273,383.169 51.3273,383.502 28.5,384.5C 20.9103,386.145 15.077,383.812 11,377.5C 10.3333,357.167 10.3333,336.833 11,316.5C 15.4789,310.988 21.3123,308.988 28.5,310.5 Z"/></g>
<g><path style="opacity:0.989" fill="#38627c" d="M 129.5,471.5 C 129.863,479.571 129.363,487.571 128,495.5C 124.562,503.107 119.062,508.44 111.5,511.5C 106.5,511.5 101.5,511.5 96.5,511.5C 79.9662,503.329 73.9662,489.995 78.5,471.5C 95.5,470.167 112.5,470.167 129.5,471.5 Z"/></g>
<g><path style="opacity:0.986" fill="#38627c" d="M 451.5,471.5 C 451.88,479.97 451.047,488.303 449,496.5C 445.81,504.157 440.31,509.157 432.5,511.5C 427.833,511.5 423.167,511.5 418.5,511.5C 408.308,508.136 402.141,501.136 400,490.5C 399.5,484.175 399.334,477.842 399.5,471.5C 416.736,470.176 434.069,470.176 451.5,471.5 Z"/></g>
</svg>
