<?xml version="1.0" encoding="UTF-8"?>
<!DOCTYPE svg PUBLIC "-//W3C//DTD SVG 1.1//EN" "http://www.w3.org/Graphics/SVG/1.1/DTD/svg11.dtd">
<svg xmlns="http://www.w3.org/2000/svg" version="1.1" width="512px" height="512px" style="shape-rendering:geometricPrecision; text-rendering:geometricPrecision; image-rendering:optimizeQuality; fill-rule:evenodd; clip-rule:evenodd" xmlns:xlink="http://www.w3.org/1999/xlink">
<g><path style="opacity:0.974" fill="#272726" d="M 96.5,7.5 C 98.7028,7.39643 100.703,6.72976 102.5,5.5C 117.867,2.73939 131.867,5.90606 144.5,15C 176.667,47.1667 208.833,79.3333 241,111.5C 246.563,121.618 245.396,130.784 237.5,139C 233.962,141.269 230.295,143.269 226.5,145C 228.006,147.333 229.673,149.5 231.5,151.5C 239.852,149.394 248.352,148.394 257,148.5C 265.541,148.882 274.041,149.382 282.5,150C 283.293,148.915 283.96,147.748 284.5,146.5C 270.13,143.102 264.296,134.102 267,119.5C 267.561,117.275 268.561,115.275 270,113.5C 299.861,83.9722 329.361,54.1388 358.5,24C 379.171,2.64408 402.837,-1.35592 429.5,12C 432.833,14.6667 436.167,17.3333 439.5,20C 460.333,41.5 481.167,63 502,84.5C 513.745,106.159 511.411,126.159 495,144.5C 478.5,159.667 462.667,175.5 447.5,192C 431.296,208.49 414.963,208.657 398.5,192.5C 385.923,204.578 373.589,216.745 361.5,229C 363.484,237.385 364.484,245.885 364.5,254.5C 364.081,263.917 363.247,273.25 362,282.5C 363.419,283.46 364.919,284.293 366.5,285C 377.681,296.348 389.014,307.514 400.5,318.5C 407.242,311.088 415.575,306.755 425.5,305.5C 430.462,306.098 435.128,307.598 439.5,310C 462.453,330.95 483.953,353.117 504,376.5C 512.604,394.834 510.938,412.168 499,428.5C 478.195,450.305 457.029,471.805 435.5,493C 414.38,510.319 392.047,511.986 368.5,498C 335.721,465.221 302.887,432.387 270,399.5C 262.615,383.426 267.115,371.926 283.5,365C 282,362.833 280.5,360.667 279,358.5C 270.702,360.842 262.202,361.842 253.5,361.5C 245.426,361.383 237.426,360.883 229.5,360C 228.743,361.512 227.743,362.846 226.5,364C 243.043,369.257 248.21,380.09 242,396.5C 207.752,431.082 173.252,465.249 138.5,499C 118.105,510.522 98.1046,509.856 78.5,497C 60.3586,478.526 41.8586,460.359 23,442.5C 17.2908,436.46 11.9575,430.126 7,423.5C -2.24394,403.068 0.422729,384.401 15,367.5C 32.1667,351.667 48.6667,335.167 64.5,318C 80.6694,302.514 96.6694,302.681 112.5,318.5C 125.077,306.422 137.411,294.255 149.5,282C 145.516,264.836 145.516,247.67 149.5,230.5C 136.298,217.634 122.964,204.634 109.5,191.5C 103.427,197.204 96.4268,201.371 88.5,204C 81.9667,205.158 75.9667,203.824 70.5,200C 50.6667,180.167 30.8333,160.333 11,140.5C -3.21176,118.035 -1.21176,97.0352 17,77.5C 38.5585,55.2734 60.7251,33.7734 83.5,13C 87.6347,10.5965 91.9681,8.7632 96.5,7.5 Z M 105.5,11.5 C 108.279,11.2786 110.946,11.612 113.5,12.5C 106.671,16.7495 99.6707,20.7495 92.5,24.5C 96.2406,20.7818 100.241,17.2818 104.5,14C 105.252,13.3292 105.586,12.4959 105.5,11.5 Z M 134.5,23.5 C 135.167,23.5 135.5,23.8333 135.5,24.5C 133.664,26.588 131.331,27.9213 128.5,28.5C 130.091,26.3674 132.091,24.7007 134.5,23.5 Z M 370.5,26.5 C 373.81,28.4821 376.81,30.8154 379.5,33.5C 376.183,31.8627 372.85,30.1961 369.5,28.5C 369.833,27.8333 370.167,27.1667 370.5,26.5 Z M 128.5,28.5 C 128.027,29.9063 127.027,30.573 125.5,30.5C 125.973,29.0937 126.973,28.427 128.5,28.5 Z M 144.5,32.5 C 145.167,32.5 145.5,32.8333 145.5,33.5C 141.299,36.1002 136.966,38.4335 132.5,40.5C 136.148,37.3401 140.148,34.6735 144.5,32.5 Z M 153.5,41.5 C 154.833,42.1667 155.833,43.1667 156.5,44.5C 144.473,51.1788 132.473,57.8455 120.5,64.5C 131.219,56.451 142.219,48.7844 153.5,41.5 Z M 354.5,43.5 C 369.47,53.8117 384.137,64.4784 398.5,75.5C 381.996,66.4162 365.663,57.0828 349.5,47.5C 351.167,46.1667 352.833,44.8333 354.5,43.5 Z M 342.5,55.5 C 357.048,65.6004 371.381,75.9338 385.5,86.5C 369.336,78.2549 353.669,69.2549 338.5,59.5C 339.5,57.8333 340.833,56.5 342.5,55.5 Z M 171.5,60.5 C 172.833,61.1667 173.833,62.1667 174.5,63.5C 162.168,71.3351 149.502,78.6684 136.5,85.5C 147.865,76.8108 159.532,68.4775 171.5,60.5 Z M 330.5,67.5 C 346.381,78.6005 362.048,89.9339 377.5,101.5C 360.184,91.8614 342.85,82.1947 325.5,72.5C 326.833,70.5 328.5,68.8333 330.5,67.5 Z M 182.5,71.5 C 183.167,71.5 183.5,71.8333 183.5,72.5C 181.062,74.2672 178.395,75.6006 175.5,76.5C 177.531,74.4776 179.865,72.8109 182.5,71.5 Z M 191.5,79.5 C 192.167,80.5 192.833,81.5 193.5,82.5C 187.666,86.9209 181.332,90.5876 174.5,93.5C 173.833,93.5 173.167,93.5 172.5,93.5C 178.617,88.6011 184.951,83.9344 191.5,79.5 Z M 317.5,79.5 C 325.379,84.5995 333.045,89.9328 340.5,95.5C 339.833,95.5 339.167,95.5 338.5,95.5C 330.833,90.8333 323.167,86.1667 315.5,81.5C 316.5,81.1667 317.167,80.5 317.5,79.5 Z M 308.5,89.5 C 315.049,93.9344 321.383,98.6011 327.5,103.5C 327.5,104.167 327.167,104.5 326.5,104.5C 319.5,100.5 312.5,96.5 305.5,92.5C 306.167,91.1667 307.167,90.1667 308.5,89.5 Z M 202.5,90.5 C 203.5,91.8333 204.5,93.1667 205.5,94.5C 199.5,98.1667 193.5,101.833 187.5,105.5C 186.167,104.833 185.167,103.833 184.5,102.5C 190.246,98.0819 196.246,94.0819 202.5,90.5 Z M 491.5,96.5 C 492.167,96.5 492.833,96.5 493.5,96.5C 493.5,97.1667 493.5,97.8333 493.5,98.5C 492.5,98.1667 491.833,97.5 491.5,96.5 Z M 448.5,97.5 C 463.998,105.412 478.998,114.079 493.5,123.5C 493.598,125.553 492.931,127.22 491.5,128.5C 476.864,118.522 462.531,108.189 448.5,97.5 Z M 164.5,98.5 C 164.5,99.1667 164.5,99.8333 164.5,100.5C 163.833,100.5 163.167,100.5 162.5,100.5C 162.833,99.5 163.5,98.8333 164.5,98.5 Z M 297.5,99.5 C 304.466,103.81 311.133,108.477 317.5,113.5C 317.5,113.833 317.5,114.167 317.5,114.5C 309.801,110.656 302.468,106.322 295.5,101.5C 296.5,101.167 297.167,100.5 297.5,99.5 Z M 48.5,101.5 C 38.7314,109.558 28.3981,116.891 17.5,123.5C 16.7659,122.292 16.4326,120.959 16.5,119.5C 26.9278,113.072 37.5945,107.072 48.5,101.5 Z M 20.5,103.5 C 18.5398,105.156 16.5398,106.823 14.5,108.5C 14.5,107.833 14.5,107.167 14.5,106.5C 16.2163,104.975 18.2163,103.975 20.5,103.5 Z M 287.5,109.5 C 294.563,114.025 301.229,119.025 307.5,124.5C 306.833,124.833 306.167,125.167 305.5,125.5C 298.004,122.255 291.004,118.255 284.5,113.5C 285.5,112.167 286.5,110.833 287.5,109.5 Z M 173.5,110.5 C 174.5,110.833 175.167,111.5 175.5,112.5C 170.817,114.863 166.15,117.196 161.5,119.5C 165.104,116.025 169.104,113.025 173.5,110.5 Z M 221.5,110.5 C 222.833,111.5 224.167,112.5 225.5,113.5C 219.366,117.404 213.032,121.071 206.5,124.5C 205.5,124.167 204.833,123.5 204.5,122.5C 209.603,117.775 215.269,113.775 221.5,110.5 Z M 439.5,111.5 C 455.073,119.738 470.406,128.405 485.5,137.5C 484.876,139.754 483.543,141.421 481.5,142.5C 467.5,132.167 453.5,121.833 439.5,111.5 Z M 70.5,118.5 C 58.7296,127.892 46.3962,136.559 33.5,144.5C 32.1667,143.833 31.1667,142.833 30.5,141.5C 43.499,133.331 56.8324,125.665 70.5,118.5 Z M 161.5,119.5 C 161.027,120.906 160.027,121.573 158.5,121.5C 158.973,120.094 159.973,119.427 161.5,119.5 Z M 422.5,120.5 C 429.671,124.251 436.671,128.251 443.5,132.5C 442.5,132.833 441.833,133.5 441.5,134.5C 434.951,130.066 428.617,125.399 422.5,120.5 Z M 297.5,133.5 C 296.421,135.543 294.754,136.876 292.5,137.5C 286.303,127.092 287.969,125.758 297.5,133.5 Z M 193.5,129.5 C 193.833,130.167 194.167,130.833 194.5,131.5C 190.423,134.227 186.09,136.561 181.5,138.5C 185.462,135.512 189.462,132.512 193.5,129.5 Z M 314.5,131.5 C 314.5,130.833 314.833,130.5 315.5,130.5C 317.754,131.124 319.421,132.457 320.5,134.5C 318.517,133.529 316.517,132.529 314.5,131.5 Z M 228.5,134.5 C 227.599,136.727 225.933,137.727 223.5,137.5C 224.899,136.11 226.566,135.11 228.5,134.5 Z M 306.5,138.5 C 314.199,142.344 321.532,146.678 328.5,151.5C 328.5,152.167 328.167,152.5 327.5,152.5C 320.131,148.152 312.798,143.819 305.5,139.5C 306.167,139.5 306.5,139.167 306.5,138.5 Z M 453.5,138.5 C 460.658,141.912 467.658,145.578 474.5,149.5C 473.167,151.5 471.5,153.167 469.5,154.5C 462.595,150.554 456.262,145.887 450.5,140.5C 451.5,139.833 452.5,139.167 453.5,138.5 Z M 82.5,142.5 C 82.1667,143.5 81.5,144.167 80.5,144.5C 80.5,144.167 80.5,143.833 80.5,143.5C 80.8417,142.662 81.5084,142.328 82.5,142.5 Z M 205.5,142.5 C 205.027,143.906 204.027,144.573 202.5,144.5C 202.973,143.094 203.973,142.427 205.5,142.5 Z M 104.5,146.5 C 100.896,149.975 96.8962,152.975 92.5,155.5C 91.5,155.167 90.8333,154.5 90.5,153.5C 95.1667,151.167 99.8333,148.833 104.5,146.5 Z M 297.5,147.5 C 304.48,152.484 311.146,157.817 317.5,163.5C 317.167,163.5 316.833,163.5 316.5,163.5C 309.194,159.512 301.86,155.512 294.5,151.5C 295.5,150.167 296.5,148.833 297.5,147.5 Z M 47.5,149.5 C 45.8525,151.326 43.8525,152.66 41.5,153.5C 41.5,153.167 41.5,152.833 41.5,152.5C 43.1815,150.992 45.1815,149.992 47.5,149.5 Z M 68.5,150.5 C 69.1667,150.5 69.5,150.833 69.5,151.5C 64.3679,156.235 58.7013,160.235 52.5,163.5C 51.5,162.833 50.5,162.167 49.5,161.5C 55.6618,157.584 61.9951,153.917 68.5,150.5 Z M 440.5,151.5 C 440.5,151.167 440.5,150.833 440.5,150.5C 447.996,153.745 454.996,157.745 461.5,162.5C 461.167,163.5 460.5,164.167 459.5,164.5C 452.993,160.414 446.66,156.08 440.5,151.5 Z M 365.5,154.5 C 367.284,154.893 368.95,155.559 370.5,156.5C 370.5,157.167 370.167,157.5 369.5,157.5C 367.77,156.974 366.436,155.974 365.5,154.5 Z M 337.5,155.5 C 344.332,160.084 351.332,164.417 358.5,168.5C 358.5,169.167 358.167,169.5 357.5,169.5C 350.14,165.488 342.806,161.488 335.5,157.5C 335.833,156.5 336.5,155.833 337.5,155.5 Z M 239.5,159.5 C 237.365,161.071 235.032,162.404 232.5,163.5C 232.5,162.5 232.5,161.5 232.5,160.5C 234.806,160.007 237.139,159.674 239.5,159.5 Z M 79.5,160.5 C 80.1667,161.5 80.8333,162.5 81.5,163.5C 75.8333,167.5 70.1667,171.5 64.5,175.5C 62.8333,174.5 61.5,173.167 60.5,171.5C 66.6697,167.581 73.0031,163.914 79.5,160.5 Z M 431.5,160.5 C 438.534,164.012 445.201,168.012 451.5,172.5C 451.167,173.5 450.5,174.167 449.5,174.5C 442.638,170.905 436.304,166.572 430.5,161.5C 430.5,160.833 430.833,160.5 431.5,160.5 Z M 380.5,162.5 C 387.451,166.137 394.118,170.137 400.5,174.5C 399.5,175.833 398.5,177.167 397.5,178.5C 391.143,173.802 384.81,169.135 378.5,164.5C 378.833,163.5 379.5,162.833 380.5,162.5 Z M 118.5,169.5 C 118.027,170.906 117.027,171.573 115.5,171.5C 115.973,170.094 116.973,169.427 118.5,169.5 Z M 420.5,170.5 C 427.663,174.247 434.663,178.247 441.5,182.5C 441.167,183.5 440.5,184.167 439.5,184.5C 432.956,180.401 426.623,176.068 420.5,171.5C 420.5,171.167 420.5,170.833 420.5,170.5 Z M 115.5,171.5 C 114.564,172.974 113.23,173.974 111.5,174.5C 110.833,174.5 110.5,174.167 110.5,173.5C 112.05,172.559 113.716,171.893 115.5,171.5 Z M 140.5,174.5 C 141.167,174.833 141.833,175.167 142.5,175.5C 137.142,180.186 131.475,184.519 125.5,188.5C 124.167,187.5 122.833,186.5 121.5,185.5C 127.634,181.596 133.968,177.929 140.5,174.5 Z M 367.5,175.5 C 367.5,174.833 367.833,174.5 368.5,174.5C 375.671,178.251 382.671,182.251 389.5,186.5C 389.5,187.167 389.167,187.5 388.5,187.5C 381.337,183.753 374.337,179.753 367.5,175.5 Z M 98.5,180.5 C 99.5,180.833 100.167,181.5 100.5,182.5C 94.8566,186.468 89.19,190.468 83.5,194.5C 82.1667,193.833 81.1667,192.833 80.5,191.5C 86.4641,187.848 92.4641,184.181 98.5,180.5 Z M 411.5,180.5 C 418.534,184.012 425.201,188.012 431.5,192.5C 429.824,194.834 427.491,195.834 424.5,195.5C 421.039,192.931 417.372,190.597 413.5,188.5C 412.04,186.537 410.373,184.704 408.5,183C 409.373,181.955 410.373,181.122 411.5,180.5 Z M 359.5,182.5 C 366.86,186.512 374.194,190.512 381.5,194.5C 380.5,196.167 379.167,197.5 377.5,198.5C 371.5,193.5 365.5,188.5 359.5,183.5C 359.5,183.167 359.5,182.833 359.5,182.5 Z M 157.5,194.5 C 157.027,195.906 156.027,196.573 154.5,196.5C 154.973,195.094 155.973,194.427 157.5,194.5 Z M 154.5,196.5 C 150.817,200.18 146.817,203.514 142.5,206.5C 141.833,205.5 141.167,204.5 140.5,203.5C 145.183,201.137 149.85,198.804 154.5,196.5 Z M 344.5,199.5 C 351.671,203.251 358.671,207.251 365.5,211.5C 364.167,212.167 363.167,213.167 362.5,214.5C 355.329,210.749 348.329,206.749 341.5,202.5C 342.833,201.833 343.833,200.833 344.5,199.5 Z M 297.5,200.5 C 298.11,201.391 298.443,202.391 298.5,203.5C 291.403,207.93 284.069,211.93 276.5,215.5C 283.198,210.144 290.198,205.144 297.5,200.5 Z M 326.5,213.5 C 327.038,215.117 327.371,216.784 327.5,218.5C 312.998,227.921 297.998,236.588 282.5,244.5C 296.779,233.687 311.445,223.354 326.5,213.5 Z M 276.5,215.5 C 276.027,216.906 275.027,217.573 273.5,217.5C 273.973,216.094 274.973,215.427 276.5,215.5 Z M 335.5,227.5 C 336.833,228.167 338.167,228.833 339.5,229.5C 327.428,236.892 315.095,243.892 302.5,250.5C 313.288,242.6 324.288,234.933 335.5,227.5 Z M 349.5,236.5 C 349.5,237.5 349.5,238.5 349.5,239.5C 342.403,243.93 335.069,247.93 327.5,251.5C 334.478,246.008 341.812,241.008 349.5,236.5 Z M 206.5,250.5 C 192.5,260.5 178.5,270.5 164.5,280.5C 163.069,279.22 162.402,277.553 162.5,275.5C 176.869,266.649 191.536,258.315 206.5,250.5 Z M 168.5,258.5 C 166.14,260.853 163.473,262.853 160.5,264.5C 160.5,263.833 160.5,263.167 160.5,262.5C 162.938,260.733 165.605,259.399 168.5,258.5 Z M 228.5,268.5 C 214.343,279.078 200.01,289.412 185.5,299.5C 184.542,297.698 183.875,295.698 183.5,293.5C 198.339,284.913 213.339,276.58 228.5,268.5 Z M 227.5,288.5 C 221.221,293.647 214.554,298.313 207.5,302.5C 206.833,302.167 206.167,301.833 205.5,301.5C 212.496,296.666 219.829,292.333 227.5,288.5 Z M 360.5,297.5 C 361.833,298.167 362.833,299.167 363.5,300.5C 357.83,304.337 351.83,307.67 345.5,310.5C 345.567,309.041 345.234,307.708 344.5,306.5C 349.833,303.5 355.167,300.5 360.5,297.5 Z M 141.5,304.5 C 146.409,307.074 150.742,310.408 154.5,314.5C 149.368,312.1 144.368,309.434 139.5,306.5C 139.833,305.5 140.5,304.833 141.5,304.5 Z M 218.5,311.5 C 217.738,313.262 216.404,314.262 214.5,314.5C 214.5,314.167 214.5,313.833 214.5,313.5C 215.514,312.326 216.847,311.66 218.5,311.5 Z M 376.5,313.5 C 377.833,314.167 378.833,315.167 379.5,316.5C 373.666,320.921 367.332,324.588 360.5,327.5C 360.5,327.167 360.5,326.833 360.5,326.5C 365.809,322.197 371.142,317.863 376.5,313.5 Z M 154.5,314.5 C 156.027,314.427 157.027,315.094 157.5,316.5C 155.973,316.573 154.973,315.906 154.5,314.5 Z M 425.5,315.5 C 427.389,316.604 429.055,317.937 430.5,319.5C 424.33,323.419 417.997,327.086 411.5,330.5C 410.524,329.185 409.524,327.852 408.5,326.5C 409.193,325.482 409.859,324.482 410.5,323.5C 415.632,321.1 420.632,318.434 425.5,315.5 Z M 82.5,316.5 C 88.8158,320.473 95.1492,324.473 101.5,328.5C 101.167,329.5 100.5,330.167 99.5,330.5C 92.3293,326.749 85.3293,322.749 78.5,318.5C 79.6049,317.4 80.9382,316.733 82.5,316.5 Z M 124.5,321.5 C 130.81,326.135 137.143,330.802 143.5,335.5C 143.167,336.167 142.833,336.833 142.5,337.5C 135.167,333.5 127.833,329.5 120.5,325.5C 121.5,323.833 122.833,322.5 124.5,321.5 Z M 387.5,324.5 C 388.167,324.5 388.5,324.833 388.5,325.5C 382.003,328.914 375.67,332.581 369.5,336.5C 369.5,335.833 369.167,335.5 368.5,335.5C 374.334,331.079 380.668,327.412 387.5,324.5 Z M 438.5,327.5 C 439.5,327.833 440.167,328.5 440.5,329.5C 434.298,333.101 427.964,336.434 421.5,339.5C 421.167,339.5 420.833,339.5 420.5,339.5C 426.223,335.115 432.223,331.115 438.5,327.5 Z M 396.5,333.5 C 398.167,334.5 399.5,335.833 400.5,337.5C 394.167,340.833 387.833,344.167 381.5,347.5C 380.5,347.167 379.833,346.5 379.5,345.5C 385.167,341.5 390.833,337.5 396.5,333.5 Z M 63.5,334.5 C 69.5537,339.217 75.8871,343.55 82.5,347.5C 81.8333,348.833 80.8333,349.833 79.5,350.5C 72.549,346.863 65.8823,342.863 59.5,338.5C 60.5,336.833 61.8333,335.5 63.5,334.5 Z M 264.5,334.5 C 256.783,340.885 248.783,346.885 240.5,352.5C 238.694,351.976 237.028,351.309 235.5,350.5C 245.033,344.901 254.7,339.567 264.5,334.5 Z M 111.5,335.5 C 112.833,336.833 114.167,338.167 115.5,339.5C 113.5,338.833 111.5,338.167 109.5,337.5C 109.833,336.5 110.5,335.833 111.5,335.5 Z M 448.5,336.5 C 449.167,337.5 449.833,338.5 450.5,339.5C 444.366,343.404 438.032,347.071 431.5,350.5C 431.167,349.833 430.833,349.167 430.5,348.5C 436.5,344.5 442.5,340.5 448.5,336.5 Z M 115.5,339.5 C 117.027,339.427 118.027,340.094 118.5,341.5C 116.973,341.573 115.973,340.906 115.5,339.5 Z M 152.5,341.5 C 152.833,342.167 153.167,342.833 153.5,343.5C 152.508,343.672 151.842,343.338 151.5,342.5C 151.5,341.833 151.833,341.5 152.5,341.5 Z M 356.5,341.5 C 357.5,341.833 358.167,342.5 358.5,343.5C 351.539,346.647 344.873,350.313 338.5,354.5C 338.167,353.833 337.833,353.167 337.5,352.5C 344.032,349.071 350.366,345.404 356.5,341.5 Z M 51.5,346.5 C 58.0069,350.586 64.3402,354.92 70.5,359.5C 70.1667,360.167 69.8333,360.833 69.5,361.5C 62.6628,357.247 55.6628,353.247 48.5,349.5C 49.1667,348.167 50.1667,347.167 51.5,346.5 Z M 458.5,347.5 C 459.5,347.833 460.167,348.5 460.5,349.5C 454.003,352.914 447.67,356.581 441.5,360.5C 441.5,359.833 441.167,359.5 440.5,359.5C 446.223,355.115 452.223,351.115 458.5,347.5 Z M 314.5,348.5 C 315.167,348.5 315.5,348.833 315.5,349.5C 310.142,353.863 304.809,358.197 299.5,362.5C 297.833,361.5 296.5,360.167 295.5,358.5C 301.964,355.434 308.298,352.101 314.5,348.5 Z M 368.5,353.5 C 369.167,353.5 369.5,353.833 369.5,354.5C 368.486,355.674 367.153,356.34 365.5,356.5C 366.306,355.272 367.306,354.272 368.5,353.5 Z M 91.5,354.5 C 96.0524,357.603 100.386,360.936 104.5,364.5C 99.4997,362.336 94.833,359.669 90.5,356.5C 90.8333,355.833 91.1667,355.167 91.5,354.5 Z M 40.5,356.5 C 43.1354,357.811 45.4687,359.478 47.5,361.5C 44.6689,360.921 42.3356,359.588 40.5,357.5C 40.5,357.167 40.5,356.833 40.5,356.5 Z M 468.5,357.5 C 470.167,358.5 471.5,359.833 472.5,361.5C 466.87,365.654 460.87,369.321 454.5,372.5C 453.167,371.833 452.167,370.833 451.5,369.5C 456.632,364.765 462.299,360.765 468.5,357.5 Z M 326.5,359.5 C 326.5,359.833 326.5,360.167 326.5,360.5C 320.87,364.654 314.87,368.321 308.5,371.5C 307.833,371.5 307.5,371.167 307.5,370.5C 313.662,366.584 319.995,362.917 326.5,359.5 Z M 47.5,361.5 C 49.0269,361.427 50.0269,362.094 50.5,363.5C 48.9731,363.573 47.9731,362.906 47.5,361.5 Z M 32.5,365.5 C 45.5558,374.021 58.2225,383.021 70.5,392.5C 56.5,384.833 42.5,377.167 28.5,369.5C 29.5,367.833 30.8333,366.5 32.5,365.5 Z M 79.5,367.5 C 79.5,366.833 79.8333,366.5 80.5,366.5C 81.5,366.833 82.1667,367.5 82.5,368.5C 81.391,368.443 80.391,368.11 79.5,367.5 Z M 202.5,366.5 C 204.027,366.427 205.027,367.094 205.5,368.5C 203.973,368.573 202.973,367.906 202.5,366.5 Z M 480.5,369.5 C 482.167,370.5 483.5,371.833 484.5,373.5C 469.096,382.892 453.43,391.892 437.5,400.5C 451.619,389.934 465.952,379.6 480.5,369.5 Z M 180.5,371.5 C 182.027,371.427 183.027,372.094 183.5,373.5C 181.973,373.573 180.973,372.906 180.5,371.5 Z M 183.5,373.5 C 187.966,375.566 192.299,377.9 196.5,380.5C 196.167,381.167 195.833,381.833 195.5,382.5C 191.104,379.975 187.104,376.975 183.5,373.5 Z M 291.5,375.5 C 293.674,375.75 295.341,376.75 296.5,378.5C 288.791,384.83 287.125,383.83 291.5,375.5 Z M 320.5,376.5 C 319.738,378.262 318.404,379.262 316.5,379.5C 315.833,379.5 315.5,379.167 315.5,378.5C 317.167,377.833 318.833,377.167 320.5,376.5 Z M 440.5,377.5 C 441.5,377.833 442.167,378.5 442.5,379.5C 436.965,382.767 431.298,385.767 425.5,388.5C 429.959,384.103 434.959,380.436 440.5,377.5 Z M 491.5,382.5 C 492.441,384.05 493.107,385.716 493.5,387.5C 478.671,396.416 463.671,405.083 448.5,413.5C 462.531,402.811 476.864,392.478 491.5,382.5 Z M 204.5,385.5 C 211.806,389.488 219.14,393.488 226.5,397.5C 225.5,399.167 224.167,400.5 222.5,401.5C 215.833,396.833 209.167,392.167 202.5,387.5C 202.833,386.5 203.5,385.833 204.5,385.5 Z M 304.5,385.5 C 304.833,386.5 305.5,387.167 306.5,387.5C 301.013,392.076 295.347,396.409 289.5,400.5C 287.833,399.5 286.5,398.167 285.5,396.5C 291.634,392.596 297.968,388.929 304.5,385.5 Z M 17.5,387.5 C 28.3981,394.109 38.7314,401.442 48.5,409.5C 37.5,403.5 26.5,397.5 15.5,391.5C 15.9887,390.005 16.6554,388.671 17.5,387.5 Z M 425.5,388.5 C 425.027,389.906 424.027,390.573 422.5,390.5C 422.973,389.094 423.973,388.427 425.5,388.5 Z M 158.5,389.5 C 160.027,389.427 161.027,390.094 161.5,391.5C 159.973,391.573 158.973,390.906 158.5,389.5 Z M 161.5,391.5 C 166.833,394.167 172.167,396.833 177.5,399.5C 177.167,400.5 176.5,401.167 175.5,401.5C 170.443,398.645 165.777,395.312 161.5,391.5 Z M 316.5,397.5 C 316.5,397.833 316.5,398.167 316.5,398.5C 310.5,402.5 304.5,406.5 298.5,410.5C 298.167,409.833 297.833,409.167 297.5,408.5C 303.334,404.079 309.668,400.412 316.5,397.5 Z M 15.5,403.5 C 17.754,404.124 19.4206,405.457 20.5,407.5C 18.7162,407.107 17.0495,406.441 15.5,405.5C 15.5,404.833 15.5,404.167 15.5,403.5 Z M 184.5,404.5 C 192.171,408.333 199.504,412.666 206.5,417.5C 205.5,419.167 204.167,420.5 202.5,421.5C 196.133,416.477 189.466,411.81 182.5,407.5C 183.167,406.5 183.833,405.5 184.5,404.5 Z M 325.5,407.5 C 326.167,407.5 326.5,407.833 326.5,408.5C 321.046,412.733 315.38,416.733 309.5,420.5C 308.167,419.833 307.167,418.833 306.5,417.5C 312.833,414.167 319.167,410.833 325.5,407.5 Z M 377.5,409.5 C 362.557,420.978 347.224,431.978 331.5,442.5C 329.833,441.167 328.167,439.833 326.5,438.5C 343.238,428.441 360.238,418.775 377.5,409.5 Z M 162.5,410.5 C 163.609,410.557 164.609,410.89 165.5,411.5C 165.5,412.167 165.167,412.5 164.5,412.5C 163.5,412.167 162.833,411.5 162.5,410.5 Z M 492.5,413.5 C 492.027,414.906 491.027,415.573 489.5,415.5C 489.973,414.094 490.973,413.427 492.5,413.5 Z M 167.5,414.5 C 168.833,414.5 170.167,414.5 171.5,414.5C 179.164,419.668 187.164,424.335 195.5,428.5C 194.833,429.833 193.833,430.833 192.5,431.5C 183.888,426.217 175.554,420.55 167.5,414.5 Z M 339.5,414.5 C 340.5,414.5 341.5,414.5 342.5,414.5C 334.857,419.801 327.19,425.134 319.5,430.5C 318.5,430.167 317.833,429.5 317.5,428.5C 324.833,423.833 332.167,419.167 339.5,414.5 Z M 385.5,424.5 C 371.802,434.856 357.802,444.856 343.5,454.5C 341.833,453.5 340.5,452.167 339.5,450.5C 354.536,441.315 369.87,432.648 385.5,424.5 Z M 136.5,425.5 C 149.833,432.833 163.167,440.167 176.5,447.5C 175.5,449.167 174.167,450.5 172.5,451.5C 160.197,443.189 148.197,434.522 136.5,425.5 Z M 175.5,434.5 C 178.76,435.774 181.76,437.44 184.5,439.5C 184.5,440.167 184.167,440.5 183.5,440.5C 180.527,438.853 177.86,436.853 175.5,434.5 Z M 398.5,435.5 C 384.167,446.167 369.833,456.833 355.5,467.5C 353.937,466.055 352.604,464.389 351.5,462.5C 366.904,453.108 382.57,444.108 398.5,435.5 Z M 120.5,446.5 C 133.095,453.108 145.428,460.108 157.5,467.5C 156.167,468.167 155.167,469.167 154.5,470.5C 142.866,462.856 131.533,454.856 120.5,446.5 Z M 132.5,470.5 C 137.167,472.833 141.833,475.167 146.5,477.5C 146.167,478.167 145.833,478.833 145.5,479.5C 140.868,476.857 136.535,473.857 132.5,470.5 Z M 379.5,477.5 C 377.14,479.853 374.473,481.853 371.5,483.5C 370.833,483.5 370.5,483.167 370.5,482.5C 373.24,480.44 376.24,478.774 379.5,477.5 Z M 125.5,480.5 C 129.5,482.5 133.5,484.5 137.5,486.5C 137.167,487.5 136.5,488.167 135.5,488.5C 131.878,486.213 128.545,483.547 125.5,480.5 Z M 92.5,486.5 C 99.6707,490.251 106.671,494.251 113.5,498.5C 110.43,498.632 107.43,498.299 104.5,497.5C 100.5,493.833 96.5,490.167 92.5,486.5 Z"/></g>
<g><path style="opacity:0.937" fill="#cda381" d="M 102.5,5.5 C 100.703,6.72976 98.7028,7.39643 96.5,7.5C 98.3159,5.55855 100.316,4.89189 102.5,5.5 Z"/></g>
<g><path style="opacity:0.991" fill="#ecbc90" d="M 105.5,11.5 C 105.586,12.4959 105.252,13.3292 104.5,14C 100.241,17.2818 96.2406,20.7818 92.5,24.5C 99.6707,20.7495 106.671,16.7495 113.5,12.5C 120.971,13.401 127.637,16.2343 133.5,21C 134.252,21.6708 134.586,22.5041 134.5,23.5C 132.091,24.7007 130.091,26.3674 128.5,28.5C 131.331,27.9213 133.664,26.588 135.5,24.5C 139.734,25.7314 142.734,28.3981 144.5,32.5C 140.148,34.6735 136.148,37.3401 132.5,40.5C 136.966,38.4335 141.299,36.1002 145.5,33.5C 149.167,35.1667 151.833,37.8333 153.5,41.5C 142.219,48.7844 131.219,56.451 120.5,64.5C 132.473,57.8455 144.473,51.1788 156.5,44.5C 158.017,44.5106 159.184,45.1772 160,46.5C 161.421,48.4048 162.588,50.4048 163.5,52.5C 167.167,54.1667 169.833,56.8333 171.5,60.5C 159.532,68.4775 147.865,76.8108 136.5,85.5C 149.502,78.6684 162.168,71.3351 174.5,63.5C 178.167,65.1667 180.833,67.8333 182.5,71.5C 179.865,72.8109 177.531,74.4776 175.5,76.5C 178.395,75.6006 181.062,74.2672 183.5,72.5C 186.764,74.0941 189.431,76.4275 191.5,79.5C 184.951,83.9344 178.617,88.6011 172.5,93.5C 169.319,94.3485 166.652,96.0152 164.5,98.5C 163.5,98.8333 162.833,99.5 162.5,100.5C 163.167,100.5 163.833,100.5 164.5,100.5C 168.234,103.231 171.234,106.564 173.5,110.5C 169.104,113.025 165.104,116.025 161.5,119.5C 166.15,117.196 170.817,114.863 175.5,112.5C 182.11,117.441 188.11,123.108 193.5,129.5C 189.462,132.512 185.462,135.512 181.5,138.5C 186.09,136.561 190.423,134.227 194.5,131.5C 199.167,134.167 202.833,137.833 205.5,142.5C 213.4,146.961 218.4,153.628 220.5,162.5C 219.724,168.611 216.39,172.611 210.5,174.5C 208.39,173.946 206.39,173.112 204.5,172C 194.631,162.298 184.964,152.465 175.5,142.5C 172.036,139.538 168.703,136.371 165.5,133C 160.728,131.745 156.728,132.912 153.5,136.5C 168.848,152.015 184.015,167.681 199,183.5C 203.577,189.763 203.577,196.096 199,202.5C 197.562,203.718 195.895,204.385 194,204.5C 191.008,203.755 188.174,202.588 185.5,201C 174.696,191.197 164.196,181.03 154,170.5C 153.517,169.552 153.351,168.552 153.5,167.5C 152.448,167.649 151.448,167.483 150.5,167C 147.167,163.667 143.833,160.333 140.5,157C 136.88,156.159 133.546,156.826 130.5,159C 129.483,160.049 129.316,161.216 130,162.5C 134.104,166.095 137.604,170.095 140.5,174.5C 133.968,177.929 127.634,181.596 121.5,185.5C 117.434,182.437 114.101,178.771 111.5,174.5C 113.23,173.974 114.564,172.974 115.5,171.5C 113.716,171.893 112.05,172.559 110.5,173.5C 103.5,168.5 97.5,162.5 92.5,155.5C 96.8962,152.975 100.896,149.975 104.5,146.5C 99.8333,148.833 95.1667,151.167 90.5,153.5C 86.5644,151.234 83.2311,148.234 80.5,144.5C 81.5,144.167 82.1667,143.5 82.5,142.5C 81.5084,142.328 80.8417,142.662 80.5,143.5C 75.7609,140.269 71.4276,136.436 67.5,132C 64.366,131.21 61.366,131.543 58.5,133C 56.7888,134.133 56.2888,135.633 57,137.5C 61.4358,141.428 65.2692,145.761 68.5,150.5C 61.9951,153.917 55.6618,157.584 49.5,161.5C 46.5,159.167 43.8333,156.5 41.5,153.5C 43.8525,152.66 45.8525,151.326 47.5,149.5C 45.1815,149.992 43.1815,150.992 41.5,152.5C 37.8333,150.833 35.1667,148.167 33.5,144.5C 46.3962,136.559 58.7296,127.892 70.5,118.5C 56.8324,125.665 43.499,133.331 30.5,141.5C 26.855,139.855 24.1884,137.188 22.5,133.5C 22.9382,133.565 23.2716,133.399 23.5,133C 19.8654,130.904 17.8654,127.737 17.5,123.5C 28.3981,116.891 38.7314,109.558 48.5,101.5C 37.5945,107.072 26.9278,113.072 16.5,119.5C 15.7784,119.082 15.2784,118.416 15,117.5C 14.502,114.518 14.3354,111.518 14.5,108.5C 16.5398,106.823 18.5398,105.156 20.5,103.5C 18.2163,103.975 16.2163,104.975 14.5,106.5C 15.0186,99.1814 17.352,93.1814 21.5,88.5C 22.0722,86.7446 22.9055,85.0779 24,83.5C 46.1434,59.6903 69.3101,36.857 93.5,15C 97.1869,12.715 101.187,11.5483 105.5,11.5 Z M 128.5,28.5 C 128.027,29.9063 127.027,30.573 125.5,30.5C 125.973,29.0937 126.973,28.427 128.5,28.5 Z M 161.5,119.5 C 161.027,120.906 160.027,121.573 158.5,121.5C 158.973,120.094 159.973,119.427 161.5,119.5 Z M 82.5,142.5 C 82.1667,143.5 81.5,144.167 80.5,144.5C 80.5,144.167 80.5,143.833 80.5,143.5C 80.8417,142.662 81.5084,142.328 82.5,142.5 Z M 205.5,142.5 C 205.027,143.906 204.027,144.573 202.5,144.5C 202.973,143.094 203.973,142.427 205.5,142.5 Z M 104.5,146.5 C 100.896,149.975 96.8962,152.975 92.5,155.5C 91.5,155.167 90.8333,154.5 90.5,153.5C 95.1667,151.167 99.8333,148.833 104.5,146.5 Z M 118.5,169.5 C 118.027,170.906 117.027,171.573 115.5,171.5C 115.973,170.094 116.973,169.427 118.5,169.5 Z"/></g>
<g><path style="opacity:0.968" fill="#9d775e" d="M 493.5,96.5 C 492.833,96.5 492.167,96.5 491.5,96.5C 491.833,97.5 492.5,98.1667 493.5,98.5C 495.946,102.404 496.946,106.737 496.5,111.5C 496.333,114.167 496.167,116.833 496,119.5C 495.8,121.32 494.966,122.653 493.5,123.5C 478.998,114.079 463.998,105.412 448.5,97.5C 462.531,108.189 476.864,118.522 491.5,128.5C 491.007,132.634 489.007,135.634 485.5,137.5C 470.406,128.405 455.073,119.738 439.5,111.5C 453.5,121.833 467.5,132.167 481.5,142.5C 480.167,145.833 477.833,148.167 474.5,149.5C 467.658,145.578 460.658,141.912 453.5,138.5C 454.605,136.287 454.605,134.12 453.5,132C 450.076,131.253 446.743,131.42 443.5,132.5C 436.671,128.251 429.671,124.251 422.5,120.5C 428.617,125.399 434.951,130.066 441.5,134.5C 438.437,138.566 434.771,141.899 430.5,144.5C 428.167,148.833 424.833,152.167 420.5,154.5C 420.631,155.239 420.464,155.906 420,156.5C 413.695,162.854 407.195,168.854 400.5,174.5C 394.118,170.137 387.451,166.137 380.5,162.5C 381.605,160.287 381.605,158.12 380.5,156C 377.132,155.457 373.799,155.624 370.5,156.5C 368.95,155.559 367.284,154.893 365.5,154.5C 366.436,155.974 367.77,156.974 369.5,157.5C 366.833,162.167 363.167,165.833 358.5,168.5C 351.332,164.417 344.332,160.084 337.5,155.5C 344.514,148.486 351.181,141.153 357.5,133.5C 353.596,132.081 349.93,132.581 346.5,135C 340.909,141.097 334.909,146.597 328.5,151.5C 321.532,146.678 314.199,142.344 306.5,138.5C 308.569,135.427 311.236,133.094 314.5,131.5C 316.517,132.529 318.517,133.529 320.5,134.5C 319.421,132.457 317.754,131.124 315.5,130.5C 318.167,125.833 321.833,122.167 326.5,119.5C 328.766,115.564 331.766,112.231 335.5,109.5C 336.849,110.644 337.183,110.644 336.5,109.5C 338.833,105.167 342.167,101.833 346.5,99.5C 345.535,96.6803 343.535,95.3469 340.5,95.5C 333.045,89.9328 325.379,84.5995 317.5,79.5C 319.569,76.4275 322.236,74.0941 325.5,72.5C 342.85,82.1947 360.184,91.8614 377.5,101.5C 362.048,89.9339 346.381,78.6005 330.5,67.5C 332.167,63.8333 334.833,61.1667 338.5,59.5C 353.669,69.2549 369.336,78.2549 385.5,86.5C 371.381,75.9338 357.048,65.6004 342.5,55.5C 344.094,52.2358 346.427,49.5691 349.5,47.5C 365.663,57.0828 381.996,66.4162 398.5,75.5C 384.137,64.4784 369.47,53.8117 354.5,43.5C 358.5,37.5 363.5,32.5 369.5,28.5C 372.85,30.1961 376.183,31.8627 379.5,33.5C 376.81,30.8154 373.81,28.4821 370.5,26.5C 372.637,23.027 375.637,20.6936 379.5,19.5C 381.026,16.8244 383.36,14.9911 386.5,14C 398.292,10.1459 409.292,11.8125 419.5,19C 441.972,40.4715 464.139,62.3048 486,84.5C 488.761,88.3599 491.261,92.3599 493.5,96.5 Z M 422.5,120.5 C 429.671,124.251 436.671,128.251 443.5,132.5C 442.5,132.833 441.833,133.5 441.5,134.5C 434.951,130.066 428.617,125.399 422.5,120.5 Z M 365.5,154.5 C 367.284,154.893 368.95,155.559 370.5,156.5C 370.5,157.167 370.167,157.5 369.5,157.5C 367.77,156.974 366.436,155.974 365.5,154.5 Z"/></g>
<g><path style="opacity:0.944" fill="#9d775e" d="M 315.5,81.5 C 323.167,86.1667 330.833,90.8333 338.5,95.5C 334.839,98.1595 331.172,100.826 327.5,103.5C 321.383,98.6011 315.049,93.9344 308.5,89.5C 310.094,86.2358 312.427,83.5691 315.5,81.5 Z"/></g>
<g><path style="opacity:0.974" fill="#ebbb90" d="M 193.5,82.5 C 197.1,84.4302 200.1,87.0969 202.5,90.5C 196.246,94.0819 190.246,98.0819 184.5,102.5C 180.564,100.234 177.231,97.2343 174.5,93.5C 181.332,90.5876 187.666,86.9209 193.5,82.5 Z"/></g>
<g><path style="opacity:0.94" fill="#9d775e" d="M 305.5,92.5 C 312.5,96.5 319.5,100.5 326.5,104.5C 324.5,108.5 321.5,111.5 317.5,113.5C 311.133,108.477 304.466,103.81 297.5,99.5C 299.569,96.4275 302.236,94.0941 305.5,92.5 Z"/></g>
<g><path style="opacity:0.981" fill="#ebbb8f" d="M 205.5,94.5 C 209.167,96.1667 211.833,98.8333 213.5,102.5C 217.167,104.167 219.833,106.833 221.5,110.5C 215.269,113.775 209.603,117.775 204.5,122.5C 203.761,122.631 203.094,122.464 202.5,122C 197.243,116.584 192.243,111.084 187.5,105.5C 193.5,101.833 199.5,98.1667 205.5,94.5 Z"/></g>
<g><path style="opacity:0.946" fill="#9e775e" d="M 295.5,101.5 C 302.468,106.322 309.801,110.656 317.5,114.5C 314.5,118.167 311.167,121.5 307.5,124.5C 301.229,119.025 294.563,114.025 287.5,109.5C 289.833,106.5 292.5,103.833 295.5,101.5 Z"/></g>
<g><path style="opacity:0.989" fill="#e9b98e" d="M 225.5,113.5 C 232.144,119.65 233.144,126.65 228.5,134.5C 226.566,135.11 224.899,136.11 223.5,137.5C 221.011,137.702 218.677,137.202 216.5,136C 212.561,132.571 209.228,128.737 206.5,124.5C 213.032,121.071 219.366,117.404 225.5,113.5 Z"/></g>
<g><path style="opacity:0.944" fill="#9c755c" d="M 284.5,113.5 C 291.004,118.255 298.004,122.255 305.5,125.5C 303.833,129.167 301.167,131.833 297.5,133.5C 287.969,125.758 286.303,127.092 292.5,137.5C 286.447,138.365 282.281,135.698 280,129.5C 277.205,122.738 278.705,117.405 284.5,113.5 Z"/></g>
<g><path style="opacity:0.947" fill="#9e765d" d="M 305.5,139.5 C 312.798,143.819 320.131,148.152 327.5,152.5C 324.899,156.771 321.566,160.437 317.5,163.5C 311.146,157.817 304.48,152.484 297.5,147.5C 299.833,144.5 302.5,141.833 305.5,139.5 Z"/></g>
<g><path style="opacity:0.939" fill="#9d775e" d="M 450.5,140.5 C 456.262,145.887 462.595,150.554 469.5,154.5C 467.833,158.167 465.167,160.833 461.5,162.5C 454.996,157.745 447.996,153.745 440.5,150.5C 443.5,146.833 446.833,143.5 450.5,140.5 Z"/></g>
<g><path style="opacity:0.93" fill="#9d775e" d="M 440.5,151.5 C 446.66,156.08 452.993,160.414 459.5,164.5C 457.833,168.167 455.167,170.833 451.5,172.5C 445.201,168.012 438.534,164.012 431.5,160.5C 433.5,156.5 436.5,153.5 440.5,151.5 Z"/></g>
<g><path style="opacity:0.979" fill="#ecbc91" d="M 69.5,151.5 C 73.4356,153.766 76.7689,156.766 79.5,160.5C 73.0031,163.914 66.6697,167.581 60.5,171.5C 56.8333,169.833 54.1667,167.167 52.5,163.5C 58.7013,160.235 64.3679,156.235 69.5,151.5 Z"/></g>
<g><path style="opacity:0.966" fill="#9d775e" d="M 294.5,151.5 C 301.86,155.512 309.194,159.512 316.5,163.5C 314.906,166.764 312.573,169.431 309.5,171.5C 308.089,169.461 306.089,168.461 303.5,168.5C 302.708,166.743 301.375,165.409 299.5,164.5C 299.167,164.667 298.833,164.833 298.5,165C 299.636,166.145 300.636,167.312 301.5,168.5C 301.5,169.167 301.833,169.5 302.5,169.5C 302.5,170.5 302.5,171.5 302.5,172.5C 297.037,173.216 293.537,170.883 292,165.5C 291.333,161.833 291.333,158.167 292,154.5C 292.377,153.058 293.21,152.058 294.5,151.5 Z"/></g>
<g><path style="opacity:0.983" fill="#9d775e" d="M 335.5,157.5 C 342.806,161.488 350.14,165.488 357.5,169.5C 347.757,180.747 337.424,191.58 326.5,202C 315.972,205.058 309.972,201.058 308.5,190C 308.934,187.366 309.767,184.866 311,182.5C 318.433,173.383 326.6,165.05 335.5,157.5 Z"/></g>
<g><path style="opacity:0.938" fill="#9d775e" d="M 430.5,161.5 C 436.304,166.572 442.638,170.905 449.5,174.5C 447.833,178.167 445.167,180.833 441.5,182.5C 434.663,178.247 427.663,174.247 420.5,170.5C 423.231,166.766 426.564,163.766 430.5,161.5 Z"/></g>
<g><path style="opacity:0.974" fill="#ecbb90" d="M 81.5,163.5 C 88.1667,168.167 93.8333,173.833 98.5,180.5C 92.4641,184.181 86.4641,187.848 80.5,191.5C 76.8333,189.833 74.1667,187.167 72.5,183.5C 68.8333,181.833 66.1667,179.167 64.5,175.5C 70.1667,171.5 75.8333,167.5 81.5,163.5 Z"/></g>
<g><path style="opacity:0.94" fill="#9d765e" d="M 378.5,164.5 C 384.81,169.135 391.143,173.802 397.5,178.5C 395.712,182.104 393.045,184.77 389.5,186.5C 382.671,182.251 375.671,178.251 368.5,174.5C 370.833,170.167 374.167,166.833 378.5,164.5 Z"/></g>
<g><path style="opacity:0.827" fill="#f0bf54" d="M 303.5,168.5 C 302.833,168.5 302.167,168.5 301.5,168.5C 300.636,167.312 299.636,166.145 298.5,165C 298.833,164.833 299.167,164.667 299.5,164.5C 301.375,165.409 302.708,166.743 303.5,168.5 Z"/></g>
<g><path style="opacity:0.92" fill="#f0c153" d="M 303.5,168.5 C 306.089,168.461 308.089,169.461 309.5,171.5C 307.283,172.369 304.95,172.702 302.5,172.5C 302.5,171.5 302.5,170.5 302.5,169.5C 303.167,169.5 303.5,169.167 303.5,168.5 Z"/></g>
<g><path style="opacity:0.949" fill="#9e775e" d="M 420.5,171.5 C 426.623,176.068 432.956,180.401 439.5,184.5C 437.833,188.167 435.167,190.833 431.5,192.5C 425.201,188.012 418.534,184.012 411.5,180.5C 413.5,176.5 416.5,173.5 420.5,171.5 Z"/></g>
<g><path style="opacity:0.923" fill="#9c775e" d="M 367.5,175.5 C 374.337,179.753 381.337,183.753 388.5,187.5C 387.167,190.833 384.833,193.167 381.5,194.5C 374.194,190.512 366.86,186.512 359.5,182.5C 361.569,179.427 364.236,177.094 367.5,175.5 Z"/></g>
<g><path style="opacity:0.953" fill="#e7b78d" d="M 100.5,182.5 C 103.076,182.722 103.91,184.055 103,186.5C 99.2852,191.902 94.2852,195.235 88,196.5C 85.9919,196.693 84.4919,196.026 83.5,194.5C 89.19,190.468 94.8566,186.468 100.5,182.5 Z"/></g>
<g><path style="opacity:0.968" fill="#9e765d" d="M 359.5,183.5 C 365.5,188.5 371.5,193.5 377.5,198.5C 374.23,203.44 370.23,207.773 365.5,211.5C 358.671,207.251 351.671,203.251 344.5,199.5C 344.5,198.833 344.167,198.5 343.5,198.5C 348.224,192.773 353.558,187.773 359.5,183.5 Z"/></g>
<g><path style="opacity:0.603" fill="#95705b" d="M 413.5,188.5 C 417.372,190.597 421.039,192.931 424.5,195.5C 419.669,194.922 416.002,192.589 413.5,188.5 Z"/></g>
<g><path style="opacity:0.997" fill="#ebba8f" d="M 142.5,175.5 C 151.492,183.992 160.325,192.658 169,201.5C 172.333,207.167 172.333,212.833 169,218.5C 164.501,223.428 159.668,223.594 154.5,219C 150.296,214.964 146.296,210.798 142.5,206.5C 146.817,203.514 150.817,200.18 154.5,196.5C 149.85,198.804 145.183,201.137 140.5,203.5C 134.5,199.5 129.5,194.5 125.5,188.5C 131.475,184.519 137.142,180.186 142.5,175.5 Z M 157.5,194.5 C 157.027,195.906 156.027,196.573 154.5,196.5C 154.973,195.094 155.973,194.427 157.5,194.5 Z"/></g>
<g><path style="opacity:0.886" fill="#f2c256" d="M 323.5,201.5 C 322.833,201.5 322.5,201.833 322.5,202.5C 321.504,202.586 320.671,202.252 320,201.5C 318.711,199.945 318.044,198.279 318,196.5C 320.264,197.851 322.098,199.517 323.5,201.5 Z"/></g>
<g><path style="opacity:0.56" fill="#e9bd51" d="M 343.5,198.5 C 344.167,198.5 344.5,198.833 344.5,199.5C 343.833,200.833 342.833,201.833 341.5,202.5C 341.167,202.5 340.833,202.5 340.5,202.5C 341.026,200.77 342.026,199.436 343.5,198.5 Z"/></g>
<g><path style="opacity:0.973" fill="#fac954" d="M 275.5,160.5 C 276.5,160.5 277.5,160.5 278.5,160.5C 278.563,174.397 285.563,181.563 299.5,182C 298.833,184 297.5,185.333 295.5,186C 295.728,186.399 296.062,186.565 296.5,186.5C 296.54,191.193 296.873,195.859 297.5,200.5C 290.198,205.144 283.198,210.144 276.5,215.5C 284.069,211.93 291.403,207.93 298.5,203.5C 302.066,206.54 306.066,209.04 310.5,211C 315.989,211.932 321.323,211.432 326.5,209.5C 327.626,210.808 327.626,212.142 326.5,213.5C 311.445,223.354 296.779,233.687 282.5,244.5C 297.998,236.588 312.998,227.921 327.5,218.5C 330.138,221.474 332.805,224.474 335.5,227.5C 324.288,234.933 313.288,242.6 302.5,250.5C 315.095,243.892 327.428,236.892 339.5,229.5C 342.482,229.963 345.482,230.296 348.5,230.5C 348.833,232.5 349.167,234.5 349.5,236.5C 341.812,241.008 334.478,246.008 327.5,251.5C 335.069,247.93 342.403,243.93 349.5,239.5C 350.29,240.609 350.79,241.942 351,243.5C 352.072,255.646 351.405,267.646 349,279.5C 344.53,281.483 340.03,283.65 335.5,286C 331.341,289.649 328.674,294.149 327.5,299.5C 312.899,296.549 302.732,301.882 297,315.5C 296.053,320.03 296.553,324.364 298.5,328.5C 286.013,331.484 279.013,339.317 277.5,352C 272.573,353.266 267.573,354.099 262.5,354.5C 255.059,355.156 247.726,354.489 240.5,352.5C 248.783,346.885 256.783,340.885 264.5,334.5C 254.7,339.567 245.033,344.901 235.5,350.5C 234.85,350.804 234.183,351.137 233.5,351.5C 233.061,337.228 225.728,329.728 211.5,329C 213.92,324.496 214.92,319.663 214.5,314.5C 216.404,314.262 217.738,313.262 218.5,311.5C 216.847,311.66 215.514,312.326 214.5,313.5C 212.432,309.705 210.099,306.039 207.5,302.5C 214.554,298.313 221.221,293.647 227.5,288.5C 219.829,292.333 212.496,296.666 205.5,301.5C 198.967,299.794 192.301,299.128 185.5,299.5C 200.01,289.412 214.343,279.078 228.5,268.5C 213.339,276.58 198.339,284.913 183.5,293.5C 181.604,290.257 179.27,287.257 176.5,284.5C 172.576,282.533 168.576,281.199 164.5,280.5C 178.5,270.5 192.5,260.5 206.5,250.5C 191.536,258.315 176.869,266.649 162.5,275.5C 160.918,272.124 160.251,268.458 160.5,264.5C 163.473,262.853 166.14,260.853 168.5,258.5C 165.605,259.399 162.938,260.733 160.5,262.5C 159.827,257.037 159.494,251.537 159.5,246C 160.732,240.207 161.732,234.374 162.5,228.5C 173.182,227.648 180.182,222.148 183.5,212C 191.755,212.248 199.422,210.248 206.5,206C 213.952,199.148 215.952,190.982 212.5,181.5C 222.673,179.324 229.34,173.324 232.5,163.5C 235.032,162.404 237.365,161.071 239.5,159.5C 247.335,157.474 255.335,156.974 263.5,158C 267.69,158.378 271.524,159.545 275,161.5C 275.399,161.272 275.565,160.938 275.5,160.5 Z M 276.5,215.5 C 276.027,216.906 275.027,217.573 273.5,217.5C 273.973,216.094 274.973,215.427 276.5,215.5 Z"/></g>
<g><path style="opacity:1" fill="#292826" d="M 252.5,200.5 C 255.448,200.223 258.281,200.556 261,201.5C 261.17,207.196 261.67,212.862 262.5,218.5C 268.622,219.886 273.288,223.219 276.5,228.5C 273.862,232.437 270.196,233.937 265.5,233C 263.167,230.667 260.833,228.333 258.5,226C 251.753,223.727 247.253,225.894 245,232.5C 243.367,239.735 245.533,245.569 251.5,250C 257.434,251.828 263.434,253.495 269.5,255C 280.139,264.016 281.306,274.182 273,285.5C 270.038,288.399 266.538,290.399 262.5,291.5C 261.671,296.467 261.171,301.467 261,306.5C 257.623,309.013 253.79,310.013 249.5,309.5C 249.5,303.833 249.5,298.167 249.5,292.5C 243.084,291.587 238.084,288.42 234.5,283C 236.771,278.366 240.438,276.699 245.5,278C 247.833,280.333 250.167,282.667 252.5,285C 261.367,287.164 266.034,283.497 266.5,274C 266.277,268.555 263.943,264.221 259.5,261C 253.529,259.242 247.529,257.575 241.5,256C 229.211,244.274 229.545,232.94 242.5,222C 244.65,220.589 246.984,219.755 249.5,219.5C 249.334,214.156 249.501,208.823 250,203.5C 251.045,202.627 251.878,201.627 252.5,200.5 Z"/></g>
<g><path style="opacity:0.949" fill="#9c765e" d="M 340.5,202.5 C 340.833,202.5 341.167,202.5 341.5,202.5C 348.329,206.749 355.329,210.749 362.5,214.5C 357.363,221.027 351.03,222.527 343.5,219C 339.632,214.019 338.632,208.519 340.5,202.5 Z"/></g>
<g><path style="opacity:0.987" fill="#e9b98e" d="M 360.5,297.5 C 355.167,300.5 349.833,303.5 344.5,306.5C 343.391,306.557 342.391,306.89 341.5,307.5C 340.074,305.321 339.408,302.821 339.5,300C 339.282,295.212 341.615,292.546 346.5,292C 352.906,290.019 357.573,291.852 360.5,297.5 Z"/></g>
<g><path style="opacity:0.984" fill="#ebbb90" d="M 363.5,300.5 C 368.833,303.833 373.167,308.167 376.5,313.5C 371.142,317.863 365.809,322.197 360.5,326.5C 354.892,322.561 349.892,317.894 345.5,312.5C 345.5,311.833 345.5,311.167 345.5,310.5C 351.83,307.67 357.83,304.337 363.5,300.5 Z"/></g>
<g><path style="opacity:0.961" fill="#9d775e" d="M 160.5,318.5 C 155.833,325.167 150.167,330.833 143.5,335.5C 137.143,330.802 130.81,326.135 124.5,321.5C 124.369,320.761 124.536,320.094 125,319.5C 129.419,314.612 134.252,310.278 139.5,306.5C 144.368,309.434 149.368,312.1 154.5,314.5C 150.742,310.408 146.409,307.074 141.5,304.5C 144.563,299.928 148.23,295.761 152.5,292C 157.006,289.186 161.673,288.853 166.5,291C 168.041,292.579 169.208,294.413 170,296.5C 172.71,306.575 169.544,313.908 160.5,318.5 Z M 154.5,314.5 C 156.027,314.427 157.027,315.094 157.5,316.5C 155.973,316.573 154.973,315.906 154.5,314.5 Z"/></g>
<g><path style="opacity:0.826" fill="#f3c355" d="M 344.5,306.5 C 345.234,307.708 345.567,309.041 345.5,310.5C 345.5,311.167 345.5,311.833 345.5,312.5C 343.413,311.415 342.08,309.749 341.5,307.5C 342.391,306.89 343.391,306.557 344.5,306.5 Z"/></g>
<g><path style="opacity:0.972" fill="#9d775e" d="M 205.5,368.5 C 205.5,369.167 205.833,369.5 206.5,369.5C 204.558,374.441 201.225,378.108 196.5,380.5C 192.299,377.9 187.966,375.566 183.5,373.5C 187.104,376.975 191.104,379.975 195.5,382.5C 190.11,388.892 184.11,394.559 177.5,399.5C 172.167,396.833 166.833,394.167 161.5,391.5C 165.777,395.312 170.443,398.645 175.5,401.5C 173.167,405.833 169.833,409.167 165.5,411.5C 164.609,410.89 163.609,410.557 162.5,410.5C 162.833,411.5 163.5,412.167 164.5,412.5C 164.973,413.906 165.973,414.573 167.5,414.5C 175.554,420.55 183.888,426.217 192.5,431.5C 190.833,435.167 188.167,437.833 184.5,439.5C 181.76,437.44 178.76,435.774 175.5,434.5C 177.86,436.853 180.527,438.853 183.5,440.5C 182.167,443.833 179.833,446.167 176.5,447.5C 163.167,440.167 149.833,432.833 136.5,425.5C 148.197,434.522 160.197,443.189 172.5,451.5C 170.906,454.764 168.573,457.431 165.5,459.5C 164.151,458.356 163.817,458.356 164.5,459.5C 162.906,462.764 160.573,465.431 157.5,467.5C 145.428,460.108 133.095,453.108 120.5,446.5C 131.533,454.856 142.866,462.856 154.5,470.5C 152.431,473.573 149.764,475.906 146.5,477.5C 141.833,475.167 137.167,472.833 132.5,470.5C 136.535,473.857 140.868,476.857 145.5,479.5C 143.431,482.573 140.764,484.906 137.5,486.5C 133.5,484.5 129.5,482.5 125.5,480.5C 128.545,483.547 131.878,486.213 135.5,488.5C 129.704,495.062 122.371,498.395 113.5,498.5C 106.671,494.251 99.6707,490.251 92.5,486.5C 96.5,490.167 100.5,493.833 104.5,497.5C 97.5376,496.185 91.5376,493.018 86.5,488C 66,467.5 45.5,447 25,426.5C 21.9683,422.452 19.3016,418.118 17,413.5C 16.1785,410.883 15.6785,408.216 15.5,405.5C 17.0495,406.441 18.7162,407.107 20.5,407.5C 19.4206,405.457 17.754,404.124 15.5,403.5C 14.2092,399.399 14.2092,395.399 15.5,391.5C 26.5,397.5 37.5,403.5 48.5,409.5C 38.7314,401.442 28.3981,394.109 17.5,387.5C 17.6237,383.252 19.2903,379.918 22.5,377.5C 23.3704,373.966 25.3704,371.299 28.5,369.5C 42.5,377.167 56.5,384.833 70.5,392.5C 58.2225,383.021 45.5558,374.021 32.5,365.5C 34.1667,361.833 36.8333,359.167 40.5,357.5C 42.3356,359.588 44.6689,360.921 47.5,361.5C 45.4687,359.478 43.1354,357.811 40.5,356.5C 42.5691,353.427 45.2358,351.094 48.5,349.5C 55.6628,353.247 62.6628,357.247 69.5,361.5C 65.5092,365.991 61.3426,370.324 57,374.5C 56.1751,376.701 56.6751,378.534 58.5,380C 61.3033,380.755 63.9699,380.422 66.5,379C 70.4276,374.564 74.7609,370.731 79.5,367.5C 80.391,368.11 81.391,368.443 82.5,368.5C 82.1667,367.5 81.5,366.833 80.5,366.5C 82.8333,362.167 86.1667,358.833 90.5,356.5C 94.833,359.669 99.4997,362.336 104.5,364.5C 100.386,360.936 96.0524,357.603 91.5,354.5C 96.89,348.108 102.89,342.441 109.5,337.5C 111.5,338.167 113.5,338.833 115.5,339.5C 114.167,338.167 112.833,336.833 111.5,335.5C 113.423,332.397 115.59,329.397 118,326.5C 118.671,325.748 119.504,325.414 120.5,325.5C 127.833,329.5 135.167,333.5 142.5,337.5C 138.537,341.964 134.37,346.298 130,350.5C 129.28,352.112 129.446,353.612 130.5,355C 133.303,355.755 135.97,355.422 138.5,354C 142.408,349.587 146.741,345.753 151.5,342.5C 151.842,343.338 152.508,343.672 153.5,343.5C 153.167,342.833 152.833,342.167 152.5,341.5C 152.369,340.761 152.536,340.094 153,339.5C 162.581,329.919 172.081,320.419 181.5,311C 192.617,304.89 199.617,308.057 202.5,320.5C 201.901,323.702 200.734,326.702 199,329.5C 184.535,345.966 169.368,361.8 153.5,377C 157.782,377.965 161.782,377.298 165.5,375C 177.529,362.637 189.862,350.637 202.5,339C 206.201,338.41 209.868,338.077 213.5,338C 219.696,343.663 221.196,350.497 218,358.5C 215.518,361.949 212.685,365.116 209.5,368C 208.207,368.49 206.873,368.657 205.5,368.5 Z M 115.5,339.5 C 117.027,339.427 118.027,340.094 118.5,341.5C 116.973,341.573 115.973,340.906 115.5,339.5 Z M 152.5,341.5 C 152.833,342.167 153.167,342.833 153.5,343.5C 152.508,343.672 151.842,343.338 151.5,342.5C 151.5,341.833 151.833,341.5 152.5,341.5 Z M 91.5,354.5 C 96.0524,357.603 100.386,360.936 104.5,364.5C 99.4997,362.336 94.833,359.669 90.5,356.5C 90.8333,355.833 91.1667,355.167 91.5,354.5 Z M 47.5,361.5 C 49.0269,361.427 50.0269,362.094 50.5,363.5C 48.9731,363.573 47.9731,362.906 47.5,361.5 Z M 79.5,367.5 C 79.5,366.833 79.8333,366.5 80.5,366.5C 81.5,366.833 82.1667,367.5 82.5,368.5C 81.391,368.443 80.391,368.11 79.5,367.5 Z M 202.5,366.5 C 204.027,366.427 205.027,367.094 205.5,368.5C 203.973,368.573 202.973,367.906 202.5,366.5 Z M 180.5,371.5 C 182.027,371.427 183.027,372.094 183.5,373.5C 181.973,373.573 180.973,372.906 180.5,371.5 Z M 158.5,389.5 C 160.027,389.427 161.027,390.094 161.5,391.5C 159.973,391.573 158.973,390.906 158.5,389.5 Z"/></g>
<g><path style="opacity:0.996" fill="#eaba8e" d="M 320.5,308.5 C 318.001,314.24 319.335,314.573 324.5,309.5C 336.215,319.215 346.881,329.881 356.5,341.5C 350.366,345.404 344.032,349.071 337.5,352.5C 326.816,344.314 317.649,334.648 310,323.5C 307.637,314.193 311.137,309.193 320.5,308.5 Z"/></g>
<g><path style="opacity:1" fill="#f5c559" d="M 320.5,308.5 C 321.959,308.433 323.292,308.766 324.5,309.5C 319.335,314.573 318.001,314.24 320.5,308.5 Z"/></g>
<g><path style="opacity:0.867" fill="#99735c" d="M 101.5,328.5 C 95.1492,324.473 88.8158,320.473 82.5,316.5C 82.9623,315.12 83.9623,314.453 85.5,314.5C 92.7467,317.235 98.7467,321.735 103.5,328C 102.906,328.464 102.239,328.631 101.5,328.5 Z"/></g>
<g><path style="opacity:0.99" fill="#dfb189" d="M 425.5,315.5 C 420.632,318.434 415.632,321.1 410.5,323.5C 414.252,317.797 419.252,315.13 425.5,315.5 Z"/></g>
<g><path style="opacity:0.976" fill="#ebba8f" d="M 379.5,316.5 C 383.167,318.167 385.833,320.833 387.5,324.5C 380.668,327.412 374.334,331.079 368.5,335.5C 365.5,333.167 362.833,330.5 360.5,327.5C 367.332,324.588 373.666,320.921 379.5,316.5 Z"/></g>
<g><path style="opacity:0.936" fill="#9d775e" d="M 78.5,318.5 C 85.3293,322.749 92.3293,326.749 99.5,330.5C 94.8333,337.167 89.1667,342.833 82.5,347.5C 75.8871,343.55 69.5537,339.217 63.5,334.5C 65.1242,330.378 68.1242,327.878 72.5,327C 72.2716,326.601 71.9382,326.435 71.5,326.5C 73.0941,323.236 75.4275,320.569 78.5,318.5 Z"/></g>
<g><path style="opacity:0.975" fill="#ebba8f" d="M 430.5,319.5 C 434.167,321.167 436.833,323.833 438.5,327.5C 432.223,331.115 426.223,335.115 420.5,339.5C 417.167,336.833 414.167,333.833 411.5,330.5C 417.997,327.086 424.33,323.419 430.5,319.5 Z"/></g>
<g><path style="opacity:0.977" fill="#ecbb90" d="M 388.5,325.5 C 392.167,327.167 394.833,329.833 396.5,333.5C 390.833,337.5 385.167,341.5 379.5,345.5C 375.564,343.234 372.231,340.234 369.5,336.5C 375.67,332.581 382.003,328.914 388.5,325.5 Z"/></g>
<g><path style="opacity:0.977" fill="#ebbb90" d="M 440.5,329.5 C 443.764,331.094 446.431,333.427 448.5,336.5C 442.5,340.5 436.5,344.5 430.5,348.5C 426.5,346.5 423.5,343.5 421.5,339.5C 427.964,336.434 434.298,333.101 440.5,329.5 Z"/></g>
<g><path style="opacity:0.989" fill="#edbc90" d="M 400.5,337.5 C 401.239,337.369 401.906,337.536 402.5,338C 408.718,343.75 414.385,349.916 419.5,356.5C 422.675,358.085 425.842,360.752 429,364.5C 429.483,365.448 429.649,366.448 429.5,367.5C 434.408,369.406 438.075,372.739 440.5,377.5C 434.959,380.436 429.959,384.103 425.5,388.5C 431.298,385.767 436.965,382.767 442.5,379.5C 445.978,379.816 449.312,379.316 452.5,378C 454.155,376.556 454.822,374.722 454.5,372.5C 460.87,369.321 466.87,365.654 472.5,361.5C 476.167,363.167 478.833,365.833 480.5,369.5C 465.952,379.6 451.619,389.934 437.5,400.5C 453.43,391.892 469.096,382.892 484.5,373.5C 487.917,375.592 490.25,378.592 491.5,382.5C 476.864,392.478 462.531,402.811 448.5,413.5C 463.671,405.083 478.671,396.416 493.5,387.5C 495.067,388.681 495.901,390.347 496,392.5C 497.03,399.041 496.53,405.374 494.5,411.5C 493.833,411.5 493.5,411.833 493.5,412.5C 492.833,412.5 492.5,412.833 492.5,413.5C 492.833,413.5 493.167,413.5 493.5,413.5C 492.404,418.358 490.238,422.691 487,426.5C 465.833,449 444,470.833 421.5,492C 411.241,499.02 400.241,500.353 388.5,496C 385.379,494.694 382.713,492.86 380.5,490.5C 376.637,489.306 373.637,486.973 371.5,483.5C 374.473,481.853 377.14,479.853 379.5,477.5C 376.24,478.774 373.24,480.44 370.5,482.5C 369.761,482.631 369.094,482.464 368.5,482C 363.908,477.25 359.575,472.417 355.5,467.5C 369.833,456.833 384.167,446.167 398.5,435.5C 382.57,444.108 366.904,453.108 351.5,462.5C 347.833,460.833 345.167,458.167 343.5,454.5C 357.802,444.856 371.802,434.856 385.5,424.5C 369.87,432.648 354.536,441.315 339.5,450.5C 335.833,448.833 333.167,446.167 331.5,442.5C 347.224,431.978 362.557,420.978 377.5,409.5C 360.238,418.775 343.238,428.441 326.5,438.5C 323.427,436.431 321.094,433.764 319.5,430.5C 327.19,425.134 334.857,419.801 342.5,414.5C 343.167,414.5 343.5,414.167 343.5,413.5C 344.473,413.013 345.473,412.513 346.5,412C 346.272,411.601 345.938,411.435 345.5,411.5C 342.833,407.833 340.167,404.167 337.5,400.5C 336.761,400.631 336.094,400.464 335.5,400C 328.616,393.585 322.283,386.751 316.5,379.5C 318.404,379.262 319.738,378.262 320.5,376.5C 318.833,377.167 317.167,377.833 315.5,378.5C 312.167,377.167 309.833,374.833 308.5,371.5C 314.87,368.321 320.87,364.654 326.5,360.5C 333.243,365.737 339.577,371.571 345.5,378C 349.687,378.827 353.521,377.994 357,375.5C 357.667,374.833 357.667,374.167 357,373.5C 350.631,367.298 344.464,360.965 338.5,354.5C 344.873,350.313 351.539,346.647 358.5,343.5C 362.833,345.833 366.167,349.167 368.5,353.5C 367.306,354.272 366.306,355.272 365.5,356.5C 367.153,356.34 368.486,355.674 369.5,354.5C 372.941,354.699 376.274,354.199 379.5,353C 381.155,351.556 381.822,349.722 381.5,347.5C 387.833,344.167 394.167,340.833 400.5,337.5 Z M 368.5,353.5 C 369.167,353.5 369.5,353.833 369.5,354.5C 368.486,355.674 367.153,356.34 365.5,356.5C 366.306,355.272 367.306,354.272 368.5,353.5 Z M 440.5,377.5 C 441.5,377.833 442.167,378.5 442.5,379.5C 436.965,382.767 431.298,385.767 425.5,388.5C 429.959,384.103 434.959,380.436 440.5,377.5 Z M 425.5,388.5 C 425.027,389.906 424.027,390.573 422.5,390.5C 422.973,389.094 423.973,388.427 425.5,388.5 Z M 492.5,413.5 C 492.027,414.906 491.027,415.573 489.5,415.5C 489.973,414.094 490.973,413.427 492.5,413.5 Z"/></g>
<g><path style="opacity:0.924" fill="#9d765e" d="M 59.5,338.5 C 65.8823,342.863 72.549,346.863 79.5,350.5C 77.5,354.5 74.5,357.5 70.5,359.5C 64.3402,354.92 58.0069,350.586 51.5,346.5C 53.1667,342.833 55.8333,340.167 59.5,338.5 Z"/></g>
<g><path style="opacity:0.99" fill="#ecbb8f" d="M 302.5,339.5 C 301.639,341.386 300.639,343.22 299.5,345C 299.833,345.167 300.167,345.333 300.5,345.5C 302.955,343.703 305.622,342.37 308.5,341.5C 311.243,343.239 313.243,345.573 314.5,348.5C 308.298,352.101 301.964,355.434 295.5,358.5C 293.39,357.547 292.223,355.881 292,353.5C 289.297,344.047 292.797,339.381 302.5,339.5 Z"/></g>
<g><path style="opacity:1" fill="#f7c759" d="M 302.5,339.5 C 304.898,339.259 306.898,339.926 308.5,341.5C 305.622,342.37 302.955,343.703 300.5,345.5C 300.167,345.333 299.833,345.167 299.5,345C 300.639,343.22 301.639,341.386 302.5,339.5 Z"/></g>
<g><path style="opacity:0.973" fill="#ebba8f" d="M 450.5,339.5 C 454.167,341.167 456.833,343.833 458.5,347.5C 452.223,351.115 446.223,355.115 440.5,359.5C 437.167,356.833 434.167,353.833 431.5,350.5C 438.032,347.071 444.366,343.404 450.5,339.5 Z"/></g>
<g><path style="opacity:0.974" fill="#ecbb91" d="M 315.5,349.5 C 319.771,352.101 323.437,355.434 326.5,359.5C 319.995,362.917 313.662,366.584 307.5,370.5C 303.833,368.833 301.167,366.167 299.5,362.5C 304.809,358.197 310.142,353.863 315.5,349.5 Z"/></g>
<g><path style="opacity:0.979" fill="#ebba90" d="M 460.5,349.5 C 464.167,351.167 466.833,353.833 468.5,357.5C 462.299,360.765 456.632,364.765 451.5,369.5C 447.564,367.234 444.231,364.234 441.5,360.5C 447.67,356.581 454.003,352.914 460.5,349.5 Z"/></g>
<g><path style="opacity:0.966" fill="#9c765d" d="M 226.5,397.5 C 219.14,393.488 211.806,389.488 204.5,385.5C 207.709,379.796 212.375,375.629 218.5,373C 231.613,376.398 235.113,384.232 229,396.5C 228.329,397.252 227.496,397.586 226.5,397.5 Z"/></g>
<g><path style="opacity:0.981" fill="#ecbb90" d="M 291.5,375.5 C 287.125,383.83 288.791,384.83 296.5,378.5C 299.764,380.094 302.431,382.427 304.5,385.5C 297.968,388.929 291.634,392.596 285.5,396.5C 283.248,396.084 281.748,394.751 281,392.5C 279.566,388.594 279.233,384.594 280,380.5C 282.52,375.314 286.353,373.647 291.5,375.5 Z"/></g>
<g><path style="opacity:0.934" fill="#9d775e" d="M 202.5,387.5 C 209.167,392.167 215.833,396.833 222.5,401.5C 220.833,405.167 218.167,407.833 214.5,409.5C 212.833,413.167 210.167,415.833 206.5,417.5C 199.504,412.666 192.171,408.333 184.5,404.5C 189.89,398.108 195.89,392.441 202.5,387.5 Z"/></g>
<g><path style="opacity:0.974" fill="#ecbc90" d="M 306.5,387.5 C 310.167,390.5 313.5,393.833 316.5,397.5C 309.668,400.412 303.334,404.079 297.5,408.5C 293.833,406.833 291.167,404.167 289.5,400.5C 295.347,396.409 301.013,392.076 306.5,387.5 Z"/></g>
<g><path style="opacity:0.984" fill="#ecbc91" d="M 316.5,398.5 C 320.5,400.5 323.5,403.5 325.5,407.5C 319.167,410.833 312.833,414.167 306.5,417.5C 303.236,415.906 300.569,413.573 298.5,410.5C 304.5,406.5 310.5,402.5 316.5,398.5 Z"/></g>
<g><path style="opacity:0.944" fill="#9d775e" d="M 182.5,407.5 C 189.466,411.81 196.133,416.477 202.5,421.5C 201.167,424.833 198.833,427.167 195.5,428.5C 187.164,424.335 179.164,419.668 171.5,414.5C 175.409,412.6 179.075,410.267 182.5,407.5 Z"/></g>
<g><path style="opacity:0.968" fill="#edbb90" d="M 326.5,408.5 C 329.225,409.713 331.559,411.546 333.5,414C 335.473,414.495 337.473,414.662 339.5,414.5C 332.167,419.167 324.833,423.833 317.5,428.5C 313.833,426.833 311.167,424.167 309.5,420.5C 315.38,416.733 321.046,412.733 326.5,408.5 Z"/></g>
</svg>
